<?xml version="1.0" encoding="UTF-8"?>
<svg width="126px" height="126px" viewBox="0 0 126 126" version="1.1" xmlns="http://www.w3.org/2000/svg" xmlns:xlink="http://www.w3.org/1999/xlink">
    <title>F7373524-B669-48B2-B39C-48343836085D</title>
    <defs>
        <linearGradient x1="50%" y1="-2.48949813e-15%" x2="50%" y2="72.9917326%" id="linearGradient-1">
            <stop stop-color="#EA04D0" offset="0%"></stop>
            <stop stop-color="#524DC4" offset="99.926098%"></stop>
        </linearGradient>
    </defs>
    <g id="Search" stroke="none" stroke-width="1" fill="none" fill-rule="evenodd">
        <g id="Main-Page" transform="translate(-898.000000, -722.000000)">
            <g id="Group-2" transform="translate(-56.000000, -7.000000)">
                <g id="Group-5" transform="translate(466.000000, 446.000000)">
                    <g id="Message-Field">
                        <g id="Group-4" transform="translate(499.000000, 294.000000)">
                            <path d="M52,104 C80.718807,104 104,80.718807 104,52 C104,23.281193 80.718807,0 52,0 C23.281193,0 0,23.281193 0,52 C0,62.2628174 2.97307349,71.8312362 8.10492392,79.8909601 C17.3337131,94.3850481 33.5440104,104 52,104 Z" id="Oval" stroke-opacity="0.1" stroke="#634AC7" stroke-width="21" fill="#FFFFFF"></path>
                            <rect id="Rectangle" stroke="#5B49C5" fill="url(#linearGradient-1)" x="19.5" y="20.5" width="64" height="64" rx="32"></rect>
                            <path d="M53,39 L53,51 L65,51 L65,54 L53,54 L53,66 L50,66 L50,54 L38,54 L38,51 L50,51 L50,39 L53,39 Z" id="Combined-Shape" fill="#FFFFFF"></path>
                        </g>
                    </g>
                </g>
            </g>
        </g>
    </g>
</svg>