<?xml version="1.0" encoding="UTF-8"?>
<svg width="101px" height="100px" viewBox="0 0 101 100" version="1.1" xmlns="http://www.w3.org/2000/svg" xmlns:xlink="http://www.w3.org/1999/xlink">
    <title>Artboard</title>
    <defs>
        <radialGradient cx="0%" cy="54.652%" fx="0%" fy="54.652%" r="71.688929%" gradientTransform="translate(0.000000,0.546520),scale(0.924313,1.000000),translate(-0.000000,-0.546520)" id="radialGradient-1">
            <stop stop-color="#FFB900" offset="0%"></stop>
            <stop stop-color="#F95D8F" offset="60%"></stop>
            <stop stop-color="#F95353" offset="99.91%"></stop>
        </radialGradient>
    </defs>
    <g id="Artboard" stroke="none" stroke-width="1" fill="none" fill-rule="evenodd">
        <path d="M78.2527382,52.933664 C66.2399256,52.933664 56.5034098,62.6701798 56.5034098,74.6809258 C56.5034098,86.6927051 66.2399256,96.4312875 78.2527382,96.4312875 C90.2634842,96.4312875 100,86.6927051 100,74.6809258 C100,62.6701798 90.2634842,52.933664 78.2527382,52.933664 Z M21.7482951,52.9346973 C9.73754908,52.9357305 0,62.6701798 0,74.6819591 C0,86.6927051 9.73754908,96.4302542 21.7482951,96.4302542 C33.7600744,96.4302542 43.4976235,86.6927051 43.4976235,74.6819591 C43.4976235,62.6701798 33.7600744,52.9346973 21.7472618,52.9346973 L21.7482951,52.9346973 Z M71.7482951,25.7482951 C71.7482951,37.7590411 62.0117793,47.4986567 50.0010333,47.4986567 C37.9882207,47.4986567 28.2517049,37.7590411 28.2517049,25.7482951 C28.2517049,13.7375491 37.9882207,4 50.0010333,4 C62.0117793,4 71.7472618,13.7375491 71.7472618,25.7482951 L71.7482951,25.7482951 Z" id="Shape" fill="url(#radialGradient-1)" fill-rule="nonzero"></path>
    </g>
</svg>