<?xml version="1.0" encoding="UTF-8"?>
<svg width="20px" height="15px" viewBox="0 0 20 15" version="1.1" xmlns="http://www.w3.org/2000/svg" xmlns:xlink="http://www.w3.org/1999/xlink">
    <title>240594CD-218B-4349-8226-57563C036E85</title>
    <g id="Search" stroke="none" stroke-width="1" fill="none" fill-rule="evenodd">
        <g id="Main-Page" transform="translate(-1590.000000, -27.000000)" fill="#FFFFFF" fill-rule="nonzero">
            <g id="Group-2" transform="translate(-56.000000, -7.000000)">
                <g id="header" transform="translate(54.000000, 7.000000)">
                    <g id="Group-19">
                        <g id="Group-18" transform="translate(1579.000000, 20.000000)">
                            <g id="Group-8" transform="translate(13.000000, 6.000000)">
                                <g id="noun_upgrade_411200" transform="translate(0.000000, 1.000000)">
                                    <circle id="Oval" cx="8.57142857" cy="4.28571429" r="4.28571429"></circle>
                                    <path d="M11.8477711,11.5650258 C11.8477913,10.5468162 12.2575049,9.56856056 12.9902096,8.83727419 C12.9159999,8.78156725 12.8408138,8.72774868 12.7646512,8.67393011 C12.5645537,8.5361974 12.2931799,8.54787732 12.1065286,8.70225567 C9.77719899,10.6390789 6.33287853,10.6362683 4.00693285,8.69564638 C3.82028151,8.54126802 3.54890772,8.52958811 3.34881019,8.66732081 C1.46433679,9.97516553 0.247163975,11.9989499 0.00351604897,14.229517 C-0.0167259416,14.4276913 0.0510862526,14.624846 0.190043775,14.7718211 C0.329001297,14.9187962 0.526008736,15.0017406 0.731942619,15 L13.9285714,15 C12.6865358,14.244624 11.8477711,13.0398434 11.8477711,11.5650258 Z" id="Path"></path>
                                    <path d="M19.2068177,11.2599956 L17.4880839,12.5360859 C17.4669477,12.5541526 17.4583046,12.5840388 17.4662557,12.6115644 L18.1305923,14.7410653 C18.1576478,14.8222695 18.1310446,14.9126695 18.0652381,14.9631449 C17.9994317,15.0136202 17.910138,15.0121161 17.8458766,14.9594499 L16.1062636,13.59983 C16.0862129,13.5842256 16.0589316,13.5842256 16.0388809,13.59983 L14.2983189,14.933284 C14.2343411,14.9877226 14.143947,14.9901197 14.0774831,14.9391401 C14.0110193,14.8881606 13.9848715,14.7963727 14.0136031,14.7148994 L14.6779398,12.6186091 C14.6857538,12.593189 14.6768729,12.5653464 14.6561116,12.5501752 L12.9364287,11.2599956 C12.8703178,11.2071102 12.841936,11.1163832 12.8651316,11.0320833 C12.8883273,10.9477833 12.9582668,10.8874772 13.0408245,10.8805902 L15.1780904,10.8805902 C15.2027658,10.8805902 15.224594,10.890654 15.2321864,10.8654945 L15.896523,8.70278303 C15.9219582,8.62298475 15.9932113,8.56985348 16.0726316,8.57142857 C16.152052,8.57307493 16.2213371,8.62905645 16.2438762,8.70982769 L16.9082129,10.8624753 C16.9158053,10.8876348 16.9376335,10.8805902 16.9623088,10.8805902 L19.0976767,10.8805902 C19.1810651,10.8856006 19.2526621,10.9452158 19.2770311,11.0299295 C19.3014002,11.1146433 19.2733715,11.206484 19.2068177,11.2599956 Z" id="Path"></path>
                                </g>
                            </g>
                        </g>
                    </g>
                </g>
            </g>
        </g>
    </g>
</svg>