<?xml version="1.0" encoding="UTF-8"?>
<svg width="55px" height="55px" viewBox="0 0 55 55" version="1.1" xmlns="http://www.w3.org/2000/svg" xmlns:xlink="http://www.w3.org/1999/xlink">
    <title>Gmail-Logo.wine</title>
    <g id="Page-1" stroke="none" stroke-width="1" fill="none" fill-rule="evenodd">
        <g id="Gmail-Logo.wine" transform="translate(0.000000, 6.000000)" fill-rule="nonzero">
            <path d="M3.74625375,41.2189061 L12.4875125,41.2189061 L12.4875125,19.9901349 L0,10.6245005 L0,37.4726523 C0,39.5424575 1.67644855,41.2189061 3.74625375,41.2189061 Z" id="Path" fill="#4285F4"></path>
            <path d="M42.4575425,41.2189061 L51.1988012,41.2189061 C53.2686064,41.2189061 54.9450549,39.5424575 54.9450549,37.4726523 L54.9450549,10.6245005 L42.4575425,19.9901349 L42.4575425,41.2189061 Z" id="Path" fill="#34A853"></path>
            <path d="M42.4575425,3.75636863 L42.4575425,19.9901349 L54.9450549,10.6245005 L54.9450549,5.6294955 C54.9450549,0.99975025 49.6597153,-1.64448052 45.954046,1.13399101 L42.4575425,3.75636863 Z" id="Path" fill="#FBBC04"></path>
            <polygon id="Path" fill="#EA4335" points="12.4875125 19.9901349 12.4875125 3.75636863 27.4725275 14.9951299 42.4575425 3.75636863 42.4575425 19.9901349 27.4725275 31.2288961"></polygon>
            <path d="M0,5.6294955 L0,10.6245005 L12.4875125,19.9901349 L12.4875125,3.75636863 L8.99100899,1.13399101 C5.28533966,-1.64448052 0,0.99975025 0,5.6294955 Z" id="Path" fill="#C5221F"></path>
        </g>
    </g>
</svg>