<?xml version="1.0" encoding="UTF-8"?>
<svg width="134px" height="100px" viewBox="0 0 134 100" version="1.1" xmlns="http://www.w3.org/2000/svg" xmlns:xlink="http://www.w3.org/1999/xlink">
    <title>gmail-logo</title>
    <defs>
        <linearGradient x1="0%" y1="50.0031857%" x2="100%" y2="50.0031857%" id="linearGradient-1">
            <stop stop-color="#C8C8C8" offset="0%"></stop>
            <stop stop-color="#CDCDCD" offset="100%"></stop>
        </linearGradient>
        <linearGradient x1="0%" y1="49.9981553%" x2="100%" y2="49.9981553%" id="linearGradient-2">
            <stop stop-color="#D9D9D9" offset="0%"></stop>
            <stop stop-color="#E2E2E2" offset="100%"></stop>
        </linearGradient>
    </defs>
    <g id="Page-1" stroke="none" stroke-width="1" fill="none" fill-rule="evenodd">
        <g id="gmail-logo" fill-rule="nonzero">
            <path d="M125,100 L8.33333308,100 C3.73096016,100 -2.61666659e-07,96.26904 -2.61666659e-07,91.6666667 L-2.61666659e-07,8.3333335 C-2.61666659e-07,3.73096058 3.73096016,1.66666669e-07 8.33333308,1.66666669e-07 L125,1.66666669e-07 C129.602373,1.66666669e-07 133.333333,3.73096058 133.333333,8.3333335 L133.333333,91.6666667 C133.333333,96.26904 129.602373,100 125,100 L125,100 Z" id="Path" fill="#EAEAEA"></path>
            <path d="M16.6666664,100 L8.33333308,100 C3.73096016,100 -2.61666662e-07,96.26904 -2.61666662e-07,91.6666667 L-2.61666662e-07,8.3333335 C-2.61666662e-07,5.35612037 1.58832403,2.60506182 4.16666641,1.11645516 C6.74500868,-0.372151498 9.92165742,-0.372151498 12.4999997,1.11645516 C15.0783421,2.60506182 16.6666664,5.35612037 16.6666664,8.3333335 L16.6666664,100 Z" id="Path" fill="#D54C3F"></path>
            <path d="M116.666667,100 L125,100 C129.602373,100 133.333333,96.26904 133.333333,91.6666667 L133.333333,8.3333335 C133.333333,3.73096058 129.602373,1.66666669e-07 125,1.66666669e-07 C120.397627,1.66666669e-07 116.666667,3.73096058 116.666667,8.3333335 L116.666667,100 Z" id="Path" fill="#B63524"></path>
            <path d="M129.770791,15.0993512 C132.212038,13.4022105 133.558288,10.5375278 133.302423,7.58440158 C133.046557,4.63127533 131.227446,2.03835558 128.530333,0.782370175 C125.833219,-0.47361523 122.667858,-0.20185222 120.226612,1.49528871 L66.6725418,40.3083425 L66.6669863,40.3111076 L66.6614309,40.3083425 L13.1073613,1.49528871 C9.33352017,-1.12826347 4.13768023,-0.209699673 1.50212783,3.54695838 C-1.13342456,7.30361645 -0.210659358,12.4757988 3.56318161,15.0993512 L3.34096556,14.936213 L66.6669863,60.8333335 M130.081301,14.8847519 L66.3414632,60.8333335" id="Shape" fill="#DE5145"></path>
            <path d="M125,-9.82803615e-06 C123.225,-9.82803615e-06 121.577777,0.548782225 120.227778,1.48169459 L66.672222,39.9972563 L66.6666664,39.9999902 L66.6611108,39.9972563 L13.1055553,1.48169459 C11.7069288,0.514768333 10.0404806,-0.00263219083 8.33333308,-9.82803615e-06 L125,-9.82803615e-06 Z" id="Path" fill="#EFEFEF"></path>
            <path d="M15.8306975,28.2322232 L2.50527088,14.1666668 L2.49999974,14.1779013 C2.77936984,14.4587631 3.07718891,14.7171558 3.39345694,14.9530797 L3.18261158,14.7873713 L15.8333331,24.6034895 L15.8306975,28.3333335" id="Path" fill="#C64132"></path>
            <polyline id="Path" fill="#E3E3E3" points="57.4999998 68.4757298 16.6666664 100 16.6694503 28.3333335 57.4916482 68.4646774"></polyline>
            <polygon id="Path" fill="url(#linearGradient-1)" points="57.4105966 68.3333335 66.6666664 61.1796752 16.6666664 25.0000002 16.6666664 28.2220454 57.4022628 68.3222897"></polygon>
            <polygon id="Path" fill="url(#linearGradient-2)" points="89.1036242 100 116.666667 100 116.666667 25.0000002 66.7486913 61.26176 57.4999998 68.4200333"></polygon>
        </g>
    </g>
</svg>