<?xml version="1.0" encoding="UTF-8"?>
<svg width="55px" height="55px" viewBox="0 0 55 55" version="1.1" xmlns="http://www.w3.org/2000/svg" xmlns:xlink="http://www.w3.org/1999/xlink">
    <title>GoogleDrive_2020</title>
    <defs>
        <rect id="path-1" x="0" y="0" width="54.9921446" height="54.9921446"></rect>
    </defs>
    <g id="Page-1" stroke="none" stroke-width="1" fill="none" fill-rule="evenodd">
        <g id="GoogleDrive_2020">
            <mask id="mask-2" fill="white">
                <use xlink:href="#path-1"></use>
            </mask>
            <g id="rect4"></g>
            <g id="g25" mask="url(#mask-2)">
                <g transform="translate(0.000000, 3.000000)" id="g23">
                    <path d="M4.08706897,41.3827586 L6.46913793,45.4963793 C6.96059302,46.3434332 7.66467024,47.0475104 8.51172414,47.5389655 L17.032931,32.8084483 L0,32.8084483 C0.000925451242,33.7860284 0.257201493,34.7464098 0.743448276,35.5944828 L4.08706897,41.3827586 Z" id="path11" fill="#0066DA" fill-rule="nonzero"></path>
                    <path d="M27.0201724,15.4758621 L18.5084483,0.737758621 C17.6599797,1.230526 16.9551594,1.93665401 16.4639655,2.78603448 L0.743448276,30.0224138 C0.257201493,30.8704868 0.000925451242,31.8308682 0,32.8084483 L17.032931,32.8084483 L27.0201724,15.4758621 Z" id="path13" fill="#00AC47" fill-rule="nonzero"></path>
                    <path d="M27.0201724,15.4758621 L35.5318966,0.737758621 C34.68764,0.24396936 33.72579,-0.0128734368 32.7477586,-0.00583631866 L21.2944828,-0.00583631866 C20.3183897,0.00188620111 19.360279,0.257730461 18.5103448,0.737758621 L27.0201724,15.4758621 Z" id="path15" fill="#00832D" fill-rule="nonzero"></path>
                    <path d="M37.0168966,32.8084483 L17.032931,32.8084483 L8.51172414,47.5408621 C9.35668057,48.0346318 10.3191326,48.2914604 11.2977586,48.2844557 L42.7444828,48.2844557 C43.7205759,48.2767345 44.6786865,48.0208902 45.5286207,47.5408621 L37.0168966,32.8084483 Z" id="path17" fill="#2684FC" fill-rule="nonzero"></path>
                    <path d="M45.5305172,47.5408621 C46.3757235,47.048098 47.0777952,46.3434116 47.5674138,45.4963793 L48.5574138,43.7894828 L53.2987931,35.5887931 C53.7844594,34.7405717 54.0400846,33.7801793 54.0403448,32.8027586 L37.0491379,32.8027586 L45.5305172,47.5408621 Z" id="path19" fill="#EA4335" fill-rule="nonzero"></path>
                    <path d="M45.4356897,16.4051724 L37.5744828,2.78793103 C37.0844292,1.93782399 36.3801811,1.23096027 35.5318966,0.737758621 L27.0201724,15.4701724 L37.0168966,32.8027586 L54.0156897,32.8027586 C54.0147642,31.8251785 53.7584882,30.8647971 53.2722414,30.0167241 L45.4356897,16.4051724 Z" id="path21" fill="#FFBA00" fill-rule="nonzero"></path>
                </g>
            </g>
        </g>
    </g>
</svg>