<?xml version="1.0" encoding="UTF-8"?>
<svg width="40px" height="52px" viewBox="0 0 40 52" version="1.1" xmlns="http://www.w3.org/2000/svg" xmlns:xlink="http://www.w3.org/1999/xlink">
    <title>icon-word (1)</title>
    <defs>
        <linearGradient x1="50%" y1="0%" x2="50%" y2="100%" id="linearGradient-1">
            <stop stop-color="#4F4FC4" offset="0%"></stop>
            <stop stop-color="#2D2E2C" offset="100%"></stop>
        </linearGradient>
        <linearGradient x1="50%" y1="0%" x2="50%" y2="100%" id="linearGradient-2">
            <stop stop-color="#4F4FC4" offset="0%"></stop>
            <stop stop-color="#2D2E2C" offset="100%"></stop>
        </linearGradient>
        <linearGradient x1="50%" y1="0%" x2="50%" y2="100%" id="linearGradient-3">
            <stop stop-color="#4F4FC4" offset="0%"></stop>
            <stop stop-color="#2D2E2C" offset="100%"></stop>
        </linearGradient>
    </defs>
    <g id="Search" stroke="none" stroke-width="1" fill="none" fill-rule="evenodd">
        <g id="Search-Results-with-filter" transform="translate(-127.000000, -445.000000)" fill-rule="nonzero">
            <g id="icon-word-(1)" transform="translate(128.000000, 446.000000)">
                <g id="icon-word" transform="translate(19.000000, 25.000000) scale(-1, 1) translate(-19.000000, -25.000000) ">
                    <g id="path-1-link" stroke="url(#linearGradient-1)">
                        <path d="M37.9437037,14.118665 L23.8857143,0 L2.98370371,0 C1.35111111,0 0,1.33481646 0,2.94771969 C0,6.1206162 0,8.50028859 0,10.0867368 C0,18.3013021 0,30.6231499 0,47.0522803 C0,48.6651835 1.35111111,50 2.98370371,50 L35.0162963,50 C36.6488889,50 38,48.6651835 38,47.0522803 C37.9768196,33.4916311 37.9594343,23.3211442 37.9478441,16.5408196 C37.946924,16.002563 37.9455439,15.1951782 37.9437037,14.118665 Z" id="path-1"></path>
                    </g>
                    <g id="path-3-link" transform="translate(23.500000, 0.000000)" fill="url(#linearGradient-2)">
                        <path d="M0.403208428,0.670616908 L0.403208428,12.3082535 C0.403208428,13.2097985 1.4902608,14.2797127 2.64358398,14.2797127 L14,14.3037845 L0.403208428,0.670616908 Z" id="path-3"></path>
                    </g>
                    <path d="M29.4375,43 C29.8839286,43 30.2559524,42.8541667 30.5535714,42.5625 C30.8511905,42.2708333 31,41.90625 31,41.46875 L31,41.46875 L31,23.53125 C31,23.09375 30.8511905,22.7291667 30.5535714,22.4375 C30.2559524,22.1458333 29.8839286,22 29.4375,22 L29.4375,22 L7.5625,22 C7.11607143,22 6.74404762,22.1458333 6.44642857,22.4375 C6.14880952,22.7291667 6,23.09375 6,23.53125 L6,23.53125 L6,41.46875 C6,41.90625 6.14880952,42.2708333 6.44642857,42.5625 C6.74404762,42.8541667 7.11607143,43 7.5625,43 L7.5625,43 L29.4375,43 Z M29,39 L23.5859375,33.1544118 C23.4036458,32.9338235 23.1666667,32.8235294 22.875,32.8235294 C22.65625,32.8235294 22.4192708,32.9154412 22.1640625,33.0992647 L22.1640625,33.0992647 L21.1796875,33.9816176 C20.9244792,34.1654412 20.7057292,34.2573529 20.5234375,34.2573529 C20.3411458,34.2573529 20.140625,34.1838235 19.921875,34.0367647 L19.921875,34.0367647 L19.703125,33.8161765 L16.75,30.5625 C16.53125,30.3051471 16.2213542,30.1764706 15.8203125,30.1764706 C15.4921875,30.1764706 15.1822917,30.3235294 14.890625,30.6176471 L14.890625,30.6176471 L8,39 L8,24.6617647 C8.07291667,24.2205882 8.30989583,24 8.7109375,24 L8.7109375,24 L28.2890625,24 C28.7630208,24 29,24.2205882 29,24.6617647 L29,24.6617647 L29,39 Z M24.5,31 C25.1944444,31 25.7847222,30.7569444 26.2708333,30.2708333 C26.7569444,29.7847222 27,29.1944444 27,28.5 C27,27.8055556 26.7569444,27.2152778 26.2708333,26.7291667 C25.7847222,26.2430556 25.1944444,26 24.5,26 C23.8055556,26 23.2152778,26.2430556 22.7291667,26.7291667 C22.2430556,27.2152778 22,27.8055556 22,28.5 C22,29.1944444 22.2430556,29.7847222 22.7291667,30.2708333 C23.2152778,30.7569444 23.8055556,31 24.5,31 Z" id="" fill="url(#linearGradient-3)"></path>
                </g>
            </g>
        </g>
    </g>
</svg>