<?xml version="1.0" encoding="UTF-8"?>
<svg width="41px" height="36px" viewBox="0 0 41 36" version="1.1" xmlns="http://www.w3.org/2000/svg" xmlns:xlink="http://www.w3.org/1999/xlink">
    <title>Group 3</title>
    <defs>
        <linearGradient x1="50%" y1="0%" x2="50%" y2="100%" id="linearGradient-1">
            <stop stop-color="#4F4FC4" offset="0%"></stop>
            <stop stop-color="#2D2E2C" offset="100%"></stop>
        </linearGradient>
        <linearGradient x1="50%" y1="0%" x2="50%" y2="100%" id="linearGradient-2">
            <stop stop-color="#4F4FC4" offset="0%"></stop>
            <stop stop-color="#2D2E2C" offset="100%"></stop>
        </linearGradient>
    </defs>
    <g id="Assets" stroke="none" stroke-width="1" fill="none" fill-rule="evenodd">
        <g id="Type-Icons" transform="translate(-7.000000, -4.000000)">
            <g id="Group-3" transform="translate(7.000000, 4.000000)">
                <path d="M30.7300577,35.5524202 C32.0157761,35.5524202 33.9443537,35.5524202 36.5157904,35.5524202 C36.7437918,35.5524202 36.9663731,35.4628443 37.1292302,35.2999872 C37.2920873,35.1371301 37.3843802,34.9145487 37.3843802,34.6838304 L37.3843802,12 L39.6616835,12 C39.8924018,12 40.1149761,11.9077141 40.2778402,11.74485 C40.4407042,11.581986 40.5302732,11.1992695 40.5302732,10.9685512 L40.5302732,0.868589736 C40.5302732,0.637871456 40.4406973,0.415297073 40.2778402,0.252433023 C40.1149831,0.0895689735 39.8924018,0 39.6616835,0 L12.1348145,0 C11.8144894,-2.74224131e-16 11.5548145,0.259674845 11.5548145,0.58 C11.5548145,0.900325155 11.8144894,1.16 12.1348145,1.16 L39.37,1.16 L39.37,1.16 L39.37,10.85 L1.17351573,10.85 L1.17351573,1.16 L8.2253947,1.16 C8.54571985,1.16 8.8053947,0.900325155 8.8053947,0.58 C8.8053947,0.259674845 8.54571985,-1.95308213e-15 8.2253947,0 L0.868589736,0 L0.868589736,0 C0.637871456,0 0.415297073,0.0895759223 0.252433023,0.252433023 C0.0895689735,0.415290124 0,0.637871456 0,0.868589736 L0,10.9685512 C0,11.1992695 0.0895759223,11.4191338 0.252433023,11.5819909 C0.415297073,11.744848 0.637871456,11.8371409 0.868589736,11.8371409 L3.14860305,11.8371409 L3.1458861,34.6838304 C3.1458861,34.9145487 3.23817202,35.1371231 3.40103607,35.2999872 C3.56390012,35.4628512 3.7864745,35.5524202 4.01447583,35.5524202 C15.8880848,35.5524202 24.7932787,35.5524202 30.7300577,35.5524202 Z M4.31,12 L36.22,12 L36.22,34.4 L4.31,34.4 L4.31,12 Z" id="Fill-1" fill="url(#linearGradient-1)"></path>
                <path d="M26.6361107,18 L13.6072647,18 C13.1295403,18 13,18.2591858 13,18.58 C13,18.9008142 13.1295403,19.16 13.6072647,19.16 L26.6361107,19.16 C27.116552,19.16 27.2605252,18.9008142 27.2605252,18.58 C27.2605252,18.2591858 27.116552,18 26.6361107,18 Z" id="Fill-2" fill="url(#linearGradient-2)"></path>
            </g>
        </g>
    </g>
</svg>