<?xml version="1.0" encoding="UTF-8"?>
<svg width="40px" height="52px" viewBox="0 0 40 52" version="1.1" xmlns="http://www.w3.org/2000/svg" xmlns:xlink="http://www.w3.org/1999/xlink">
    <title>icon-word (1)</title>
    <defs>
        <linearGradient x1="50%" y1="0%" x2="50%" y2="100%" id="linearGradient-1">
            <stop stop-color="#4F4FC4" offset="0%"></stop>
            <stop stop-color="#2D2E2C" offset="100%"></stop>
        </linearGradient>
        <linearGradient x1="50%" y1="0%" x2="50%" y2="100%" id="linearGradient-2">
            <stop stop-color="#4F4FC4" offset="0%"></stop>
            <stop stop-color="#2D2E2C" offset="100%"></stop>
        </linearGradient>
        <linearGradient x1="50%" y1="0%" x2="50%" y2="100%" id="linearGradient-3">
            <stop stop-color="#4F4FC4" offset="0%"></stop>
            <stop stop-color="#2D2E2C" offset="100%"></stop>
        </linearGradient>
        <linearGradient x1="50%" y1="0%" x2="50%" y2="100%" id="linearGradient-4">
            <stop stop-color="#4F4FC4" offset="0%"></stop>
            <stop stop-color="#2D2E2C" offset="100%"></stop>
        </linearGradient>
    </defs>
    <g id="Search" stroke="none" stroke-width="1" fill="none" fill-rule="evenodd">
        <g id="Search-Results-with-filter" transform="translate(-296.000000, -587.000000)" fill-rule="nonzero">
            <g id="icon-word-(1)" transform="translate(296.000000, 587.000000)">
                <g id="icon-word" transform="translate(20.000000, 26.000000) scale(-1, 1) translate(-20.000000, -26.000000) ">
                    <g id="path-1-link" fill="url(#linearGradient-1)">
                        <path d="M39.4433509,14.9118343 L25.0934521,0.5 L3.98370371,0.5 C2.07631764,0.5 0.5,2.05730696 0.5,3.94771969 L0.5,48.0522803 C0.5,49.942693 2.07631765,51.5 3.98370371,51.5 L36.0162963,51.5 C37.9236824,51.5 39.5,49.942693 39.5,48.0522803 L39.4433509,14.9118343 Z M24.678,1.5 L38.444,15.325 L38.5,48.053135 C38.5,49.387674 37.3740954,50.5 36.0162963,50.5 L3.98370371,50.5 C2.62590459,50.5 1.5,49.387674 1.5,48.0522803 L1.5,3.94771969 C1.5,2.61232596 2.62590458,1.5 3.98370371,1.5 L24.678,1.5 Z" id="path-1"></path>
                    </g>
                    <g id="path-3-link" transform="translate(24.500000, 1.000000)" fill="url(#linearGradient-2)">
                        <path d="M0.403208428,0.670616908 L0.403208428,12.3082535 C0.403208428,13.2097985 1.4902608,14.2797127 2.64358398,14.2797127 L14,14.3037845 L0.403208428,0.670616908 Z" id="path-3"></path>
                    </g>
                </g>
                <path d="M10.915,45.788 C11.0543333,45.788 11.1735,45.7403333 11.2725,45.645 C11.3715,45.5496667 11.421,45.4323333 11.421,45.293 L11.421,45.293 L11.421,38.506 C11.421,38.3666667 11.3715,38.2475 11.2725,38.1485 C11.1735,38.0495 11.0543333,38 10.915,38 C10.7756667,38 10.6583333,38.0495 10.563,38.1485 C10.4676667,38.2475 10.42,38.3666667 10.42,38.506 L10.42,38.506 L10.42,41.432 L6.251,41.432 L6.251,38.506 C6.251,38.3666667 6.2015,38.2475 6.1025,38.1485 C6.0035,38.0495 5.88433333,38 5.745,38 C5.60566667,38 5.48833333,38.0495 5.393,38.1485 C5.29766667,38.2475 5.25,38.3666667 5.25,38.506 L5.25,38.506 L5.25,45.293 C5.25,45.4323333 5.29766667,45.5496667 5.393,45.645 C5.48833333,45.7403333 5.60566667,45.788 5.745,45.788 C5.88433333,45.788 6.0035,45.7403333 6.1025,45.645 C6.2015,45.5496667 6.251,45.4323333 6.251,45.293 L6.251,45.293 L6.251,42.367 L10.42,42.367 L10.42,45.293 C10.42,45.4323333 10.4676667,45.5496667 10.563,45.645 C10.6583333,45.7403333 10.7756667,45.788 10.915,45.788 Z M15.5612308,45.788 C15.7005641,45.788 15.8197308,45.7403333 15.9187308,45.645 C16.0177308,45.5496667 16.0672308,45.4323333 16.0672308,45.293 L16.0672308,45.293 L16.0672308,38.99 L18.3002308,38.99 C18.4322308,38.99 18.5440641,38.946 18.6357308,38.858 C18.7273974,38.77 18.7732308,38.66 18.7732308,38.528 C18.7732308,38.396 18.7273974,38.2841667 18.6357308,38.1925 C18.5440641,38.1008333 18.4322308,38.055 18.3002308,38.055 L18.3002308,38.055 L12.8222308,38.055 C12.6902308,38.055 12.5802308,38.1008333 12.4922308,38.1925 C12.4042308,38.2841667 12.3602308,38.396 12.3602308,38.528 C12.3602308,38.66 12.4042308,38.77 12.4922308,38.858 C12.5802308,38.946 12.6902308,38.99 12.8222308,38.99 L12.8222308,38.99 L15.0662308,38.99 L15.0662308,45.293 C15.0662308,45.4323333 15.1138974,45.5496667 15.2092308,45.645 C15.3045641,45.7403333 15.4218974,45.788 15.5612308,45.788 Z M27.7094615,45.788 C27.8487949,45.788 27.9661282,45.7403333 28.0614615,45.645 C28.1567949,45.5496667 28.2044615,45.4323333 28.2044615,45.293 L28.2044615,38.726 C28.2044615,38.528 28.1347949,38.3575 27.9954615,38.2145 C27.8561282,38.0715 27.6874615,38 27.4894615,38 L27.1264615,38 C26.9797949,38 26.8459615,38.044 26.7249615,38.132 C26.6039615,38.22 26.5141282,38.33 26.4554615,38.462 L23.9584615,44.688 L21.4614615,38.462 C21.4027949,38.33 21.3129615,38.22 21.1919615,38.132 C21.0709615,38.044 20.9371282,38 20.7904615,38 L20.4274615,38 C20.2294615,38 20.0607949,38.0715 19.9214615,38.2145 C19.7821282,38.3575 19.7124615,38.528 19.7124615,38.726 L19.7124615,45.293 C19.7124615,45.4323333 19.7601282,45.5496667 19.8554615,45.645 C19.9507949,45.7403333 20.0681282,45.788 20.2074615,45.788 C20.3467949,45.788 20.4659615,45.7403333 20.5649615,45.645 C20.6639615,45.5496667 20.7134615,45.4323333 20.7134615,45.293 L20.7134615,39.045 L23.2544615,45.326 C23.3131282,45.4653333 23.4066282,45.5771667 23.5349615,45.6615 C23.6632949,45.7458333 23.8044615,45.788 23.9584615,45.788 C24.1124615,45.788 24.2536282,45.7458333 24.3819615,45.6615 C24.5102949,45.5771667 24.6037949,45.4653333 24.6624615,45.326 L27.2034615,39.045 L27.2034615,45.293 C27.2034615,45.4323333 27.2529615,45.5496667 27.3519615,45.645 C27.4509615,45.7403333 27.5701282,45.788 27.7094615,45.788 Z M34.6656923,45.733 C34.8050256,45.733 34.9241923,45.6853333 35.0231923,45.59 C35.1221923,45.4946667 35.1716923,45.3773333 35.1716923,45.238 C35.1716923,45.0986667 35.1221923,44.9795 35.0231923,44.8805 C34.9241923,44.7815 34.8050256,44.732 34.6656923,44.732 L34.6656923,44.732 L31.0686923,44.732 L31.0686923,38.506 C31.0686923,38.3666667 31.0191923,38.2475 30.9201923,38.1485 C30.8211923,38.0495 30.7020256,38 30.5626923,38 C30.423359,38 30.3060256,38.0495 30.2106923,38.1485 C30.115359,38.2475 30.0676923,38.3666667 30.0676923,38.506 L30.0676923,38.506 L30.0676923,45.04 C30.0676923,45.2306667 30.1355256,45.3938333 30.2711923,45.5295 C30.406859,45.6651667 30.5700256,45.733 30.7606923,45.733 L30.7606923,45.733 L34.6656923,45.733 Z" id="HTML" stroke="url(#linearGradient-3)" stroke-width="0.5" fill="url(#linearGradient-3)"></path>
                <path d="M27.2380952,31 C27.6190476,31 28,31.21875 28,31.5 C28,31.78125 27.6666667,32 27.2380952,32 L27.2380952,32 L12.7619048,32 C12.3333333,32 12,31.78125 12,31.5 C12,31.21875 12.3333333,31 12.7619048,31 L12.7619048,31 Z M27.2380952,25 C27.6190476,25 27.952381,25.21875 28,25.5 C28,25.78125 27.6666667,26 27.2380952,26 L27.2380952,26 L12.7619048,26 C12.3333333,26 12,25.78125 12,25.5 C12,25.21875 12.3333333,25 12.7619048,25 L12.7619048,25 Z M27.3009709,19 C27.6941748,19 28,19.21875 28,19.5 C28,19.78125 27.6941748,20 27.3009709,20 L27.3009709,20 L19.6990291,20 C19.3058252,20 19,19.78125 19,19.5 C19,19.21875 19.3058252,19 19.6990291,19 L19.6990291,19 Z" id="Combined-Shape" fill="url(#linearGradient-4)"></path>
            </g>
        </g>
    </g>
</svg>