<?xml version="1.0" encoding="UTF-8"?>
<svg width="27px" height="20px" viewBox="0 0 27 20" version="1.1" xmlns="http://www.w3.org/2000/svg" xmlns:xlink="http://www.w3.org/1999/xlink">
    <title></title>
    <defs>
        <linearGradient x1="50%" y1="0%" x2="50%" y2="100%" id="linearGradient-1">
            <stop stop-color="#4F4FC4" offset="0%"></stop>
            <stop stop-color="#2D2E2C" offset="100%"></stop>
        </linearGradient>
    </defs>
    <g id="Search" stroke="none" stroke-width="1" fill="none" fill-rule="evenodd">
        <g id="Search-Results-with-filter" transform="translate(-253.000000, -610.000000)" fill="url(#linearGradient-1)" fill-rule="nonzero">
            <g id="icon-word-(1)" transform="translate(246.000000, 587.000000)">
                <path d="M18.6490094,42.2137291 L23.8526987,24.203105 C23.9224532,23.9659395 23.7829441,23.7148231 23.5457787,23.6450686 L22.6808223,23.4079031 C22.4576077,23.3381486 22.2064913,23.4776577 22.1367368,23.7148231 L16.9330476,41.7254473 C16.863293,41.9626128 17.0028021,42.2137291 17.2399676,42.2834837 L18.104924,42.5206491 C18.3281385,42.5904037 18.5792549,42.4508946 18.6490094,42.2137291 Z M14.9101657,39.7862709 L15.6077112,39.0887254 C15.789073,38.9073636 15.789073,38.6283454 15.6077112,38.4469836 L10.1250037,32.9642761 L15.6077112,27.4815687 C15.789073,27.3002069 15.789073,27.0211887 15.6077112,26.8398269 L14.9101657,26.1422814 C14.7288039,25.9609196 14.4497857,25.9609196 14.2684238,26.1422814 L7.76730002,32.6434052 C7.5859382,32.824767 7.5859382,33.1037852 7.76730002,33.2851471 L14.2684238,39.7862709 C14.4497857,39.9676327 14.7288039,39.9676327 14.9101657,39.7862709 Z M26.5173224,39.7862709 L33.0184462,33.2851471 C33.199808,33.1037852 33.199808,32.824767 33.0184462,32.6434052 L26.5173224,26.1422814 C26.3359606,25.9609196 26.0569424,25.9609196 25.8755805,26.1422814 L25.1780351,26.8398269 C24.9966732,27.0211887 24.9966732,27.3002069 25.1780351,27.4815687 L30.6607425,32.9642761 L25.1780351,38.4469836 C24.9966732,38.6283454 24.9966732,38.9073636 25.1780351,39.0887254 L25.8755805,39.7862709 C26.0569424,39.9676327 26.3359606,39.9676327 26.5173224,39.7862709 Z" id=""></path>
            </g>
        </g>
    </g>
</svg>