<?xml version="1.0" encoding="UTF-8"?>
<svg width="38px" height="50px" viewBox="0 0 38 50" version="1.1" xmlns="http://www.w3.org/2000/svg" xmlns:xlink="http://www.w3.org/1999/xlink">
    <title>noun_task_2153527</title>
    <defs>
        <linearGradient x1="50%" y1="0%" x2="50%" y2="100%" id="linearGradient-1">
            <stop stop-color="#4F4FC4" offset="0%"></stop>
            <stop stop-color="#2D2E2C" offset="100%"></stop>
        </linearGradient>
    </defs>
    <g id="Search" stroke="none" stroke-width="1" fill="none" fill-rule="evenodd">
        <g id="Search-Results-with-filter" transform="translate(-416.000000, -735.000000)" fill="url(#linearGradient-1)" fill-rule="nonzero">
            <g id="Result-Item" transform="translate(406.000000, 703.000000)">
                <g id="noun_task_2153527" transform="translate(10.000000, 32.000000)">
                    <path d="M18.5915,0.566191011 C16.5528,0.76194382 14.9726531,2.4045618 14.9726531,4.37658427 C14.9726531,4.73362921 15.0061644,5.08091011 15.1025597,5.41259551 L8.18062219,5.41259551 C7.82272854,5.41452894 7.53310308,5.6885684 7.53105969,6.02720225 L7.53105969,8.32748315 L1.18446594,8.32748315 C1.00925658,8.32838986 0.841775247,8.39584977 0.719635571,8.51471245 C0.597495896,8.63357514 0.530935736,8.79387742 0.534735694,8.95961798 L0.534735694,49.3815281 C0.536946833,49.7201619 0.826572294,49.9942014 1.18446594,49.9961348 L36.8159972,49.9961348 C37.1738908,49.9942014 37.4635163,49.7201619 37.4657274,49.3815281 L37.4657274,8.95961798 C37.4695274,8.79387742 37.4029672,8.63357514 37.2808276,8.51471245 C37.1586879,8.39584977 36.9912065,8.32838986 36.8159972,8.32748315 L30.4694034,8.2748427 L30.4694034,6.02725843 C30.46736,5.68862458 30.1777346,5.41458512 29.8198409,5.41265169 L22.8979034,5.41265169 C22.9999572,5.08129775 23.0463706,4.74029213 23.0463706,4.37664045 C23.0463706,2.27068539 21.2227269,0.566247191 19.0006769,0.566247191 C18.92685,0.566247191 18.7908991,0.547146067 18.5923966,0.566247191 L18.5915,0.566191011 Z M18.7214066,1.79534831 C18.7507022,1.79253933 18.8397053,1.79534831 18.9997803,1.79534831 C20.5201959,1.79534831 21.7463491,2.94422472 21.7463491,4.37658427 C21.7463491,4.86566292 21.5928172,5.31473034 21.3380687,5.71107865 C21.2202868,5.90122595 21.2184146,6.13632682 21.3331549,6.32813186 C21.4478952,6.5199369 21.6618892,6.63942831 21.8948103,6.64175281 L29.1510291,6.64175281 L29.1510291,11.2598989 L8.82993531,11.2598989 L8.82993531,6.64175281 L16.0861541,6.64175281 C16.3223896,6.64576015 16.5425032,6.528766 16.6617915,6.33579176 C16.7810798,6.14281753 16.7809516,5.90393817 16.6614562,5.71107865 C16.4145097,5.32547191 16.2717366,4.87517978 16.2717366,4.37658427 C16.2717366,3.03135955 17.3430991,1.92770787 18.7214303,1.79534831 L18.7214066,1.79534831 Z M30.4687503,9.52169663 L36.1660784,9.57439326 L36.1660784,48.7670899 L1.83367219,48.7670899 L1.83367219,9.57439326 L7.53100031,9.57439326 L7.53100031,11.8746742 C7.53304371,12.213308 7.82266917,12.4873475 8.18056281,12.4892809 L29.8191878,12.4892809 C30.1770815,12.4873475 30.4667069,12.213308 30.4687503,11.8746742 L30.4687503,9.52169663 L30.4687503,9.52169663 Z M7.41937531,18.5666966 C7.07223706,18.6129766 6.82558241,18.9102488 6.86046515,19.2403043 C6.89534789,19.5703598 7.19933207,19.8155314 7.54928187,19.7958539 L30.4502194,19.7958539 C30.6989857,19.821252 30.9412317,19.7099819 31.0740187,19.5093262 C31.2068056,19.3086704 31.2068056,19.0538801 31.0740187,18.8532244 C30.9412317,18.6525687 30.6989857,18.5412986 30.4502194,18.5666966 L7.54928187,18.5666966 C7.50608723,18.562613 7.46256996,18.562613 7.41937531,18.5666966 L7.41937531,18.5666966 Z M7.49360594,24.5723146 C7.25650719,24.5794618 7.04173746,24.7065566 6.93117987,24.9051427 C6.82062229,25.1037288 6.83131682,25.3431986 6.95918606,25.5322519 C7.08705529,25.7213053 7.31239109,25.8308038 7.54928187,25.819 L30.4502194,25.819 C30.811622,25.8157536 31.10279,25.5376267 31.10279,25.1956573 C31.10279,24.8536879 30.811622,24.575561 30.4502194,24.5723146 L7.54928187,24.5723146 C7.53073166,24.571566 7.51215615,24.571566 7.49360594,24.5723146 L7.49360594,24.5723146 Z M7.41937531,30.5953483 C7.07189616,30.6412907 6.82481582,30.9387246 6.85972564,31.2690514 C6.89463546,31.5993782 7.19906839,31.8446311 7.54928187,31.8245618 L30.4502194,31.8245618 C30.6989308,31.8498532 30.9410705,31.7385518 31.073792,31.5379318 C31.2065136,31.3373118 31.2065136,31.0825983 31.073792,30.8819783 C30.9410705,30.6813583 30.6989308,30.5700569 30.4502194,30.5953483 L7.54928187,30.5953483 C7.50608723,30.5912647 7.46256996,30.5912647 7.41937531,30.5953483 Z M31.9347191,34.0019213 C31.7473262,34.0351725 31.5846355,34.1442206 31.4893234,34.3004607 L25.0126984,44.3268652 L22.3959828,40.885236 C22.2812049,40.6680701 22.0426882,40.534596 21.7862657,40.544038 C21.5298431,40.5534799 21.3030106,40.7040889 21.2064166,40.9290379 C21.1098226,41.1539868 21.1613588,41.4116096 21.3381578,41.5875955 L24.5115734,45.8018652 C24.6382445,45.9733757 24.8480155,46.0726122 25.0690301,46.0655815 C25.2900446,46.0585507 25.4922976,45.9462071 25.6065078,45.7670337 L32.6026641,34.9501798 C32.7477876,34.7427101 32.7473115,34.4731386 32.601456,34.2661291 C32.4556005,34.0591195 32.1927959,33.9550223 31.9345766,34.0019775 L31.9347191,34.0019213 Z M7.54940656,36.6006854 C7.31403101,36.6006854 7.09653499,36.7194991 6.97884719,36.9123707 C6.86115939,37.1052423 6.86115939,37.34287 6.97884719,37.5357416 C7.09653499,37.7286133 7.31403101,37.847427 7.54940656,37.847427 L20.0763441,37.847427 C20.4402031,37.847427 20.7351691,37.5683344 20.7351691,37.2240562 C20.7351691,36.879778 20.4402031,36.6006854 20.0763441,36.6006854 L7.54940656,36.6006854 L7.54940656,36.6006854 Z" id="Shape"></path>
                </g>
            </g>
        </g>
    </g>
</svg>