<?xml version="1.0" encoding="UTF-8"?>
<svg width="28px" height="24px" viewBox="0 0 28 24" version="1.1" xmlns="http://www.w3.org/2000/svg" xmlns:xlink="http://www.w3.org/1999/xlink">
    <title>Combined Shape</title>
    <defs>
        <linearGradient x1="50%" y1="0%" x2="50%" y2="100%" id="linearGradient-1">
            <stop stop-color="#EA04D0" offset="0%"></stop>
            <stop stop-color="#4F4FC4" offset="100%"></stop>
        </linearGradient>
    </defs>
    <g id="Search" stroke="none" stroke-width="1" fill="none" fill-rule="evenodd">
        <g id="Search-Results-with-filter" transform="translate(-1735.000000, -33.000000)" fill="url(#linearGradient-1)">
            <g id="header" transform="translate(-2.000000, 0.000000)">
                <g id="top-navigation" transform="translate(1737.000000, 33.000000)">
                    <path d="M2,20 C3.1045695,20 4,20.8954305 4,22 C4,23.1045695 3.1045695,24 2,24 C0.8954305,24 0,23.1045695 0,22 C0,20.8954305 0.8954305,20 2,20 Z M10,20 C11.1045695,20 12,20.8954305 12,22 C12,23.1045695 11.1045695,24 10,24 C8.8954305,24 8,23.1045695 8,22 C8,20.8954305 8.8954305,20 10,20 Z M18,20 C19.1045695,20 20,20.8954305 20,22 C20,23.1045695 19.1045695,24 18,24 C16.8954305,24 16,23.1045695 16,22 C16,20.8954305 16.8954305,20 18,20 Z M26,20 C27.1045695,20 28,20.8954305 28,22 C28,23.1045695 27.1045695,24 26,24 C24.8954305,24 24,23.1045695 24,22 C24,20.8954305 24.8954305,20 26,20 Z M2,10 C3.1045695,10 4,10.8954305 4,12 C4,13.1045695 3.1045695,14 2,14 C0.8954305,14 0,13.1045695 0,12 C0,10.8954305 0.8954305,10 2,10 Z M10,10 C11.1045695,10 12,10.8954305 12,12 C12,13.1045695 11.1045695,14 10,14 C8.8954305,14 8,13.1045695 8,12 C8,10.8954305 8.8954305,10 10,10 Z M18,10 C19.1045695,10 20,10.8954305 20,12 C20,13.1045695 19.1045695,14 18,14 C16.8954305,14 16,13.1045695 16,12 C16,10.8954305 16.8954305,10 18,10 Z M26,10 C27.1045695,10 28,10.8954305 28,12 C28,13.1045695 27.1045695,14 26,14 C24.8954305,14 24,13.1045695 24,12 C24,10.8954305 24.8954305,10 26,10 Z M2,0 C3.1045695,0 4,0.8954305 4,2 C4,3.1045695 3.1045695,4 2,4 C0.8954305,4 0,3.1045695 0,2 C0,0.8954305 0.8954305,0 2,0 Z M10,0 C11.1045695,0 12,0.8954305 12,2 C12,3.1045695 11.1045695,4 10,4 C8.8954305,4 8,3.1045695 8,2 C8,0.8954305 8.8954305,0 10,0 Z M18,0 C19.1045695,0 20,0.8954305 20,2 C20,3.1045695 19.1045695,4 18,4 C16.8954305,4 16,3.1045695 16,2 C16,0.8954305 16.8954305,0 18,0 Z M26,0 C27.1045695,0 28,0.8954305 28,2 C28,3.1045695 27.1045695,4 26,4 C24.8954305,4 24,3.1045695 24,2 C24,0.8954305 24.8954305,0 26,0 Z" id="Combined-Shape"></path>
                </g>
            </g>
        </g>
    </g>
</svg>