<?xml version="1.0" encoding="UTF-8"?>
<svg width="40px" height="52px" viewBox="0 0 40 52" version="1.1" xmlns="http://www.w3.org/2000/svg" xmlns:xlink="http://www.w3.org/1999/xlink">
    <title>icon-word (1)</title>
    <defs>
        <linearGradient x1="50%" y1="0%" x2="50%" y2="100%" id="linearGradient-1">
            <stop stop-color="#4F4FC4" offset="0%"></stop>
            <stop stop-color="#2D2E2C" offset="100%"></stop>
        </linearGradient>
        <linearGradient x1="50%" y1="0%" x2="50%" y2="100%" id="linearGradient-2">
            <stop stop-color="#4F4FC4" offset="0%"></stop>
            <stop stop-color="#2D2E2C" offset="100%"></stop>
        </linearGradient>
        <linearGradient x1="50%" y1="0%" x2="50%" y2="100%" id="linearGradient-3">
            <stop stop-color="#4F4FC4" offset="0%"></stop>
            <stop stop-color="#2D2E2C" offset="100%"></stop>
        </linearGradient>
        <linearGradient x1="50%" y1="0%" x2="50%" y2="100%" id="linearGradient-4">
            <stop stop-color="#4F4FC4" offset="0%"></stop>
            <stop stop-color="#2D2E2C" offset="100%"></stop>
        </linearGradient>
    </defs>
    <g id="Search" stroke="none" stroke-width="1" fill="none" fill-rule="evenodd">
        <g id="Search-Results-with-filter" transform="translate(-295.000000, -449.000000)" fill-rule="nonzero">
            <g id="icon-word-(1)" transform="translate(296.000000, 450.000000)">
                <g id="icon-word" transform="translate(19.000000, 25.000000) scale(-1, 1) translate(-19.000000, -25.000000) ">
                    <g id="path-1-link" stroke="url(#linearGradient-1)">
                        <path d="M37.9437037,14.118665 L23.8857143,0 L2.98370371,0 C1.35111111,0 0,1.33481646 0,2.94771969 C0,6.1206162 0,8.50028859 0,10.0867368 C0,18.3013021 0,30.6231499 0,47.0522803 C0,48.6651835 1.35111111,50 2.98370371,50 L35.0162963,50 C36.6488889,50 38,48.6651835 38,47.0522803 C37.9768196,33.4916311 37.9594343,23.3211442 37.9478441,16.5408196 C37.946924,16.002563 37.9455439,15.1951782 37.9437037,14.118665 Z" id="path-1"></path>
                    </g>
                    <g id="path-3-link" transform="translate(23.500000, 0.000000)" fill="url(#linearGradient-2)">
                        <path d="M0.403208428,0.670616908 L0.403208428,12.3082535 C0.403208428,13.2097985 1.4902608,14.2797127 2.64358398,14.2797127 L14,14.3037845 L0.403208428,0.670616908 Z" id="path-3"></path>
                    </g>
                </g>
                <g id="Group-13" transform="translate(11.000000, 37.000000)" fill="url(#linearGradient-3)" stroke="url(#linearGradient-3)" stroke-width="0.5">
                    <path d="M5.5344209,7.73498588 C5.7984887,7.73498588 6.00754237,7.53693503 6.00754237,7.27286723 C6.00754237,7.00879944 5.7984887,6.79974576 5.5344209,6.79974576 L1.22131356,6.79974576 L5.76548023,1.17730226 C5.87550847,1.05627119 5.94152542,0.880225989 5.94152542,0.737189266 C5.94152542,0.374096045 5.68846045,0.0550141243 5.27035311,0.0550141243 L0.495127119,0.0550141243 C0.231059322,0.0550141243 0.0220056497,0.275070621 0.0220056497,0.539138418 C0.0220056497,0.803206215 0.231059322,1.01225989 0.495127119,1.01225989 L4.73121469,1.01225989 L0.132033898,6.68971751 C0.0440112994,6.79974576 0,6.94278249 0,7.09682203 C0,7.44891243 0.286073446,7.73498588 0.638163842,7.73498588 L5.5344209,7.73498588 Z M7.81500642,7.79 C8.09007704,7.79 8.32113636,7.5699435 8.32113636,7.29487288 L8.32113636,0.506129944 C8.32113636,0.231059322 8.09007704,0 7.81500642,0 C7.5399358,0 7.3198793,0.231059322 7.3198793,0.506129944 L7.3198793,7.29487288 C7.3198793,7.5699435 7.5399358,7.79 7.81500642,7.79 Z M10.7007473,7.79 C10.9758179,7.79 11.2068772,7.5699435 11.2068772,7.29487288 L11.2068772,4.94026836 L13.2093914,4.94026836 C15.431962,4.94026836 16.1471456,3.66394068 16.1471456,2.49764124 C16.1471456,1.33134181 15.431962,0.0550141243 13.2093914,0.0550141243 L10.7007473,0.0550141243 C10.4256767,0.0550141243 10.2056202,0.286073446 10.2056202,0.561144068 L10.2056202,7.29487288 C10.2056202,7.5699435 10.4256767,7.79 10.7007473,7.79 Z M13.1103659,3.99402542 L11.2068772,3.99402542 L11.2068772,1.00125706 L13.1103659,1.00125706 C14.7497869,1.00125706 15.1458885,1.78245763 15.1458885,2.49764124 C15.1458885,3.21282486 14.7497869,3.99402542 13.1103659,3.99402542 Z" id="ZIP"></path>
                </g>
                <g id="Group-2" transform="translate(26.000000, 0.000000)" fill="url(#linearGradient-4)">
                    <path d="M1.20348326,18.7312762 C1.40478763,18.7312762 1.56768089,18.8941695 1.56768089,19.0954739 L1.56768089,19.0954739 L1.56768089,20.140763 L2.57953786,20.140763 C2.75345697,20.140763 2.90283489,20.2634663 2.93662319,20.4341839 L2.93662319,20.4341839 L3.75642274,24.5680386 C3.78238526,24.6181891 3.79696874,24.6750931 3.79696874,24.7355575 C3.79696874,24.9368604 3.63371949,25.0997537 3.43277111,25.0997537 L3.43277111,25.0997537 L0.364121263,25.0997537 C0.254933337,25.0997537 0.151792374,25.0510273 0.0827929667,24.9667366 C0.0134389667,24.8824459 -0.0143023666,24.7714778 0.00703733711,24.6647793 L0.00703733711,24.6647793 L0.846399337,20.4341839 C0.848532745,20.423425 0.854845411,20.4148448 0.857868893,20.4044872 C0.849777485,20.3743002 0.839285633,20.3449581 0.839285633,20.3121927 L0.839285633,20.3121927 L0.839285633,19.0954739 C0.839285633,18.8941695 1.00217889,18.7312762 1.20348326,18.7312762 Z M2.28042741,20.8691583 L1.50259511,20.8691583 L0.807632152,24.3713584 L2.9746783,24.3713584 L2.28042741,20.8691583 Z M2.57953786,17.2904905 C2.78084223,17.2904905 2.94373549,17.4533838 2.94373549,17.6546881 L2.94373549,17.6546881 L2.94373549,19.0954739 C2.94373549,19.2967782 2.78084223,19.4596715 2.57953786,19.4596715 C2.37823349,19.4596715 2.21534023,19.2967782 2.21534023,19.0954739 L2.21534023,19.0954739 L2.21534023,17.6546881 C2.21534023,17.4533838 2.37823349,17.2904905 2.57953786,17.2904905 Z M1.20312726,15.8497061 C1.40443163,15.8497061 1.56732489,16.0125994 1.56732489,16.2139038 L1.56732489,16.2139038 L1.56732489,17.6546881 C1.56732489,17.8559924 1.40443163,18.0188857 1.20312726,18.0188857 C1.00182289,18.0188857 0.838929633,17.8559925 0.838929633,17.6546881 L0.838929633,17.6546881 L0.838929633,16.2139038 C0.838929633,16.0125994 1.00182289,15.8497061 1.20312726,15.8497061 Z M2.57953786,14.4089204 C2.78084223,14.4089204 2.94373549,14.5718137 2.94373549,14.7731181 L2.94373549,14.7731181 L2.94373549,16.2139038 C2.94373549,16.4152081 2.78084223,16.5781014 2.57953786,16.5781014 C2.37823349,16.5781014 2.21534023,16.4152082 2.21534023,16.2139038 L2.21534023,16.2139038 L2.21534023,14.7731181 C2.21534023,14.5718137 2.37823349,14.4089204 2.57953786,14.4089204 Z M1.20312726,12.9677801 C1.40443163,12.9677801 1.56732489,13.1306719 1.56732489,13.3319763 L1.56732489,13.3319763 L1.56732489,14.7731181 C1.56732489,14.9744224 1.40443163,15.1373157 1.20312726,15.1373157 C1.00182289,15.1373157 0.838929633,14.9744224 0.838929633,14.7731181 L0.838929633,14.7731181 L0.838929633,13.3319763 C0.838929633,13.1306719 1.00182289,12.9677801 1.20312726,12.9677801 Z M2.57953786,11.5269944 C2.78084223,11.5269944 2.94373549,11.6898876 2.94373549,11.891192 L2.94373549,11.891192 L2.94373549,13.3319763 C2.94373549,13.5332821 2.78084223,13.6961739 2.57953786,13.6961739 C2.37823349,13.6961739 2.21534023,13.5332821 2.21534023,13.3319763 L2.21534023,13.3319763 L2.21534023,11.891192 C2.21534023,11.6898876 2.37823349,11.5269944 2.57953786,11.5269944 Z M1.20312726,10.0862087 C1.40443163,10.0862087 1.56732489,10.2491019 1.56732489,10.4504063 L1.56732489,10.4504063 L1.56732489,11.891192 C1.56732489,12.0924964 1.40443163,12.2553896 1.20312726,12.2553896 C1.00182289,12.2553896 0.838929633,12.0924964 0.838929633,11.891192 L0.838929633,11.891192 L0.838929633,10.4504063 C0.838929633,10.2491019 1.00182289,10.0862087 1.20312726,10.0862087 Z M2.57953786,8.64506763 C2.78084223,8.64506763 2.94373549,8.80796089 2.94373549,9.00926526 L2.94373549,9.00926526 L2.94373549,10.4504063 C2.94373549,10.6517107 2.78084223,10.8146039 2.57953786,10.8146039 C2.37823349,10.8146039 2.21534023,10.6517107 2.21534023,10.4504063 L2.21534023,10.4504063 L2.21534023,9.00926526 C2.21534023,8.80796089 2.37823349,8.64506763 2.57953786,8.64506763 Z M1.20312726,7.20428252 C1.40443163,7.20428252 1.56732489,7.36717504 1.56732489,7.56848015 L1.56732489,7.56848015 L1.56732489,9.00926519 C1.56732489,9.21056956 1.40443163,9.37346281 1.20312726,9.37346281 C1.00182289,9.37346281 0.838929633,9.21056963 0.838929633,9.00926526 L0.838929633,9.00926526 L0.838929633,7.56848022 C0.838929633,7.36717511 1.00182289,7.20428252 1.20312726,7.20428252 Z M2.57953786,5.76349689 C2.78084223,5.76349689 2.94373549,5.92639015 2.94373549,6.12769452 L2.94373549,6.12769452 L2.94373549,7.56848022 C2.94373549,7.76978459 2.78084223,7.93267711 2.57953786,7.93267711 C2.37823349,7.93267711 2.21534023,7.76978459 2.21534023,7.56848022 L2.21534023,7.56848022 L2.21534023,6.12769452 C2.21534023,5.92639015 2.37823349,5.76349689 2.57953786,5.76349689 Z M1.20312726,4.32271185 C1.40443163,4.32271185 1.56732489,4.48560511 1.56732489,4.68690948 L1.56732489,4.68690948 L1.56732489,6.12769444 C1.56732489,6.32899881 1.40443163,6.49189207 1.20312726,6.49189207 C1.00182289,6.49189207 0.838929633,6.32899889 0.838929633,6.12769452 L0.838929633,6.12769452 L0.838929633,4.68690948 C0.838929633,4.48560504 1.00182289,4.32271185 1.20312726,4.32271185 Z M2.57953786,2.88157081 C2.78084223,2.88157081 2.94373549,3.0444637 2.94373549,3.24576807 L2.94373549,3.24576807 L2.94373549,4.68690948 C2.94373549,4.88821385 2.78084223,5.05110711 2.57953786,5.05110711 C2.37823349,5.05110711 2.21534023,4.88821385 2.21534023,4.68690948 L2.21534023,4.68690948 L2.21534023,3.24576807 C2.21534023,3.0444637 2.37823349,2.88157081 2.57953786,2.88157081 Z M1.20312726,1.44078541 C1.40443163,1.44078541 1.56732489,1.6036783 1.56732489,1.80498304 L1.56732489,1.80498304 L1.56732489,3.245768 C1.56732489,3.44707274 1.40443163,3.60996563 1.20312726,3.60996563 C1.00182289,3.60996563 0.838929633,3.44707281 0.838929633,3.24576807 L0.838929633,3.24576807 L0.838929633,1.80498304 C0.838929633,1.6036783 1.00182289,1.44078541 1.20312726,1.44078541 Z M2.57953786,1.0329515e-12 C2.78084223,1.0329515e-12 2.94373549,0.162893111 2.94373549,0.364197481 L2.94373549,0.364197481 L2.94373549,1.80498304 C2.94373549,2.00628741 2.78084223,2.1691803 2.57953786,2.1691803 C2.37823349,2.1691803 2.21534023,2.00628741 2.21534023,1.80498304 L2.21534023,1.80498304 L2.21534023,0.364197481 C2.21534023,0.162893037 2.37823349,1.0329515e-12 2.57953786,1.0329515e-12 Z" id="Combined-Shape"></path>
                </g>
            </g>
        </g>
    </g>
</svg>