<?xml version="1.0" encoding="UTF-8"?>
<svg width="40px" height="52px" viewBox="0 0 40 52" version="1.1" xmlns="http://www.w3.org/2000/svg" xmlns:xlink="http://www.w3.org/1999/xlink">
    <title>icon-word (1)</title>
    <defs>
        <linearGradient x1="50%" y1="0%" x2="50%" y2="100%" id="linearGradient-1">
            <stop stop-color="#4F4FC4" offset="0%"></stop>
            <stop stop-color="#2D2E2C" offset="100%"></stop>
        </linearGradient>
        <linearGradient x1="50%" y1="0%" x2="50%" y2="100%" id="linearGradient-2">
            <stop stop-color="#4F4FC4" offset="0%"></stop>
            <stop stop-color="#2D2E2C" offset="100%"></stop>
        </linearGradient>
        <linearGradient x1="50%" y1="0%" x2="50%" y2="100%" id="linearGradient-3">
            <stop stop-color="#4F4FC4" offset="0%"></stop>
            <stop stop-color="#2D2E2C" offset="100%"></stop>
        </linearGradient>
    </defs>
    <g id="Search" stroke="none" stroke-width="1" fill="none" fill-rule="evenodd">
        <g id="Search-Results-with-filter" transform="translate(-240.000000, -378.000000)" fill-rule="nonzero">
            <g id="icon-word-(1)" transform="translate(241.000000, 379.000000)">
                <g id="icon-word" transform="translate(19.000000, 25.000000) scale(-1, 1) translate(-19.000000, -25.000000) ">
                    <g id="path-1-link" stroke="url(#linearGradient-1)">
                        <path d="M37.9437037,14.118665 L23.8857143,0 L2.98370371,0 C1.35111111,0 0,1.33481646 0,2.94771969 C0,6.1206162 0,8.50028859 0,10.0867368 C0,18.3013021 0,30.6231499 0,47.0522803 C0,48.6651835 1.35111111,50 2.98370371,50 L35.0162963,50 C36.6488889,50 38,48.6651835 38,47.0522803 C37.9768196,33.4916311 37.9594343,23.3211442 37.9478441,16.5408196 C37.946924,16.002563 37.9455439,15.1951782 37.9437037,14.118665 Z" id="path-1"></path>
                    </g>
                    <g id="path-3-link" transform="translate(23.500000, 0.000000)" fill="url(#linearGradient-2)">
                        <path d="M0.403208428,0.670616908 L0.403208428,12.3082535 C0.403208428,13.2097985 1.4902608,14.2797127 2.64358398,14.2797127 L14,14.3037845 L0.403208428,0.670616908 Z" id="path-3"></path>
                    </g>
                    <path d="M11.3948258,27.0544461 L13.4671854,35.8976896 C13.4721589,35.9189123 13.4778249,35.9399667 13.4841744,35.9608192 L13.7255436,36.753501 C13.7664577,36.8878673 13.9085506,36.9636252 14.0429168,36.9227111 C14.1225172,36.898473 14.1852263,36.8368283 14.2108233,36.7576544 L14.4420759,36.0423695 C14.4540681,36.0052764 14.4638811,35.9675138 14.4714645,35.929275 L16.2248313,27.0880794 C16.3176781,26.6199078 16.7284387,26.2826087 17.205728,26.2826087 L19.3408321,26.2826087 C19.8137975,26.2826087 20.2220855,26.6139617 20.3194248,27.0768023 L22.1700981,35.8766017 C22.1775138,35.9118629 22.18683,35.9466975 22.1980058,35.9809532 L22.4571959,36.7754138 C22.5029893,36.9157781 22.6538999,36.9924429 22.7942642,36.9466495 C22.8736029,36.9207655 22.9363026,36.8593159 22.9637788,36.7805144 L23.2072624,36.082208 C23.2188318,36.0490272 23.2286441,36.0152597 23.2366587,35.9810459 L25.3276894,27.0545333 C25.4336125,26.6023523 25.8369113,26.2826087 26.3013328,26.2826087 L27.8116754,26.2826087 C28.3639601,26.2826087 28.8116754,26.7303239 28.8116754,27.2826087 C28.8116754,27.3754804 28.798738,27.4678994 28.7732361,27.5572012 L24.5331481,42.4050273 C24.4105343,42.8343929 24.0181174,43.1304348 23.5715874,43.1304348 L21.7298097,43.1304348 C21.2565346,43.1304348 20.8480684,42.7986574 20.7510475,42.3354336 L18.8691822,33.3505095 C18.8590396,33.3020841 18.8453172,33.2544782 18.828128,33.208084 L18.5525211,32.464213 C18.4908422,32.2977399 18.3058884,32.2127874 18.1394153,32.2744663 C18.0515288,32.3070286 17.9822308,32.3763265 17.9496685,32.4642131 L17.6740616,33.208084 C17.6568724,33.2544782 17.64315,33.3020841 17.6330075,33.3505095 L15.7511422,42.3354336 C15.6541213,42.7986574 15.2456551,43.1304348 14.7723799,43.1304348 L13.0218532,43.1304348 C12.5760303,43.1304348 12.1840552,42.8353125 12.0608181,42.4068611 L7.79007884,27.559035 C7.63741278,27.02827 7.94392256,26.4742396 8.4746876,26.3215736 C8.56455468,26.2957248 8.65760322,26.2826087 8.75111394,26.2826087 L10.4212027,26.2826087 C10.8855908,26.2826087 11.2888698,26.6023072 11.3948258,27.0544461 Z" id="W" fill="url(#linearGradient-3)"></path>
                </g>
            </g>
        </g>
    </g>
</svg>