<?xml version="1.0" encoding="UTF-8"?>
<svg width="64px" height="46px" viewBox="0 0 64 46" version="1.1" xmlns="http://www.w3.org/2000/svg" xmlns:xlink="http://www.w3.org/1999/xlink">
    <title>Group 11</title>
    <defs>
        <linearGradient x1="50%" y1="0%" x2="50%" y2="100%" id="linearGradient-1">
            <stop stop-color="#4F4FC4" offset="0%"></stop>
            <stop stop-color="#2D2E2C" offset="100%"></stop>
        </linearGradient>
        <linearGradient x1="50%" y1="0%" x2="50%" y2="100%" id="linearGradient-2">
            <stop stop-color="#4F4FC4" offset="0%"></stop>
            <stop stop-color="#2D2E2C" offset="100%"></stop>
        </linearGradient>
    </defs>
    <g id="Search" stroke="none" stroke-width="1" fill="none" fill-rule="evenodd">
        <g id="Search-Results-with-filter" transform="translate(-399.000000, -559.000000)">
            <g id="Result-Item" transform="translate(399.000000, 527.000000)">
                <g id="Group-11" transform="translate(0.000000, 32.000000)">
                    <path d="M0,12.2962958 L0,44.7037042 C0,45.4106391 0.592094512,46 1.30232558,46 C24.1020343,46 41.2018158,46 52.6016702,46 C53.0674489,46 53.766117,46 54.6976744,46 C55.4079042,46 56,45.4106391 56,44.7037042 C56,43.4396355 56,42.3249173 56,41.3595496 C56,35.123271 56,25.4355197 56,12.2962958 C56,11.5893609 55.4079042,11 54.6976744,11 L1.30232558,11 C0.592094512,11 0,11.5893609 0,12.2962958 Z M2.27906977,12.2962958 L53.7209302,12.2962958 L28,34.7789393 L2.27906977,12.2962958 Z M27.5726744,36.1157444 C27.8177141,36.3278391 28.1822859,36.3278391 28.4273256,36.1157444 L54.6976744,13.1469899 L54.6976744,44.7037042 L1.30232558,44.7037042 L1.30232558,13.1469899 L27.5726744,36.1157444 Z" id="Shape" fill="url(#linearGradient-1)" fill-rule="nonzero" opacity="0.351748512"></path>
                    <rect id="Rectangle" fill="#FFFFFF" x="4" y="6" width="56" height="34"></rect>
                    <path d="M5.30232558,6 C4.59209451,6 4,6.58936089 4,7.29629582 L4,39.7037042 C4,40.4106391 4.59209451,41 5.30232558,41 L58.6976744,41 C59.4079042,41 60,40.4106391 60,39.7037042 L60,7.29629582 C60,6.58936089 59.4079042,6 58.6976744,6 L5.30232558,6 L5.30232558,6 Z M6.27906977,7.29629582 L57.7209302,7.29629582 L32,29.7789393 L6.27906977,7.29629582 Z M5.30232558,8.14698995 L31.5726744,31.1157444 C31.8177141,31.3278391 32.1822859,31.3278391 32.4273256,31.1157444 L58.6976744,8.14698995 L58.6976744,39.7037042 L5.30232558,39.7037042 L5.30232558,8.14698995 L5.30232558,8.14698995 Z" id="Shape" fill="url(#linearGradient-1)" fill-rule="nonzero" opacity="0.702613467"></path>
                    <rect id="Rectangle" fill="#FFFFFF" x="8" y="0" width="56" height="34"></rect>
                    <path d="M9.23255814,1 C8.56037516,1 8,1.55568313 8,2.22222177 L8,32.7777782 C8,33.4443169 8.56037516,34 9.23255814,34 L59.7674419,34 C60.4396236,34 61,33.4443169 61,32.7777782 L61,2.22222177 C61,1.55568313 60.4396236,1 59.7674419,1 L9.23255814,1 L9.23255814,1 Z M10,2 L59,2 L34.5,23 L10,2 Z M9,3 L34.0918445,24.8356901 C34.3258916,25.037322 34.6741084,25.037322 34.9081555,24.8356901 L60,3 L60,33 L9,33 L9,3 L9,3 Z" id="Shape" fill="url(#linearGradient-2)" fill-rule="nonzero"></path>
                </g>
            </g>
        </g>
    </g>
</svg>