<?xml version="1.0" encoding="UTF-8"?>
<svg width="40px" height="52px" viewBox="0 0 40 52" version="1.1" xmlns="http://www.w3.org/2000/svg" xmlns:xlink="http://www.w3.org/1999/xlink">
    <title>icon-word (1)</title>
    <defs>
        <linearGradient x1="50%" y1="0%" x2="50%" y2="100%" id="linearGradient-1">
            <stop stop-color="#4F4FC4" offset="0%"></stop>
            <stop stop-color="#2D2E2C" offset="100%"></stop>
        </linearGradient>
        <linearGradient x1="50%" y1="0%" x2="50%" y2="100%" id="linearGradient-2">
            <stop stop-color="#4F4FC4" offset="0%"></stop>
            <stop stop-color="#2D2E2C" offset="100%"></stop>
        </linearGradient>
        <linearGradient x1="50%" y1="0%" x2="50%" y2="100%" id="linearGradient-3">
            <stop stop-color="#4F4FC4" offset="0%"></stop>
            <stop stop-color="#2D2E2C" offset="100%"></stop>
        </linearGradient>
    </defs>
    <g id="Search" stroke="none" stroke-width="1" fill="none" fill-rule="evenodd">
        <g id="Search-Results-with-filter" transform="translate(-240.000000, -449.000000)" fill-rule="nonzero">
            <g id="icon-word-(1)" transform="translate(241.000000, 450.000000)">
                <g id="icon-word" transform="translate(19.000000, 25.000000) scale(-1, 1) translate(-19.000000, -25.000000) ">
                    <g id="path-1-link" stroke="url(#linearGradient-1)">
                        <path d="M37.9437037,14.118665 L23.8857143,0 L2.98370371,0 C1.35111111,0 0,1.33481646 0,2.94771969 C0,6.1206162 0,8.50028859 0,10.0867368 C0,18.3013021 0,30.6231499 0,47.0522803 C0,48.6651835 1.35111111,50 2.98370371,50 L35.0162963,50 C36.6488889,50 38,48.6651835 38,47.0522803 C37.9768196,33.4916311 37.9594343,23.3211442 37.9478441,16.5408196 C37.946924,16.002563 37.9455439,15.1951782 37.9437037,14.118665 Z" id="path-1"></path>
                    </g>
                    <g id="path-3-link" transform="translate(23.500000, 0.000000)" fill="url(#linearGradient-2)">
                        <path d="M0.403208428,0.670616908 L0.403208428,12.3082535 C0.403208428,13.2097985 1.4902608,14.2797127 2.64358398,14.2797127 L14,14.3037845 L0.403208428,0.670616908 Z" id="path-3"></path>
                    </g>
                    <path d="M26.9876178,24 C26.5561808,24.0821995 15.2620675,26.2394796 15.2620675,26.2394796 L15.280674,39.1125295 C15.1376369,39.0900007 15.0382087,39.0705164 14.9370361,39.0583387 C13.686334,38.9115974 12.5536666,39.1770713 11.6518354,40.1549409 C10.5930122,41.3032983 10.8558283,42.8888352 12.2100288,43.6219329 C13.6066752,44.3775594 15.5981465,43.9641264 16.6092906,42.7061697 C16.9430437,42.2915189 17.1517848,41.8275484 17.1506219,41.2685918 C17.1448074,37.673125 17.1593437,30.1016381 17.1593437,30.1016381 C19.8613486,29.5798235 22.5453286,29.0616623 25.2357045,28.5422832 C25.2357045,31.4253544 25.2357045,34.2627593 25.2357045,37.0940752 C25.182211,37.1044263 25.1589529,37.1147773 25.1368578,37.1117329 C25.0676651,37.1025996 24.9990538,37.0873775 24.9298611,37.0776353 C23.732071,36.9065386 22.6418495,37.1567904 21.7301336,38.023234 C20.6730549,39.0278945 20.6968944,40.5263608 21.7656022,41.3678401 C22.2284375,41.7325623 22.7598842,41.9200989 23.3267994,41.9718542 C24.373412,42.068058 25.3246666,41.7964952 26.1421874,41.0853174 C26.8666759,40.4551213 27.0056428,39.6233841 26.9998283,38.67535 L26.9876178,24 Z" id="Path" fill="url(#linearGradient-3)" transform="translate(19.000000, 34.000000) scale(-1, 1) translate(-19.000000, -34.000000) "></path>
                </g>
            </g>
        </g>
    </g>
</svg>