<?xml version="1.0" encoding="UTF-8"?>
<svg width="42px" height="38px" viewBox="0 0 42 38" version="1.1" xmlns="http://www.w3.org/2000/svg" xmlns:xlink="http://www.w3.org/1999/xlink">
    <title>noun_message_2146688</title>
    <defs>
        <linearGradient x1="50%" y1="0%" x2="50%" y2="100%" id="linearGradient-1">
            <stop stop-color="#4F4FC4" offset="0%"></stop>
            <stop stop-color="#2D2E2C" offset="100%"></stop>
        </linearGradient>
    </defs>
    <g id="Search" stroke="none" stroke-width="1" fill="none" fill-rule="evenodd">
        <g id="Search-Results-with-filter" transform="translate(-415.000000, -404.000000)" fill="url(#linearGradient-1)" fill-rule="nonzero">
            <g id="Result-Item" transform="translate(406.000000, 371.000000)">
                <g id="noun_message_2146688" transform="translate(9.000000, 33.000000)">
                    <path d="M37.4960526,0 C39.9921053,0 42,1.99371373 42,4.47437137 L42,4.47437137 L42,24.4482592 C42,26.9289168 39.9828947,28.9410058 37.4960526,28.9410058 L37.4960526,28.9410058 L23.4223684,28.9410058 L11.3565789,37.8346228 C11.2184211,37.9448743 11.0434211,38 10.8684211,38 C10.7394737,38 10.6105263,37.9632495 10.4907895,37.9081238 C10.2144737,37.7703095 10.0394737,37.4854932 10.0394737,37.1731141 L10.0394737,37.1731141 L10.0394737,28.9410058 L4.50394737,28.9410058 C2.00789474,28.9410058 0,26.9289168 0,24.4482592 L0,24.4482592 L0,4.47437137 C0,1.99371373 2.00789474,0 4.50394737,0 L4.50394737,0 Z M38.0578434,1 L3.94215663,1 C2.31397286,1 1,2.30911063 1,3.95512473 L1,3.95512473 L1,24.8816432 C1,26.5276573 2.31397286,27.8560195 3.94215663,27.8560195 L3.94215663,27.8560195 L10.5215425,27.8560195 C10.9976196,27.8560195 11.3784813,28.2506779 11.3784813,28.7319685 L11.3784813,28.7319685 L11.3784813,36.5 L22.7186385,28.0292841 C22.8614616,27.9234002 23.0423709,27.8560195 23.2232802,27.8560195 L23.2232802,27.8560195 L38.0483218,27.8560195 C39.6765056,27.8560195 40.9904785,26.5276573 40.9904785,24.8816432 L40.9904785,24.8816432 L41,24.8816432 L41,3.95512473 C41,2.30911063 39.6860272,1 38.0578434,1 L38.0578434,1 Z M34.1445354,19 C34.6155216,19 35,19.4444444 35,20 C35,20.5555556 34.6155216,21 34.1349234,21 L34.1349234,21 L8.86507654,21 C8.38447846,21 8,20.5555556 8,20 C8,19.4444444 8.38447846,19 8.86507654,19 L8.86507654,19 Z M34.1445354,12.5 C34.6155216,12.5 35,12.9444444 35,13.5 C35,14.0555556 34.6155216,14.5 34.1349234,14.5 L34.1349234,14.5 L8.86507654,14.5 C8.38447846,14.5 8,14.0555556 8,13.5 C8,12.9444444 8.38447846,12.5 8.86507654,12.5 L8.86507654,12.5 Z M21.1082802,6 C21.6036801,6 22,6.44444444 22,7 C22,7.55555556 21.6036801,8 21.1082802,8 L21.1082802,8 L8.89171975,8 C8.40622789,8 8,7.55555556 8,7 C8,6.44444444 8.39631988,6 8.89171975,6 L8.89171975,6 Z" id="Combined-Shape"></path>
                </g>
            </g>
        </g>
    </g>
</svg>