<?xml version="1.0" encoding="UTF-8"?>
<svg width="40px" height="52px" viewBox="0 0 40 52" version="1.1" xmlns="http://www.w3.org/2000/svg" xmlns:xlink="http://www.w3.org/1999/xlink">
    <title>icon-word (1)</title>
    <defs>
        <linearGradient x1="50%" y1="0%" x2="50%" y2="100%" id="linearGradient-1">
            <stop stop-color="#4F4FC4" offset="0%"></stop>
            <stop stop-color="#2D2E2C" offset="100%"></stop>
        </linearGradient>
        <linearGradient x1="50%" y1="0%" x2="50%" y2="100%" id="linearGradient-2">
            <stop stop-color="#4F4FC4" offset="0%"></stop>
            <stop stop-color="#2D2E2C" offset="100%"></stop>
        </linearGradient>
    </defs>
    <g id="Search" stroke="none" stroke-width="1" fill="none" fill-rule="evenodd">
        <g id="Search-Results-with-filter" transform="translate(-182.000000, -514.000000)" fill-rule="nonzero">
            <g id="icon-word-(1)" transform="translate(182.000000, 514.000000)">
                <g id="icon-word" transform="translate(20.000000, 26.000000) scale(-1, 1) translate(-20.000000, -26.000000) ">
                    <g id="path-1-link" fill="url(#linearGradient-1)">
                        <path d="M39.4433509,14.9118343 L25.0934521,0.5 L3.98370371,0.5 C2.07631764,0.5 0.5,2.05730696 0.5,3.94771969 L0.5,48.0522803 C0.5,49.942693 2.07631765,51.5 3.98370371,51.5 L36.0162963,51.5 C37.9236824,51.5 39.5,49.942693 39.5,48.0522803 L39.4433509,14.9118343 Z M24.678,1.5 L38.444,15.325 L38.5,48.053135 C38.5,49.387674 37.3740954,50.5 36.0162963,50.5 L3.98370371,50.5 C2.62590459,50.5 1.5,49.387674 1.5,48.0522803 L1.5,3.94771969 C1.5,2.61232596 2.62590458,1.5 3.98370371,1.5 L24.678,1.5 Z" id="path-1"></path>
                    </g>
                    <g id="path-3-link" transform="translate(24.500000, 1.000000)" fill="url(#linearGradient-2)">
                        <path d="M0.403208428,0.670616908 L0.403208428,12.3082535 C0.403208428,13.2097985 1.4902608,14.2797127 2.64358398,14.2797127 L14,14.3037845 L0.403208428,0.670616908 Z" id="path-3"></path>
                    </g>
                </g>
                <g id="icon-word" transform="translate(20.000000, 26.000000) scale(-1, 1) translate(-20.000000, -26.000000) ">
                    <g id="path-1-link">
                        <path d="M39.4433509,14.9118343 L25.0934521,0.5 L3.98370371,0.5 C2.07631764,0.5 0.5,2.05730696 0.5,3.94771969 L0.5,48.0522803 C0.5,49.942693 2.07631765,51.5 3.98370371,51.5 L36.0162963,51.5 C37.9236824,51.5 39.5,49.942693 39.5,48.0522803 L39.4433509,14.9118343 Z M24.678,1.5 L38.444,15.325 L38.5,48.053135 C38.5,49.387674 37.3740954,50.5 36.0162963,50.5 L3.98370371,50.5 C2.62590459,50.5 1.5,49.387674 1.5,48.0522803 L1.5,3.94771969 C1.5,2.61232596 2.62590458,1.5 3.98370371,1.5 L24.678,1.5 Z" id="path-1" fill="url(#linearGradient-1)"></path>
                        <g id="Group-17" transform="translate(11.000000, 22.000000)">
                            <g id="Group" transform="translate(9.500000, 11.000000) scale(-1, 1) translate(-9.500000, -11.000000) " fill="#0AA25A">
                                <path d="M0,2 L0,20 C1.3527075e-16,21.1045695 0.8954305,22 2,22 L17,22 C18.1045695,22 19,21.1045695 19,20 L19,2 C19,0.8954305 18.1045695,-2.02906125e-16 17,0 L2,0 C0.8954305,2.02906125e-16 -1.3527075e-16,0.8954305 0,2 Z" id="Path"></path>
                            </g>
                            <path d="M3,6 L16,6 L16,15.9411765 L3,15.9411765 L3,6 Z M3.76470588,6.76470588 L3.76470588,9.05882353 L6.82352941,9.05882353 L6.82352941,6.76470588 L3.76470588,6.76470588 Z M7.58823529,6.76470588 L7.58823529,9.05882353 L15.2352941,9.05882353 L15.2352941,6.76470588 L7.58823529,6.76470588 Z M3.76470588,9.82352941 L3.76470588,12.1176471 L6.82352941,12.1176471 L6.82352941,9.82352941 L3.76470588,9.82352941 Z M7.58823529,9.82352941 L7.58823529,12.1176471 L15.2352941,12.1176471 L15.2352941,9.82352941 L7.58823529,9.82352941 Z M3.76470588,12.8823529 L3.76470588,15.1764706 L6.82352941,15.1764706 L6.82352941,12.8823529 L3.76470588,12.8823529 Z M7.58823529,12.8823529 L7.58823529,15.1764706 L15.2352941,15.1764706 L15.2352941,12.8823529 L7.58823529,12.8823529 Z" id="Rectangle-57" fill="#E6F5EE"></path>
                        </g>
                    </g>
                    <g id="path-3-link" transform="translate(24.500000, 1.000000)" fill="url(#linearGradient-2)">
                        <path d="M0.403208428,0.670616908 L0.403208428,12.3082535 C0.403208428,13.2097985 1.4902608,14.2797127 2.64358398,14.2797127 L14,14.3037845 L0.403208428,0.670616908 Z" id="path-3"></path>
                    </g>
                </g>
            </g>
        </g>
    </g>
</svg>