<?xml version="1.0" encoding="UTF-8"?>
<svg width="40px" height="52px" viewBox="0 0 40 52" version="1.1" xmlns="http://www.w3.org/2000/svg" xmlns:xlink="http://www.w3.org/1999/xlink">
    <title>icon-word (1)</title>
    <defs>
        <linearGradient x1="50%" y1="0%" x2="50%" y2="100%" id="linearGradient-1">
            <stop stop-color="#4F4FC4" offset="0%"></stop>
            <stop stop-color="#2D2E2C" offset="100%"></stop>
        </linearGradient>
        <linearGradient x1="50%" y1="0%" x2="50%" y2="100%" id="linearGradient-2">
            <stop stop-color="#4F4FC4" offset="0%"></stop>
            <stop stop-color="#2D2E2C" offset="100%"></stop>
        </linearGradient>
        <linearGradient x1="50%" y1="0%" x2="50%" y2="100%" id="linearGradient-3">
            <stop stop-color="#4F4FC4" offset="0%"></stop>
            <stop stop-color="#2D2E2C" offset="100%"></stop>
        </linearGradient>
    </defs>
    <g id="Search" stroke="none" stroke-width="1" fill="none" fill-rule="evenodd">
        <g id="Search-Results-with-filter" transform="translate(-183.000000, -445.000000)" fill-rule="nonzero">
            <g id="icon-word-(1)" transform="translate(184.000000, 446.000000)">
                <g id="icon-word" transform="translate(19.000000, 25.000000) scale(-1, 1) translate(-19.000000, -25.000000) ">
                    <g id="path-1-link" stroke="url(#linearGradient-1)">
                        <path d="M37.9437037,14.118665 L23.8857143,0 L2.98370371,0 C1.35111111,0 0,1.33481646 0,2.94771969 C0,6.1206162 0,8.50028859 0,10.0867368 C0,18.3013021 0,30.6231499 0,47.0522803 C0,48.6651835 1.35111111,50 2.98370371,50 L35.0162963,50 C36.6488889,50 38,48.6651835 38,47.0522803 C37.9768196,33.4916311 37.9594343,23.3211442 37.9478441,16.5408196 C37.946924,16.002563 37.9455439,15.1951782 37.9437037,14.118665 Z" id="path-1"></path>
                    </g>
                    <g id="path-3-link" transform="translate(23.500000, 0.000000)" fill="url(#linearGradient-2)">
                        <path d="M0.403208428,0.670616908 L0.403208428,12.3082535 C0.403208428,13.2097985 1.4902608,14.2797127 2.64358398,14.2797127 L14,14.3037845 L0.403208428,0.670616908 Z" id="path-3"></path>
                    </g>
                </g>
                <path d="M22.0585938,41.25 C22.6054688,41.25 23.0644531,41.0449219 23.4355469,40.6347656 C23.8066406,40.2246094 23.9921875,39.7460938 23.9921875,39.1992188 L23.9921875,39.1992188 L23.9921875,28.1835938 C23.9921875,27.6367188 23.8066406,27.1777344 23.4355469,26.8066406 C23.0644531,26.4355469 22.6054688,26.25 22.0585938,26.25 L22.0585938,26.25 L9.109375,26.25 C8.5234375,26.25 8.02539062,26.4355469 7.61523438,26.8066406 C7.20507812,27.1777344 7,27.6367188 7,28.1835938 L7,28.1835938 L7,39.1992188 C7,39.7460938 7.21484375,40.2246094 7.64453125,40.6347656 C8.07421875,41.0449219 8.5625,41.25 9.109375,41.25 L9.109375,41.25 L22.0585938,41.25 Z M22.0585938,40.2539062 L9.109375,40.2539062 C8.8359375,40.2539062 8.58203125,40.1464844 8.34765625,39.9316406 C8.11328125,39.7167969 7.99609375,39.4726562 7.99609375,39.1992188 L7.99609375,39.1992188 L7.99609375,28.1835938 C7.99609375,27.9101562 8.10351562,27.6855469 8.31835938,27.5097656 C8.53320312,27.3339844 8.77734375,27.2460938 9.05078125,27.2460938 L9.05078125,27.2460938 L22,27.2460938 C22.2734375,27.2460938 22.5078125,27.3339844 22.703125,27.5097656 C22.8984375,27.6855469 22.9960938,27.9101562 22.9960938,28.1835938 L22.9960938,28.1835938 L22.9960938,39.1992188 C22.9960938,39.4726562 22.9082031,39.7167969 22.7324219,39.9316406 C22.5566406,40.1464844 22.3320312,40.2539062 22.0585938,40.2539062 L22.0585938,40.2539062 Z M31.4921875,39.375 L31.4921875,28.125 L25.75,31.2304688 L25.75,36.2695312 L31.4921875,39.375 Z M30.4960938,37.6171875 L26.7460938,35.6835938 L26.7460938,31.8164062 L30.4960938,29.8828125 L30.4960938,37.6171875 Z" id="" stroke="url(#linearGradient-3)" stroke-width="0.5" fill="url(#linearGradient-3)"></path>
            </g>
        </g>
    </g>
</svg>