<?xml version="1.0" encoding="UTF-8"?>
<svg width="44px" height="35px" viewBox="0 0 44 35" version="1.1" xmlns="http://www.w3.org/2000/svg" xmlns:xlink="http://www.w3.org/1999/xlink">
    <title>noun_Folder_1845885</title>
    <defs>
        <linearGradient x1="50%" y1="0%" x2="50%" y2="100%" id="linearGradient-1">
            <stop stop-color="#4F4FC4" offset="0%"></stop>
            <stop stop-color="#2D2E2C" offset="100%"></stop>
        </linearGradient>
    </defs>
    <g id="Search" stroke="none" stroke-width="1" fill="none" fill-rule="evenodd">
        <g id="Search-Results-with-filter" transform="translate(-413.000000, -1048.000000)" fill="url(#linearGradient-1)" fill-rule="nonzero">
            <g id="Result-Item" transform="translate(406.000000, 1015.000000)">
                <g id="noun_Folder_1845885" transform="translate(7.000000, 33.000000)">
                    <path d="M39.8570526,4.51663156 L22.8874105,4.51663156 C22.4707557,4.51535548 22.0713879,4.35194836 21.7758316,4.06181299 L18.4596211,0.785655047 C17.9517121,0.281073185 17.2605962,-0.00182110205 16.5402947,8.82279946e-06 L4.14294737,8.82279946e-06 C1.85545186,0.00228852023 0.00178714946,1.83397446 0,4.09384246 L0,30.9070904 C0.00229773105,33.166601 1.85581314,34.99773 4.14294737,35.0000088 L39.8570526,35.0000088 C42.1441869,34.99773 43.9977023,33.166601 44,30.9070904 L44,8.60954116 C43.9977023,6.35003053 42.1441869,4.51890154 39.8570526,4.51663156 Z M4.14294737,1.13065827 L16.5407579,1.13065827 C16.9578267,1.12988101 17.3579573,1.29360021 17.6523368,1.58547685 L20.9685474,4.86163478 C21.4783913,5.36307725 22.1679889,5.64541821 22.8874105,5.6472721 L39.8570526,5.6472721 C41.2922204,5.64974932 42.5250351,6.65506943 42.7994947,8.0467375 L1.14261053,8.0467375 L1.14261053,4.09384246 C1.14439638,2.45739873 2.48649797,1.13109745 4.14294737,1.12882802 L4.14294737,1.13065827 Z M39.8570526,33.8739351 L4.14294737,33.8739351 C2.48577535,33.8716639 1.14337531,32.5442488 1.14261053,30.9070904 L1.14261053,9.1728024 L42.8573895,9.1728024 L42.8573895,30.9070904 C42.8556036,32.5435341 41.513502,33.8698354 39.8570526,33.8721048 L39.8570526,33.8739351 Z" id="Shape"></path>
                </g>
            </g>
        </g>
    </g>
</svg>