<?xml version="1.0" encoding="UTF-8"?>
<svg width="40px" height="52px" viewBox="0 0 40 52" version="1.1" xmlns="http://www.w3.org/2000/svg" xmlns:xlink="http://www.w3.org/1999/xlink">
    <title>icon-word (1)</title>
    <defs>
        <linearGradient x1="50%" y1="0%" x2="50%" y2="100%" id="linearGradient-1">
            <stop stop-color="#4F4FC4" offset="0%"></stop>
            <stop stop-color="#2D2E2C" offset="100%"></stop>
        </linearGradient>
        <linearGradient x1="50%" y1="0%" x2="50%" y2="100%" id="linearGradient-2">
            <stop stop-color="#4F4FC4" offset="0%"></stop>
            <stop stop-color="#2D2E2C" offset="100%"></stop>
        </linearGradient>
        <linearGradient x1="50%" y1="0%" x2="50%" y2="100%" id="linearGradient-3">
            <stop stop-color="#4F4FC4" offset="0%"></stop>
            <stop stop-color="#2D2E2C" offset="100%"></stop>
        </linearGradient>
        <linearGradient x1="50%" y1="0%" x2="50%" y2="100%" id="linearGradient-4">
            <stop stop-color="#4F4FC4" offset="0%"></stop>
            <stop stop-color="#2D2E2C" offset="100%"></stop>
        </linearGradient>
    </defs>
    <g id="Search" stroke="none" stroke-width="1" fill="none" fill-rule="evenodd">
        <g id="Search-Results-with-filter" transform="translate(-126.000000, -378.000000)" fill-rule="nonzero">
            <g id="icon-word-(1)" transform="translate(127.000000, 379.000000)">
                <g id="icon-word" transform="translate(19.000000, 25.000000) scale(-1, 1) translate(-19.000000, -25.000000) ">
                    <g id="path-1-link" stroke="url(#linearGradient-1)">
                        <path d="M37.9437037,14.118665 L23.8857143,0 L2.98370371,0 C1.35111111,0 0,1.33481646 0,2.94771969 C0,6.1206162 0,8.50028859 0,10.0867368 C0,18.3013021 0,30.6231499 0,47.0522803 C0,48.6651835 1.35111111,50 2.98370371,50 L35.0162963,50 C36.6488889,50 38,48.6651835 38,47.0522803 C37.9768196,33.4916311 37.9594343,23.3211442 37.9478441,16.5408196 C37.946924,16.002563 37.9455439,15.1951782 37.9437037,14.118665 Z" id="path-1"></path>
                    </g>
                    <g id="path-3-link" transform="translate(23.500000, 0.000000)" fill="url(#linearGradient-2)">
                        <path d="M0.403208428,0.670616908 L0.403208428,12.3082535 C0.403208428,13.2097985 1.4902608,14.2797127 2.64358398,14.2797127 L14,14.3037845 L0.403208428,0.670616908 Z" id="path-3"></path>
                    </g>
                    <path d="M27.3668831,18 L10.9058442,18 C10.525974,18 10.2727273,18.247619 10.2727273,18.6190476 L10.2727273,22.3333333 L10.2727273,26.6666667 L10.2727273,30.3809524 C10.2727273,30.752381 10.525974,31 10.9058442,31 L27.3668831,31 C27.7467532,31 28,30.752381 28,30.3809524 L28,26.6666667 L28,22.3333333 L28,18.6190476 C28,18.247619 27.7467532,18 27.3668831,18 Z M26.8181818,21.5454545 L19.7272727,21.5454545 L19.7272727,19.1818182 L26.8181818,19.1818182 L26.8181818,21.5454545 Z M26.8181818,26.2727273 L19.7272727,26.2727273 L19.7272727,22.7272727 L26.8181818,22.7272727 L26.8181818,26.2727273 Z M11.4545455,22.7272727 L18.5454545,22.7272727 L18.5454545,26.2727273 L11.4545455,26.2727273 L11.4545455,22.7272727 Z M18.5454545,19.1818182 L18.5454545,21.5454545 L11.4545455,21.5454545 L11.4545455,19.1818182 L18.5454545,19.1818182 Z M11.4545455,27.4545455 L18.5454545,27.4545455 L18.5454545,29.8181818 L11.4545455,29.8181818 L11.4545455,27.4545455 Z M19.7272727,29.8181818 L19.7272727,27.4545455 L26.8181818,27.4545455 L26.8181818,29.8181818 L19.7272727,29.8181818 Z" id="Shape" fill="url(#linearGradient-3)"></path>
                </g>
                <path d="M15.8295822,44.7258217 C16.1329805,44.7258217 16.3171866,44.498273 16.3171866,44.2382173 C16.3171866,44.1298607 16.2846797,44.0323398 16.2196657,43.9564903 L13.7166295,40.8791643 L16.2196657,37.7910028 C16.273844,37.7151532 16.306351,37.6176323 16.306351,37.5201114 C16.306351,37.2600557 16.0896379,37.0541783 15.8295822,37.0541783 C15.677883,37.0541783 15.5478552,37.1191922 15.4720056,37.2275487 L13.1856825,40.1531755 L10.8993593,37.2492201 C10.8126741,37.1300279 10.6609749,37.0541783 10.4984401,37.0541783 C10.2275487,37.0541783 10.0216713,37.2600557 10.0216713,37.5309471 C10.0216713,37.6501393 10.0541783,37.7476602 10.1191922,37.8343454 L12.6005571,40.89 L10.0975209,43.9673259 C10.032507,44.0540111 10,44.1623677 10,44.2707242 C10,44.5199443 10.2058774,44.7258217 10.4550975,44.7258217 C10.6176323,44.7258217 10.7368245,44.6499721 10.8343454,44.5307799 L13.1206685,41.6051532 L15.4394986,44.5199443 C15.5261838,44.6391365 15.6670474,44.7258217 15.8295822,44.7258217 Z M22.117217,44.6716435 C22.3881084,44.6716435 22.6156571,44.4549304 22.6156571,44.184039 C22.6156571,43.9131476 22.3881084,43.6855989 22.117217,43.6855989 L18.573958,43.6855989 L18.573958,37.5526184 C18.573958,37.281727 18.3464092,37.0541783 18.0755179,37.0541783 C17.8046265,37.0541783 17.5879134,37.281727 17.5879134,37.5526184 L17.5879134,43.9889972 C17.5879134,44.3682451 17.8913117,44.6716435 18.2705596,44.6716435 L22.117217,44.6716435 Z M25.9668296,44.78 C27.646356,44.78 28.7407572,43.8914763 28.7407572,42.6670474 C28.7407572,39.8064345 24.1464396,41.0200279 24.1464396,39.1454596 C24.1464396,38.3327855 24.980785,37.910195 26.0751861,37.910195 C26.7361611,37.910195 27.3212864,38.0293872 27.8197265,38.2027577 C27.8739048,38.224429 27.9389187,38.2461003 27.993097,38.2461003 C28.2639884,38.2461003 28.4265232,38.0077159 28.4265232,37.7910028 C28.4265232,37.5309471 28.274824,37.4117549 28.1231248,37.3575766 C27.5379995,37.1408635 26.8120106,37 25.9668296,37 C24.135604,37 23.160395,38.0185515 23.160395,39.2213092 C23.160395,41.8868802 27.7655482,40.9983565 27.7655482,42.6020334 C27.7655482,43.5447354 26.9420385,43.8481337 25.8693087,43.8481337 C24.9374424,43.8481337 24.2222892,43.620585 23.7346847,43.4038719 C23.6588351,43.3713649 23.5938212,43.3605292 23.5288073,43.3605292 C23.2579159,43.3605292 23.0845455,43.5772423 23.0845455,43.8156267 C23.0845455,44.0106685 23.225409,44.1948747 23.3879438,44.2598886 C24.0164117,44.5307799 24.8832641,44.78 25.9668296,44.78 Z" id="XLS" stroke="url(#linearGradient-4)" stroke-width="0.5" fill="url(#linearGradient-4)"></path>
            </g>
        </g>
    </g>
</svg>