<?xml version="1.0" encoding="UTF-8"?>
<svg width="40px" height="52px" viewBox="0 0 40 52" version="1.1" xmlns="http://www.w3.org/2000/svg" xmlns:xlink="http://www.w3.org/1999/xlink">
    <title>icon-word (1)</title>
    <defs>
        <linearGradient x1="50%" y1="0%" x2="50%" y2="100%" id="linearGradient-1">
            <stop stop-color="#4F4FC4" offset="0%"></stop>
            <stop stop-color="#2D2E2C" offset="100%"></stop>
        </linearGradient>
        <linearGradient x1="50%" y1="0%" x2="50%" y2="100%" id="linearGradient-2">
            <stop stop-color="#4F4FC4" offset="0%"></stop>
            <stop stop-color="#2D2E2C" offset="100%"></stop>
        </linearGradient>
        <linearGradient x1="50%" y1="0%" x2="50%" y2="100%" id="linearGradient-3">
            <stop stop-color="#4F4FC4" offset="0%"></stop>
            <stop stop-color="#2D2E2C" offset="100%"></stop>
        </linearGradient>
        <linearGradient x1="50%" y1="0%" x2="50%" y2="100%" id="linearGradient-4">
            <stop stop-color="#4F4FC4" offset="0%"></stop>
            <stop stop-color="#2D2E2C" offset="100%"></stop>
        </linearGradient>
    </defs>
    <g id="Search" stroke="none" stroke-width="1" fill="none" fill-rule="evenodd">
        <g id="Search-Results-with-filter" transform="translate(-296.000000, -377.000000)" fill-rule="nonzero">
            <g id="icon-word-(1)" transform="translate(296.000000, 377.000000)">
                <g id="icon-word" transform="translate(20.000000, 26.000000) scale(-1, 1) translate(-20.000000, -26.000000) ">
                    <g id="path-1-link" fill="url(#linearGradient-1)">
                        <path d="M39.4433509,14.9118343 L25.0934521,0.5 L3.98370371,0.5 C2.07631764,0.5 0.5,2.05730696 0.5,3.94771969 L0.5,48.0522803 C0.5,49.942693 2.07631765,51.5 3.98370371,51.5 L36.0162963,51.5 C37.9236824,51.5 39.5,49.942693 39.5,48.0522803 L39.4433509,14.9118343 Z M24.678,1.5 L38.444,15.325 L38.5,48.053135 C38.5,49.387674 37.3740954,50.5 36.0162963,50.5 L3.98370371,50.5 C2.62590459,50.5 1.5,49.387674 1.5,48.0522803 L1.5,3.94771969 C1.5,2.61232596 2.62590458,1.5 3.98370371,1.5 L24.678,1.5 Z" id="path-1"></path>
                    </g>
                    <path d="M9.96692099,45.8 C10.2443036,45.8 10.4773051,45.5780939 10.4773051,45.3007112 L10.4773051,42.9263158 L12.4966507,42.9263158 C14.7379025,42.9263158 15.4590974,41.6392603 15.4590974,40.4631579 C15.4590974,39.2870555 14.7379025,38 12.4966507,38 L9.96692099,38 C9.68953834,38 9.46763223,38.2330014 9.46763223,38.5103841 L9.46763223,45.3007112 C9.46763223,45.5780939 9.68953834,45.8 9.96692099,45.8 Z M12.396793,41.9721195 L10.4773051,41.9721195 L10.4773051,38.9541963 L12.396793,38.9541963 C14.0499935,38.9541963 14.4494245,39.741963 14.4494245,40.4631579 C14.4494245,41.1843528 14.0499935,41.9721195 12.396793,41.9721195 Z M19.367671,45.7445235 C22.0194491,45.7445235 23.284314,43.7362731 23.284314,41.8722617 C23.284314,39.997155 22.0194491,38 19.367671,38 L17.1375145,38 C16.8601319,38 16.6382258,38.2330014 16.6382258,38.5103841 L16.6382258,45.2452347 C16.6382258,45.5226174 16.8601319,45.7445235 17.1375145,45.7445235 L19.367671,45.7445235 Z M19.2456227,44.8014225 L17.6478986,44.8014225 L17.6478986,38.943101 L19.2456227,38.943101 C21.0985387,38.943101 22.2857365,40.141394 22.2857365,41.8722617 C22.2857365,43.6031294 21.0985387,44.8014225 19.2456227,44.8014225 Z M25.2068279,45.8 C25.4842105,45.8 25.7172119,45.5780939 25.7172119,45.3007112 L25.7172119,42.3382646 L29.1345661,42.3382646 C29.4008535,42.3382646 29.6116643,42.1385491 29.6116643,41.8722617 C29.6116643,41.6059744 29.4008535,41.3951636 29.1345661,41.3951636 L25.7172119,41.3951636 L25.7172119,38.943101 L29.5229018,38.943101 C29.7891892,38.943101 30,38.7433855 30,38.4770982 C30,38.2108108 29.7891892,38 29.5229018,38 L25.2068279,38 C24.9294452,38 24.7075391,38.2330014 24.7075391,38.5103841 L24.7075391,45.3007112 C24.7075391,45.5780939 24.9294452,45.8 25.2068279,45.8 Z" id="PDF" stroke="url(#linearGradient-2)" stroke-width="0.5" fill="url(#linearGradient-2)" transform="translate(19.733816, 41.900000) scale(-1, 1) translate(-19.733816, -41.900000) "></path>
                    <g id="path-3-link" transform="translate(24.500000, 1.000000)" fill="url(#linearGradient-3)">
                        <path d="M0.403208428,0.670616908 L0.403208428,12.3082535 C0.403208428,13.2097985 1.4902608,14.2797127 2.64358398,14.2797127 L14,14.3037845 L0.403208428,0.670616908 Z" id="path-3"></path>
                    </g>
                </g>
                <g id="Group-13" transform="translate(12.000000, 18.000000)" fill="url(#linearGradient-4)">
                    <path d="M10.6924955,8.81147649 C10.032628,8.12130292 9.38082905,7.35016477 8.79392935,6.65637082 C8.51714283,6.32856306 8.25228373,6.01589501 8.00461416,5.73186077 L7.98637221,5.71112594 C8.34910639,4.74185499 8.55643318,3.94866552 8.60273967,3.3529506 C8.72025993,1.83535863 8.53959446,0.857859568 8.05092065,0.365160548 C7.7208115,0.0317576698 7.22512156,-0.0844231948 6.75889938,0.0626953505 C6.42493136,0.16768599 5.97274145,0.449087235 5.71419688,1.19224982 C5.32901106,2.30008209 5.51564025,4.26199181 6.61085893,5.88457443 C6.12218513,7.08521974 5.44091842,8.46490865 4.68843793,9.77844358 C3.25539235,10.2497495 2.11316556,10.8694905 1.29333018,11.6212103 C0.222317171,12.6020006 -0.213034009,13.5755502 0.0984823871,14.2917246 C0.290373681,14.7353841 0.734144222,15 1.28526163,15 C1.66904422,15 2.0840486,14.8699959 2.48572234,14.6244692 C3.49990466,14.0024244 4.82420015,11.9299289 5.53458382,10.7289544 C7.0041133,10.2984599 8.45505003,10.1223784 9.19244582,10.0555662 C9.52606304,10.0252868 9.85722462,10.0012607 10.176108,9.98447537 C11.466726,11.2631231 12.5223035,11.9374987 13.4947398,12.1056812 C13.69049,12.1399102 13.8862402,12.1570246 14.0774298,12.1570246 C14.8699023,12.1570246 15.5248585,11.8604837 15.8304112,11.3638351 C16.0608912,10.9886335 16.0563307,10.5508982 15.8174313,10.1625316 C15.2778906,9.28607368 13.6494456,8.80357751 11.2320363,8.80357751 C11.0580361,8.80390664 10.8784231,8.80621051 10.6924955,8.81147649 Z M2.48027488,14.8441345 C2.32292307,14.9417555 2.16125631,15 2.04734165,15 C2.0257669,15 2.01109607,14.9978124 2.00275384,14.9958983 C1.98290507,14.9004649 2.05424557,14.4878316 2.75758229,13.8345639 C3.08781974,13.527755 3.50550682,13.2477441 4,13 C3.37605834,13.9543342 2.81453962,14.6365874 2.48027488,14.8441345 Z M6.19697847,2.37194934 C6.3326613,2.13067655 6.50080158,2.02162496 6.60562322,2.00123571 C6.60828366,2.00092678 6.61041202,2.00030893 6.61254038,2 C6.71363739,2.0661106 7.14356571,2.44392956 6.95094931,3.9867161 C6.91742767,4.2557924 6.80462469,4.59592215 6.61466874,5 C5.99318819,4.07074452 5.82238746,3.03830707 6.19697847,2.37194934 Z M8.91761504,9.64141554 C8.22662048,9.69090406 7.1741712,9.79292231 6,10 C6.45534389,9.32264307 6.87691737,8.63616257 7.22909451,8 C7.35118753,8.11390655 7.47624938,8.2308543 7.60316675,8.35056677 C8.02808016,8.74951617 8.50531915,9.19795411 9,9.63588609 L8.91761504,9.64141554 Z M14.9832222,11.7423664 C15.0024022,11.7709924 15.0020334,11.7824427 14.9972384,11.7900763 C14.9430181,11.8711832 14.6977358,12 14.2709816,12 C14.1518445,12 14.0249617,11.9895038 13.8940215,11.9685115 C13.3614087,11.8835878 12.7402729,11.5661578 12,11 C14.0087325,11.0826972 14.8205614,11.5003181 14.9832222,11.7423664 Z" id="Combined-Shape"></path>
                </g>
            </g>
        </g>
    </g>
</svg>