<?xml version="1.0" encoding="UTF-8"?>
<svg width="40px" height="52px" viewBox="0 0 40 52" version="1.1" xmlns="http://www.w3.org/2000/svg" xmlns:xlink="http://www.w3.org/1999/xlink">
    <title>icon-word (1)</title>
    <defs>
        <linearGradient x1="50%" y1="0%" x2="50%" y2="100%" id="linearGradient-1">
            <stop stop-color="#4F4FC4" offset="0%"></stop>
            <stop stop-color="#2D2E2C" offset="100%"></stop>
        </linearGradient>
        <linearGradient x1="50%" y1="0%" x2="50%" y2="100%" id="linearGradient-2">
            <stop stop-color="#4F4FC4" offset="0%"></stop>
            <stop stop-color="#2D2E2C" offset="100%"></stop>
        </linearGradient>
        <linearGradient x1="50%" y1="0%" x2="50%" y2="100%" id="linearGradient-3">
            <stop stop-color="#4F4FC4" offset="0%"></stop>
            <stop stop-color="#2D2E2C" offset="100%"></stop>
        </linearGradient>
        <linearGradient x1="50%" y1="0%" x2="50%" y2="100%" id="linearGradient-4">
            <stop stop-color="#4F4FC4" offset="0%"></stop>
            <stop stop-color="#2D2E2C" offset="100%"></stop>
        </linearGradient>
    </defs>
    <g id="Search" stroke="none" stroke-width="1" fill="none" fill-rule="evenodd">
        <g id="Search-Results-with-filter" transform="translate(-296.000000, -514.000000)" fill-rule="nonzero">
            <g id="icon-word-(1)" transform="translate(296.000000, 514.000000)">
                <g id="icon-word" transform="translate(20.000000, 26.000000) scale(-1, 1) translate(-20.000000, -26.000000) ">
                    <g id="path-1-link" fill="url(#linearGradient-1)">
                        <path d="M39.4433509,14.9118343 L25.0934521,0.5 L3.98370371,0.5 C2.07631764,0.5 0.5,2.05730696 0.5,3.94771969 L0.5,48.0522803 C0.5,49.942693 2.07631765,51.5 3.98370371,51.5 L36.0162963,51.5 C37.9236824,51.5 39.5,49.942693 39.5,48.0522803 L39.4433509,14.9118343 Z M24.678,1.5 L38.444,15.325 L38.5,48.053135 C38.5,49.387674 37.3740954,50.5 36.0162963,50.5 L3.98370371,50.5 C2.62590459,50.5 1.5,49.387674 1.5,48.0522803 L1.5,3.94771969 C1.5,2.61232596 2.62590458,1.5 3.98370371,1.5 L24.678,1.5 Z" id="path-1"></path>
                    </g>
                    <g id="path-3-link" transform="translate(24.500000, 1.000000)" fill="url(#linearGradient-2)">
                        <path d="M0.403208428,0.670616908 L0.403208428,12.3082535 C0.403208428,13.2097985 1.4902608,14.2797127 2.64358398,14.2797127 L14,14.3037845 L0.403208428,0.670616908 Z" id="path-3"></path>
                    </g>
                </g>
                <path d="M27.2380952,31 C27.6190476,31 28,31.21875 28,31.5 C28,31.78125 27.6666667,32 27.2380952,32 L27.2380952,32 L12.7619048,32 C12.3333333,32 12,31.78125 12,31.5 C12,31.21875 12.3333333,31 12.7619048,31 L12.7619048,31 Z M27.2380952,25 C27.6190476,25 27.952381,25.21875 28,25.5 C28,25.78125 27.6666667,26 27.2380952,26 L27.2380952,26 L12.7619048,26 C12.3333333,26 12,25.78125 12,25.5 C12,25.21875 12.3333333,25 12.7619048,25 L12.7619048,25 Z M27.3009709,19 C27.6941748,19 28,19.21875 28,19.5 C28,19.78125 27.6941748,20 27.3009709,20 L27.3009709,20 L19.6990291,20 C19.3058252,20 19,19.78125 19,19.5 C19,19.21875 19.3058252,19 19.6990291,19 L19.6990291,19 Z" id="Combined-Shape" fill="url(#linearGradient-3)"></path>
                <path d="M12.201822,45.79 C12.3411911,45.79 12.4603884,45.7423211 12.5594138,45.6469633 C12.6584393,45.5516055 12.707952,45.434242 12.707952,45.2948729 L12.707952,45.2948729 L12.707952,38.9902542 L14.9415254,38.9902542 C15.0735593,38.9902542 15.1854214,38.9462429 15.2771116,38.8582203 C15.3688018,38.7701977 15.4146469,38.6601695 15.4146469,38.5281356 C15.4146469,38.3961017 15.3688018,38.2842396 15.2771116,38.1925494 C15.1854214,38.1008592 15.0735593,38.0550141 14.9415254,38.0550141 L14.9415254,38.0550141 L9.46211864,38.0550141 C9.33008475,38.0550141 9.2200565,38.1008592 9.1320339,38.1925494 C9.0440113,38.2842396 9,38.3961017 9,38.5281356 C9,38.6601695 9.0440113,38.7701977 9.1320339,38.8582203 C9.2200565,38.9462429 9.33008475,38.9902542 9.46211864,38.9902542 L9.46211864,38.9902542 L11.7066949,38.9902542 L11.7066949,45.2948729 C11.7066949,45.434242 11.7543738,45.5516055 11.8497316,45.6469633 C11.9450895,45.7423211 12.0624529,45.79 12.201822,45.79 Z M22.3464266,45.79 C22.4931309,45.79 22.6123282,45.7423211 22.7040184,45.6469633 C22.7957086,45.5516055 22.8415537,45.434242 22.8415537,45.2948729 C22.8415537,45.1775094 22.8085452,45.0821516 22.7425282,45.0087994 L22.7425282,45.0087994 L20.2008757,41.8839972 L22.7425282,38.7481921 C22.80121,38.6675047 22.8305508,38.5758145 22.8305508,38.4731215 C22.8305508,38.3410876 22.7828719,38.2292255 22.6875141,38.1375353 C22.5921563,38.0458451 22.4784605,38 22.3464266,38 C22.1850518,38 22.0640207,38.0586817 21.9833333,38.1760452 L21.9833333,38.1760452 L19.6617373,41.1468079 L17.3401412,38.1980508 C17.2961299,38.1393691 17.2374482,38.0916902 17.164096,38.0550141 C17.0907439,38.018338 17.0137241,38 16.9330367,38 C16.7936676,38 16.6781379,38.0458451 16.5864477,38.1375353 C16.4947575,38.2292255 16.4489124,38.3447552 16.4489124,38.4841243 C16.4489124,38.6014878 16.4819209,38.7041808 16.5479379,38.7922034 L16.5479379,38.7922034 L19.0675847,41.895 L16.5259322,45.0198023 C16.4599153,45.1078249 16.4269068,45.2105179 16.4269068,45.3278814 C16.4269068,45.45258 16.4727519,45.5607745 16.5644421,45.6524647 C16.6561323,45.7441549 16.7643267,45.79 16.8890254,45.79 C17.0357298,45.79 17.164096,45.7239831 17.2741243,45.5919492 L17.2741243,45.5919492 L19.5957203,42.6211864 L21.9503249,45.5809463 C22.0530179,45.7203154 22.1850518,45.79 22.3464266,45.79 Z M27.0226271,45.79 C27.1619962,45.79 27.2811935,45.7423211 27.3802189,45.6469633 C27.4792444,45.5516055 27.5287571,45.434242 27.5287571,45.2948729 L27.5287571,45.2948729 L27.5287571,38.9902542 L29.7623305,38.9902542 C29.8943644,38.9902542 30.0062265,38.9462429 30.0979167,38.8582203 C30.1896069,38.7701977 30.235452,38.6601695 30.235452,38.5281356 C30.235452,38.3961017 30.1896069,38.2842396 30.0979167,38.1925494 C30.0062265,38.1008592 29.8943644,38.0550141 29.7623305,38.0550141 L29.7623305,38.0550141 L24.2829237,38.0550141 C24.1508898,38.0550141 24.0408616,38.1008592 23.952839,38.1925494 C23.8648164,38.2842396 23.8208051,38.3961017 23.8208051,38.5281356 C23.8208051,38.6601695 23.8648164,38.7701977 23.952839,38.8582203 C24.0408616,38.9462429 24.1508898,38.9902542 24.2829237,38.9902542 L24.2829237,38.9902542 L26.5275,38.9902542 L26.5275,45.2948729 C26.5275,45.434242 26.5751789,45.5516055 26.6705367,45.6469633 C26.7658945,45.7423211 26.883258,45.79 27.0226271,45.79 Z" id="TXT" stroke="url(#linearGradient-4)" stroke-width="0.5" fill="url(#linearGradient-4)"></path>
            </g>
        </g>
    </g>
</svg>