<?xml version="1.0" encoding="UTF-8"?>
<svg width="41px" height="36px" viewBox="0 0 41 36" version="1.1" xmlns="http://www.w3.org/2000/svg" xmlns:xlink="http://www.w3.org/1999/xlink">
    <title>np_suitcase_1119514_000000</title>
    <defs>
        <linearGradient x1="50%" y1="0%" x2="50%" y2="100%" id="linearGradient-1">
            <stop stop-color="#4F4FC4" offset="0%"></stop>
            <stop stop-color="#2D2E2C" offset="100%"></stop>
        </linearGradient>
    </defs>
    <g id="Assets" stroke="none" stroke-width="1" fill="none" fill-rule="evenodd">
        <g id="Type-Icons" transform="translate(-61.000000, -351.000000)" fill="url(#linearGradient-1)" fill-rule="nonzero">
            <g id="np_suitcase_1119514_000000" transform="translate(61.000000, 351.000000)">
                <path d="M38.3253829,6.13488603 L28.5915527,6.13488603 L28.5915527,1.80158314 C28.5915527,1.32303762 28.3993635,0.86561566 28.0576886,0.527818821 C27.7160137,0.190021982 27.2515851,0 26.7693353,0 L14.2415902,0 C13.234405,0 12.4193727,0.805803099 12.4193727,1.80158314 L12.4193727,6.13488603 L2.67460921,6.13488603 C1.1993875,6.13840497 0.00533394814,7.32068805 1.97880917e-06,8.77744818 L1.97880917e-06,33.3433855 C-0.00177543333,34.8054153 1.19405752,35.9947304 2.67460921,36 L38.3253829,36 C39.8059346,35.9947218 41.0017648,34.8054153 40.9999902,33.3433855 L40.9999902,8.77744818 C40.9946495,7.32068805 39.8006046,6.13839912 38.3253829,6.13488603 Z M13.6666806,1.80158314 C13.6684599,1.49897572 13.9158141,1.25444234 14.2219102,1.25264076 L26.7496553,1.25264076 C27.0557332,1.25440045 27.3030628,1.49895321 27.3066617,1.80158314 L27.3066617,6.13488603 L13.6669083,6.13488603 L13.6666806,1.80158314 Z M38.3253829,7.40000275 C39.0923543,7.401762 39.7134115,8.01578387 39.7151882,8.77407021 L39.7151882,17.3315901 L24.9825599,17.3315901 L24.9825599,16.3991357 C24.9825599,16.0613389 24.8455383,15.7375944 24.603525,15.4983442 C24.3597306,15.2608325 24.0305288,15.12888 23.688863,15.1341586 L17.3111018,15.1341586 C16.6046281,15.1341586 16.0316318,15.7006665 16.0316318,16.3991402 L16.0316318,17.3492051 L1.27928973,17.3492051 L1.27928973,8.79168519 C1.27585549,8.42397757 1.42177548,8.0703313 1.68336391,7.80820096 C1.94495234,7.54781815 2.30264451,7.40000275 2.6745591,7.40000275 L38.3253829,7.40000275 Z M23.6888766,16.3989105 L23.6888766,19.551681 L17.3111155,19.551681 L17.3111155,16.3989105 L23.6888766,16.3989105 Z M38.313083,34.7174079 L2.67506477,34.7156487 C1.90631677,34.7156487 1.28348284,34.1016241 1.27992951,33.3433378 L1.27992951,18.6194446 L16.0180244,18.6194446 L16.0180244,19.569514 C16.0180244,19.9073108 16.1550461,20.2310553 16.3970593,20.4703056 C16.6408538,20.7078173 16.9700556,20.8397697 17.3117214,20.8344911 L23.6894825,20.8344911 C24.3959562,20.8344911 24.9689525,20.2679833 24.9689525,19.5695095 L24.9689525,18.6194446 L39.7211696,18.6194446 L39.7211696,33.3433333 C39.7211696,33.7075188 39.5734698,34.0593725 39.3118814,34.3180348 C39.0502929,34.5749 38.6961541,34.7209273 38.3260161,34.7209273 L38.313083,34.7174079 Z" id="Shape"></path>
            </g>
        </g>
    </g>
</svg>