<?xml version="1.0" encoding="UTF-8"?>
<svg width="37px" height="37px" viewBox="0 0 37 37" version="1.1" xmlns="http://www.w3.org/2000/svg" xmlns:xlink="http://www.w3.org/1999/xlink">
    <title>Fill 1</title>
    <defs>
        <linearGradient x1="50%" y1="0%" x2="50%" y2="100%" id="linearGradient-1">
            <stop stop-color="#EA04D0" offset="0%"></stop>
            <stop stop-color="#4F4FC4" offset="100%"></stop>
        </linearGradient>
    </defs>
    <g id="Search" stroke="none" stroke-width="1" fill="none" fill-rule="evenodd">
        <g id="Search-Results-with-filter" transform="translate(-1066.000000, -26.000000)" fill="url(#linearGradient-1)">
            <g id="Group-5" transform="translate(-2.000000, 0.000000)">
                <path d="M1073.41821,31.4182058 C1066.19393,38.6424802 1066.19393,50.3575198 1073.41821,57.5817942 C1080.64248,64.8060686 1092.35752,64.8060686 1099.58179,57.5817942 C1106.80607,50.3575198 1106.80607,38.6424802 1099.58179,31.4182058 C1092.35752,24.1939314 1080.64248,24.1939314 1073.41821,31.4182058 Z M1087.02102,33 C1088.67619,33 1090,34.3563445 1090,36 C1090,37.6436555 1088.63415,39 1087.02102,39 C1085.36585,39 1084,37.6436555 1084,35.9598948 C1084.00161,34.3146368 1085.36585,33 1087.02102,33 L1087.02102,33 Z M1090.97627,52.7300009 C1090.8952,52.957591 1090.73148,53.2221367 1090.56934,53.3728646 C1089.51068,54.3940616 1088.20884,55 1086.66219,55 C1085.9294,55 1085.23795,55 1084.50515,54.8862049 C1083.32571,54.7354619 1081.81878,53.3728722 1082.02224,51.9349035 C1082.18438,50.9506318 1082.3481,49.9678736 1082.51023,48.983602 C1082.83609,47.2811026 1083.16197,45.5401647 1083.48621,43.837514 C1083.48621,43.723719 1083.52753,43.6099239 1083.52753,43.4976043 C1083.52753,42.7793766 1083.28274,42.5133327 1082.51022,42.4379688 C1082.18436,42.3995452 1081.85848,42.3625972 1081.53424,42.2872257 C1081.16864,42.1734306 1080.96519,41.8704539 1081.00491,41.6059233 C1081.04624,41.3029616 1081.2497,41.1137875 1081.65664,41.0384235 C1081.86011,41 1082.10492,41 1082.3481,41 L1085.07418,41 L1087.96402,41 C1088.65547,41 1089.06239,41.3029616 1089.06239,41.945833 C1089.06239,42.4748941 1088.98133,43.0054685 1088.85893,43.5345297 C1088.49333,45.5015595 1088.08642,47.4317398 1087.71921,49.398694 C1087.59681,50.0415577 1087.43468,50.6844215 1087.35361,51.3287986 C1087.31228,51.6317602 1087.35361,51.9716623 1087.43468,52.2746315 C1087.55707,52.6914034 1087.88295,52.9174953 1088.32959,52.8805699 C1088.69519,52.8421464 1089.06239,52.7298269 1089.42797,52.5776083 C1089.7125,52.4638132 1089.9573,52.2746467 1090.24182,52.1992751 C1090.73298,52.0500113 1091.09861,52.3145495 1090.9762,52.7298117 L1090.97627,52.7300009 Z" id="Fill-1"></path>
            </g>
        </g>
    </g>
</svg>