<?xml version="1.0" encoding="UTF-8"?>
<svg width="40px" height="38px" viewBox="0 0 40 38" version="1.1" xmlns="http://www.w3.org/2000/svg" xmlns:xlink="http://www.w3.org/1999/xlink">
    <title>Combined Shape</title>
    <defs>
        <linearGradient x1="50%" y1="0%" x2="50%" y2="100%" id="linearGradient-1">
            <stop stop-color="#4F4FC4" offset="0%"></stop>
            <stop stop-color="#2D2E2C" offset="100%"></stop>
        </linearGradient>
    </defs>
    <g id="Assets" stroke="none" stroke-width="1" fill="none" fill-rule="evenodd">
        <g id="Type-Icons" transform="translate(-7.000000, -351.000000)" fill="url(#linearGradient-1)" fill-rule="nonzero">
            <path d="M43.9230769,351 C45.6224146,351 47,352.377585 47,354.076923 L47,385.871795 C47,387.571133 45.6224146,388.948718 43.9230769,388.948718 L10.0769231,388.948718 C8.37758539,388.948718 7,387.571133 7,385.871795 L7,354.076923 C7,352.377585 8.37758539,351 10.0769231,351 L43.9230769,351 Z M43.9230769,352.025641 L10.0769231,352.025641 C8.99552636,352.025641 8.10957423,352.862439 8.03126742,353.923833 L8.02564103,354.076923 L8.02564103,385.871795 C8.02564103,386.953192 8.86243876,387.839144 9.92383349,387.917451 L10.0769231,387.923077 L43.9230769,387.923077 C45.0044736,387.923077 45.8904258,387.086279 45.9687326,386.024884 L45.974359,385.871795 L45.974359,354.076923 C45.974359,352.995526 45.1375612,352.109574 44.0761665,352.031267 L43.9230769,352.025641 Z M42,373.5 L42,374.5 L17.8431373,374.5 C15.9868793,374.5 14.5,375.854122 14.5,377.5 C14.5,379.089123 15.8861039,380.406265 17.652474,380.495213 L17.8431373,380.5 L17.8431373,381.5 C15.454383,381.5 13.5,379.720116 13.5,377.5 C13.5,375.347161 15.3377302,373.608276 17.6272167,373.504866 L17.8431373,373.5 L42,373.5 Z M37.6568627,360.5 C40.045617,360.5 42,362.279884 42,364.5 C42,366.652839 40.1622698,368.391724 37.8727833,368.495134 L37.6568627,368.5 L13.5,368.5 L13.5,367.5 L37.6568627,367.5 C39.5131207,367.5 41,366.145878 41,364.5 C41,362.910877 39.6138961,361.593735 37.847526,361.504787 L37.6568627,361.5 L37.6568627,360.5 Z" id="Combined-Shape"></path>
        </g>
    </g>
</svg>