<?xml version="1.0" encoding="UTF-8"?>
<svg width="40px" height="52px" viewBox="0 0 40 52" version="1.1" xmlns="http://www.w3.org/2000/svg" xmlns:xlink="http://www.w3.org/1999/xlink">
    <title>icon-word (1)</title>
    <defs>
        <linearGradient x1="50%" y1="0%" x2="50%" y2="100%" id="linearGradient-1">
            <stop stop-color="#4F4FC4" offset="0%"></stop>
            <stop stop-color="#2D2E2C" offset="100%"></stop>
        </linearGradient>
        <linearGradient x1="50%" y1="0%" x2="50%" y2="100%" id="linearGradient-2">
            <stop stop-color="#4F4FC4" offset="0%"></stop>
            <stop stop-color="#2D2E2C" offset="100%"></stop>
        </linearGradient>
        <linearGradient x1="50%" y1="0%" x2="50%" y2="100%" id="linearGradient-3">
            <stop stop-color="#4F4FC4" offset="0%"></stop>
            <stop stop-color="#2D2E2C" offset="100%"></stop>
        </linearGradient>
        <linearGradient x1="50%" y1="0%" x2="50%" y2="100%" id="linearGradient-4">
            <stop stop-color="#4F4FC4" offset="0%"></stop>
            <stop stop-color="#2D2E2C" offset="100%"></stop>
        </linearGradient>
        <linearGradient x1="50%" y1="0%" x2="50%" y2="100%" id="linearGradient-5">
            <stop stop-color="#4F4FC4" offset="0%"></stop>
            <stop stop-color="#2D2E2C" offset="100%"></stop>
        </linearGradient>
    </defs>
    <g id="Search" stroke="none" stroke-width="1" fill="none" fill-rule="evenodd">
        <g id="Search-Results-with-filter" transform="translate(-183.000000, -378.000000)" fill-rule="nonzero">
            <g id="icon-word-(1)" transform="translate(184.000000, 379.000000)">
                <g id="icon-word" transform="translate(19.000000, 25.000000) scale(-1, 1) translate(-19.000000, -25.000000) ">
                    <g id="path-1-link" stroke="url(#linearGradient-1)">
                        <path d="M37.9437037,14.118665 L23.8857143,0 L2.98370371,0 C1.35111111,0 0,1.33481646 0,2.94771969 C0,6.1206162 0,8.50028859 0,10.0867368 C0,18.3013021 0,30.6231499 0,47.0522803 C0,48.6651835 1.35111111,50 2.98370371,50 L35.0162963,50 C36.6488889,50 38,48.6651835 38,47.0522803 C37.9768196,33.4916311 37.9594343,23.3211442 37.9478441,16.5408196 C37.946924,16.002563 37.9455439,15.1951782 37.9437037,14.118665 Z" id="path-1"></path>
                    </g>
                    <g id="path-3-link" transform="translate(23.500000, 0.000000)" fill="url(#linearGradient-2)">
                        <path d="M0.403208428,0.670616908 L0.403208428,12.3082535 C0.403208428,13.2097985 1.4902608,14.2797127 2.64358398,14.2797127 L14,14.3037845 L0.403208428,0.670616908 Z" id="path-3"></path>
                    </g>
                    <g id="Group-15" transform="translate(10.000000, 17.000000)">
                        <path d="M18,1.68885251 L18,11.1379843 C18,11.4374932 17.7628,11.6750401 17.4746903,11.6750401 L12.1312138,11.6750401 L13.5201707,14.2047948 C13.6616119,14.4579872 13.5709289,14.7882448 13.31835,14.9329261 C13.2375914,14.9793202 13.1463024,15 13.0604679,15 C12.8789505,15 12.7019786,14.9021 12.6062198,14.72667 L10.9293047,11.6750401 L7.07084685,11.6750401 L5.39385598,14.72667 C5.29817296,14.9021774 5.12104951,15 4.93422897,15 C4.84839455,15 4.76256013,14.9792427 4.68165002,14.9329261 C4.42914683,14.7882448 4.33838811,14.4579097 4.47998081,14.2047948 L5.86886198,11.6750401 L0.525309663,11.6750401 C0.232351419,11.6750401 0,11.4375707 0,11.1379843 L0,1.68885251 C0,1.38934356 0.23227566,1.15179664 0.525309663,1.15179664 L8.47995555,1.15179664 L8.47995555,0.537055874 C8.47995555,0.242581338 8.71723128,0 9.00518946,0 C9.29284461,0 9.53049912,0.242581338 9.53049912,0.537055874 L9.53049912,1.15179664 L17.4747661,1.15179664 C17.7628,1.15179664 18,1.38934356 18,1.68885251 Z M16.9494564,10.6010059 L16.9494564,2.22590839 L9.01511383,2.22590839 L9.00518946,2.22590839 L8.98996199,2.22590839 L1.05054357,2.22590839 L1.05054357,10.6010059 L6.74235786,10.6010059 L6.78273716,10.6010059 L11.2172628,10.6010059 L11.2577937,10.6010059 L16.9494564,10.6010059 L16.9494564,10.6010059 Z" id="Shape" fill="url(#linearGradient-3)"></path>
                        <g id="Group-14" transform="translate(2.000000, 3.000000)" fill="url(#linearGradient-4)">
                            <path d="M13.1143781,0.560959317 C13.4027103,0.560959317 13.6323303,0.794222885 13.6323303,1.08850321 L13.6323303,5.58206031 C13.6323303,5.87626456 13.4027103,6.10960421 13.1143781,6.10960421 C12.8303037,6.10960421 12.5964259,5.87634064 12.5964259,5.58206031 L12.5964259,1.08850321 C12.5964259,0.794298965 12.8303037,0.560959317 13.1143781,0.560959317 Z M11.445861,2.42235085 C11.7298607,2.42235085 11.9637385,2.65561442 11.9637385,2.94441693 L11.973972,5.58198423 C11.973972,5.87124323 11.7449496,6.10952812 11.4608752,6.10952812 L11.4560945,6.10952812 C11.1720201,6.10952812 10.9381423,5.87626456 10.9381423,5.58700556 L10.9279088,2.94989474 C10.9279088,2.66063575 11.1569312,2.42235085 11.445861,2.42235085 Z M9.78742796,3.73588493 C10.0763577,3.73588493 10.3053801,3.96922458 10.3053801,4.26342882 L10.3053801,5.58198423 C10.3053801,5.87618848 10.0763577,6.10952812 9.78742796,6.10952812 C9.5039511,6.10952812 9.26947578,5.87626456 9.26947578,5.58198423 L9.26947578,4.26342882 C9.26947578,3.96922458 9.5039511,3.73588493 9.78742796,3.73588493 Z M7.0340049,5.05451642 C7.32241179,5.05451642 7.5515089,5.29280132 7.5515089,5.58206031 C7.5515089,5.87626456 7.32248649,6.10960421 7.0340049,6.10960421 L0.754264156,6.10960421 C0.46540908,6.10960421 0.236311971,5.87634064 0.236311971,5.58206031 C0.236311971,5.29280132 0.465334382,5.05451642 0.754264156,5.05451642 L7.0340049,5.05451642 Z M3.85652436,2.81272116 C4.14537943,2.81272116 4.37447654,3.05092997 4.37447654,3.34026505 C4.37447654,3.63446929 4.14545413,3.86780894 3.85652436,3.86780894 L0.754338854,3.86780894 C0.465483777,3.86780894 0.236386668,3.63454538 0.236386668,3.34026505 C0.236386668,3.05092997 0.46540908,2.81272116 0.754338854,2.81272116 L3.85652436,2.81272116 Z M5.83869615,0.560959317 C6.12755122,0.560959317 6.35664833,0.794222885 6.35664833,1.08850321 C6.35664833,1.37730572 6.12762592,1.61551454 5.83869615,1.61551454 L0.754338854,1.61551454 C0.465483777,1.61551454 0.236386668,1.37730572 0.236386668,1.08850321 C0.236386668,0.794298965 0.46540908,0.560959317 0.754338854,0.560959317 L5.83869615,0.560959317 Z" id="Combined-Shape"></path>
                        </g>
                    </g>
                </g>
                <path d="M9.49800853,44.78 C9.77467994,44.78 10.0070839,44.5586629 10.0070839,44.2819915 L10.0070839,41.9136842 L12.0212518,41.9136842 C14.2567568,41.9136842 14.9761024,40.6299289 14.9761024,39.4568421 C14.9761024,38.2837553 14.2567568,37 12.0212518,37 L9.49800853,37 C9.22133713,37 9,37.232404 9,37.5090754 L9,44.2819915 C9,44.5586629 9.22133713,44.78 9.49800853,44.78 Z M11.9216501,40.9619346 L10.0070839,40.9619346 L10.0070839,37.9517496 L11.9216501,37.9517496 C13.5706117,37.9517496 13.9690185,38.7374964 13.9690185,39.4568421 C13.9690185,40.1761878 13.5706117,40.9619346 11.9216501,40.9619346 Z M16.650216,44.78 C16.9268874,44.78 17.1592913,44.5586629 17.1592913,44.2819915 L17.1592913,41.9136842 L19.1734592,41.9136842 C21.4089642,41.9136842 22.1283098,40.6299289 22.1283098,39.4568421 C22.1283098,38.2837553 21.4089642,37 19.1734592,37 L16.650216,37 C16.3735445,37 16.1522074,37.232404 16.1522074,37.5090754 L16.1522074,44.2819915 C16.1522074,44.5586629 16.3735445,44.78 16.650216,44.78 Z M19.0738575,40.9619346 L17.1592913,40.9619346 L17.1592913,37.9517496 L19.0738575,37.9517496 C20.7228191,37.9517496 21.1212259,38.7374964 21.1212259,39.4568421 C21.1212259,40.1761878 20.7228191,40.9619346 19.0738575,40.9619346 Z M25.606321,44.78 C25.8829924,44.78 26.1153964,44.5586629 26.1153964,44.2819915 L26.1153964,37.9406828 L28.3619682,37.9406828 C28.6275727,37.9406828 28.837843,37.7414794 28.837843,37.4758748 C28.837843,37.2102703 28.6275727,37 28.3619682,37 L22.8506737,37 C22.5850692,37 22.3858658,37.2102703 22.3858658,37.4758748 C22.3858658,37.7414794 22.5850692,37.9406828 22.8506737,37.9406828 L25.1083124,37.9406828 L25.1083124,44.2819915 C25.1083124,44.5586629 25.3296496,44.78 25.606321,44.78 Z" id="PPT" stroke="url(#linearGradient-5)" stroke-width="0.5" fill="url(#linearGradient-5)"></path>
            </g>
        </g>
    </g>
</svg>