<?xml version="1.0" encoding="UTF-8"?>
<svg width="38px" height="49px" viewBox="0 0 38 49" version="1.1" xmlns="http://www.w3.org/2000/svg" xmlns:xlink="http://www.w3.org/1999/xlink">
    <title>Combined Shape</title>
    <defs>
        <linearGradient x1="50%" y1="0%" x2="50%" y2="100%" id="linearGradient-1">
            <stop stop-color="#4F4FC4" offset="0%"></stop>
            <stop stop-color="#2D2E2C" offset="100%"></stop>
        </linearGradient>
    </defs>
    <g id="Assets" stroke="none" stroke-width="1" fill="none" fill-rule="evenodd">
        <g id="Type-Icons" transform="translate(-242.000000, -60.000000)" fill="url(#linearGradient-1)" fill-rule="nonzero">
            <path d="M261.5,60 C261.775002,60 262,60.1894717 262,60.4210512 L262,63 L277.108693,63 C278.703015,63 280,64.2993 280,65.8965846 L280,96.1034154 C280,97.7006471 278.703068,99 277.108693,99 L269.219,99 L275.9123,107.536686 C276.050314,107.712203 276.02231,107.969351 275.850295,108.110198 C275.776288,108.171426 275.688276,108.2 275.600269,108.2 C275.482236,108.2 275.366225,108.146938 275.288213,108.046933 L268.195,99 L261,99 L261,107.791834 C261,108.016327 260.775002,108.2 260.5,108.2 C260.224998,108.2 260,108.016327 260,107.791834 L260,99 L252.804,99 L245.711788,108.046933 C245.633782,108.146938 245.517766,108.2 245.399758,108.2 C245.31172,108.2 245.223713,108.171428 245.149706,108.110198 C244.977687,107.969378 244.949687,107.712224 245.087701,107.536686 L251.78,99 L244.891307,99 C243.296985,99 242,97.7007 242,96.1034154 L242,65.8965846 C242,64.2993529 243.296932,63 244.891307,63 L261,63 L261,60.4210512 C261,60.1894717 261.224998,60 261.5,60 Z M279,69 L243,69 L243,95.9518224 C243,97.0803598 243.9184,98 245.045416,98 L276.954584,98 C278.0816,98 279,97.0803598 279,95.9518224 L279,69 Z M276.954584,64 L245.045416,64 C243.9184,64 243,64.9196402 243,66.0481776 L243,68 L279,68 L279,66.0481776 C279,64.9196402 278.0816,64 276.954584,64 Z" id="Combined-Shape"></path>
        </g>
    </g>
</svg>