<?xml version="1.0" encoding="UTF-8"?>
<svg width="345px" height="390px" viewBox="0 0 345 390" version="1.1" xmlns="http://www.w3.org/2000/svg" xmlns:xlink="http://www.w3.org/1999/xlink">
    <title>D74C5869-09A7-4CDC-8AE4-FA39081C7ABE</title>
    <defs>
        <path d="M5.12058037,0 C2.29097495,0 0,2.29428661 0,5.12354772 L0,5.12354772 C0,7.94921839 2.29097495,10.2399146 5.12058037,10.2399146 L5.12058037,10.2399146 C7.95377666,10.2399146 10.2447516,7.94921839 10.2447516,5.12354772 L10.2447516,5.12354772 C10.2447516,2.29428661 7.95377666,0 5.12058037,0 Z M57.3677363,24.310821 C57.3677363,26.5117564 59.1523986,28.2926111 61.3536018,28.2926111 L61.3536018,28.2926111 C63.5512141,28.2926111 65.3358764,26.5117564 65.3358764,24.310821 L65.3358764,24.310821 C65.3358764,22.1098857 63.5512141,20.329031 61.3536018,20.329031 L61.3536018,20.329031 C59.1523986,20.329031 57.3677363,22.1098857 57.3677363,24.310821 L57.3677363,24.310821 Z M12.3130926,31.6065806 C12.3130926,35.6924932 15.6274655,39.0028723 19.7138753,39.0028723 L19.7138753,39.0028723 C23.8002852,39.0028723 27.1110672,35.6924932 27.1110672,31.6065806 L27.1110672,31.6065806 C27.1110672,27.520668 23.8002852,24.2066985 19.7138753,24.2066985 L19.7138753,24.2066985 C15.6274655,24.2066985 12.3130926,27.520668 12.3130926,31.6065806 L12.3130926,31.6065806 Z M107.729686,40.8842592 C107.729686,42.4568688 109.004444,43.7314724 110.577245,43.7314724 L110.577245,43.7314724 C112.150046,43.7314724 113.421214,42.4568688 113.421214,40.8842592 L113.421214,40.8842592 C113.421214,39.3116496 112.150046,38.0406363 110.577245,38.0406363 L110.577245,38.0406363 C109.004444,38.0406363 107.729686,39.3116496 107.729686,40.8842592 L107.729686,40.8842592 Z M72.5032526,51.0415938 C72.5032526,54.186813 75.0527702,56.7324299 78.1947813,56.7324299 L78.1947813,56.7324299 C81.3367924,56.7324299 83.8863099,54.186813 83.8863099,51.0415938 L83.8863099,51.0415938 C83.8863099,47.9035554 81.3367924,45.3543481 78.1947813,45.3543481 L78.1947813,45.3543481 C75.0527702,45.3543481 72.5032526,47.9035554 72.5032526,51.0415938 L72.5032526,51.0415938 Z M148.28856,55.3501132 C148.28856,56.6067647 149.311958,57.6300381 150.565172,57.6300381 L150.565172,57.6300381 C151.825567,57.6300381 152.848965,56.6067647 152.848965,55.3501132 L152.848965,55.3501132 C152.848965,54.0934617 151.825567,53.0773692 150.565172,53.0773692 L150.565172,53.0773692 C149.311958,53.0773692 148.28856,54.0934617 148.28856,55.3501132 L148.28856,55.3501132 Z M28.0662385,65.9526615 C28.0662385,71.6075933 32.6553702,76.1961665 38.3109901,76.1961665 L38.3109901,76.1961665 C43.9666101,76.1961665 48.5557417,71.6075933 48.5557417,65.9526615 L48.5557417,65.9526615 C48.5557417,60.2941393 43.9666101,55.7091565 38.3109901,55.7091565 L38.3109901,55.7091565 C32.6553702,55.7091565 28.0662385,60.2941393 28.0662385,65.9526615 L28.0662385,65.9526615 Z M123.536695,66.3260665 C123.536695,69.1517372 125.83126,71.4424334 128.660866,71.4424334 L128.660866,71.4424334 C131.48688,71.4424334 133.781446,69.1517372 133.781446,66.3260665 L133.781446,66.3260665 C133.781446,63.493215 131.48688,61.2025188 128.660866,61.2025188 L128.660866,61.2025188 C125.83126,61.2025188 123.536695,63.493215 123.536695,66.3260665 L123.536695,66.3260665 Z M198.923416,72.9683674 C198.923416,74.2250189 199.939632,75.2447018 201.200027,75.2447018 L201.200027,75.2447018 C202.456831,75.2447018 203.476639,74.2250189 203.476639,72.9683674 L203.476639,72.9683674 C203.476639,71.7117159 202.456831,70.6920329 201.200027,70.6920329 L201.200027,70.6920329 C199.939632,70.6920329 198.923416,71.7117159 198.923416,72.9683674 L198.923416,72.9683674 Z M89.6532469,81.8690505 C89.6532469,86.2637403 93.2189806,89.836221 97.6177961,89.836221 L97.6177961,89.836221 C102.020203,89.836221 105.585936,86.2637403 105.585936,81.8690505 L105.585936,81.8690505 C105.585936,77.4707702 102.020203,73.9018799 97.6177961,73.9018799 L97.6177961,73.9018799 C93.2189806,73.9018799 89.6532469,77.4707702 89.6532469,81.8690505 L89.6532469,81.8690505 Z M174.638363,85.4199886 C174.638363,87.9332916 176.677977,89.9726575 179.191586,89.9726575 L179.191586,89.9726575 C181.708786,89.9726575 183.741218,87.9332916 183.741218,85.4199886 L183.741218,85.4199886 C183.741218,82.9030951 181.708786,80.8709101 179.191586,80.8709101 L179.191586,80.8709101 C176.677977,80.8709101 174.638363,82.9030951 174.638363,85.4199886 L174.638363,85.4199886 Z M241.934854,87.9297012 C241.934854,89.1863527 242.94748,90.209626 244.204284,90.209626 L244.204284,90.209626 C245.453907,90.209626 246.473714,89.1863527 246.473714,87.9297012 L246.473714,87.9297012 C246.473714,86.6730497 245.453907,85.6533667 244.204284,85.6533667 L244.204284,85.6533667 C242.94748,85.6533667 241.934854,86.6730497 241.934854,87.9297012 L241.934854,87.9297012 Z M44.6093758,101.576937 C44.6093758,109.116846 50.7210363,115.231353 58.2654538,115.231353 L58.2654538,115.231353 C65.8098712,115.231353 71.9251226,109.116846 71.9251226,101.576937 L71.9251226,101.576937 C71.9251226,94.0334371 65.8098712,87.9189299 58.2654538,87.9189299 L58.2654538,87.9189299 C50.7210363,87.9189299 44.6093758,94.0334371 44.6093758,101.576937 L44.6093758,101.576937 Z M145.046005,100.636243 C145.046005,104.406198 148.105426,107.465246 151.87943,107.465246 L151.87943,107.465246 C155.653434,107.465246 158.705674,104.406198 158.705674,100.636243 L158.705674,100.636243 C158.705674,96.8626982 155.653434,93.8036494 151.87943,93.8036494 L151.87943,93.8036494 C148.105426,93.8036494 145.046005,96.8626982 145.046005,100.636243 L145.046005,100.636243 Z M221.355579,100.873212 C221.355579,103.390105 223.384421,105.429471 225.890848,105.429471 L225.890848,105.429471 C228.397275,105.429471 230.433298,103.390105 230.433298,100.873212 L230.433298,100.873212 C230.433298,98.3599087 228.397275,96.3205428 225.890848,96.3205428 L225.890848,96.3205428 C223.384421,96.3205428 221.355579,98.3599087 221.355579,100.873212 L221.355579,100.873212 Z M286.0056,103.26444 C286.0056,104.521091 287.021816,105.540774 288.275029,105.540774 L288.275029,105.540774 C289.524652,105.540774 290.544459,104.521091 290.544459,103.26444 L290.544459,103.26444 C290.544459,102.004198 289.524652,100.988106 288.275029,100.988106 L288.275029,100.988106 C287.021816,100.988106 286.0056,102.004198 286.0056,103.26444 L286.0056,103.26444 Z M111.604234,118.516599 C111.604234,123.543205 115.679871,127.618346 120.707089,127.618346 L120.707089,127.618346 C125.737898,127.618346 129.813535,123.543205 129.813535,118.516599 L129.813535,118.516599 C129.813535,113.486402 125.737898,109.407671 120.707089,109.407671 L120.707089,109.407671 C115.679871,109.407671 111.604234,113.486402 111.604234,118.516599 L111.604234,118.516599 Z M195.666497,117.392793 C195.666497,121.195062 198.73669,124.272063 202.525058,124.272063 L202.525058,124.272063 C206.313426,124.272063 209.383619,121.195062 209.383619,117.392793 L209.383619,117.392793 C209.383619,113.594115 206.313426,110.513524 202.525058,110.513524 L202.525058,110.513524 C198.73669,110.513524 195.666497,113.594115 195.666497,117.392793 L195.666497,117.392793 Z M314.578151,113.206349 C314.578151,114.463 315.597958,115.479093 316.847581,115.479093 L316.847581,115.479093 C318.104385,115.479093 319.120601,114.463 319.120601,113.206349 L319.120601,113.206349 C319.120601,111.949697 318.104385,110.926424 316.847581,110.926424 L316.847581,110.926424 C315.597958,110.926424 314.578151,111.949697 314.578151,113.206349 L314.578151,113.206349 Z M268.514473,117.453831 C268.514473,119.654766 270.291953,121.435621 272.485975,121.435621 L272.485975,121.435621 C274.679996,121.435621 276.457477,119.654766 276.457477,117.453831 L276.457477,117.453831 C276.457477,115.252895 274.679996,113.472041 272.485975,113.472041 L272.485975,113.472041 C270.291953,113.472041 268.514473,115.252895 268.514473,117.453831 L268.514473,117.453831 Z M340.450368,122.207564 C340.450368,123.464215 341.466584,124.483898 342.723389,124.483898 L342.723389,124.483898 C343.980193,124.483898 345,123.464215 345,122.207564 L345,122.207564 C345,120.950912 343.980193,119.93482 342.723389,119.93482 L342.723389,119.93482 C341.466584,119.93482 340.450368,120.950912 340.450368,122.207564 L340.450368,122.207564 Z M301.169843,128.020475 C301.169843,129.905452 302.695963,131.434976 304.573988,131.434976 L304.573988,131.434976 C306.452012,131.434976 307.974541,129.905452 307.974541,128.020475 L307.974541,128.020475 C307.974541,126.135497 306.452012,124.605973 304.573988,124.605973 L304.573988,124.605973 C302.695963,124.605973 301.169843,126.135497 301.169843,128.020475 L301.169843,128.020475 Z M64.8403364,141.111193 C64.8403364,149.911344 71.9753947,157.045534 80.7766167,157.045534 L80.7766167,157.045534 C89.5742477,157.045534 96.7093061,149.911344 96.7093061,141.111193 L96.7093061,141.111193 C96.7093061,132.311042 89.5742477,125.176852 80.7766167,125.176852 L80.7766167,125.176852 C71.9753947,125.176852 64.8403364,132.311042 64.8403364,141.111193 L64.8403364,141.111193 Z M165.596553,134.684318 C165.596553,139.710924 169.661417,143.789656 174.674272,143.789656 L174.674272,143.789656 C179.690717,143.789656 183.7484,139.710924 183.7484,134.684318 L183.7484,134.684318 C183.7484,129.657712 179.690717,125.582571 174.674272,125.582571 L174.674272,125.582571 C169.661417,125.582571 165.596553,129.657712 165.596553,134.684318 L165.596553,134.684318 Z M246.182853,134.684318 C246.182853,138.454273 249.231502,141.513321 252.994733,141.513321 L252.994733,141.513321 C256.750783,141.513321 259.799432,138.454273 259.799432,134.684318 L259.799432,134.684318 C259.799432,130.914364 256.750783,127.855315 252.994733,127.855315 L252.994733,127.855315 C249.231502,127.855315 246.182853,130.914364 246.182853,134.684318 L246.182853,134.684318 Z M330.108663,136.558524 C330.108663,138.443501 331.638373,139.973026 333.527171,139.973026 L333.527171,139.973026 C335.412378,139.973026 336.942088,138.443501 336.942088,136.558524 L336.942088,136.558524 C336.942088,134.673547 335.412378,133.144022 333.527171,133.144022 L333.527171,133.144022 C331.638373,133.144022 330.108663,134.673547 330.108663,136.558524 L330.108663,136.558524 Z M283.40581,144.044577 C283.40581,147.189796 285.940964,149.735413 289.075793,149.735413 L289.075793,149.735413 C292.207032,149.735413 294.752959,147.189796 294.752959,144.044577 L294.752959,144.044577 C294.752959,140.906538 292.207032,138.35374 289.075793,138.35374 L289.075793,138.35374 C285.940964,138.35374 283.40581,140.906538 283.40581,144.044577 L283.40581,144.044577 Z M133.167407,156.948592 C133.167407,163.443685 138.431623,168.70726 144.931097,168.70726 L144.931097,168.70726 C151.42339,168.70726 156.687605,163.443685 156.687605,156.948592 L156.687605,156.948592 C156.687605,150.45709 151.42339,145.193515 144.931097,145.193515 L144.931097,145.193515 C138.431623,145.193515 133.167407,150.45709 133.167407,156.948592 L133.167407,156.948592 Z M220.091593,155.720664 C220.091593,160.761632 224.170821,164.851135 229.198039,164.851135 L229.198039,164.851135 C234.225257,164.851135 238.300894,160.761632 238.300894,155.720664 L238.300894,155.720664 C238.300894,150.676106 234.225257,146.586603 229.198039,146.586603 L229.198039,146.586603 C224.170821,146.586603 220.091593,150.676106 220.091593,155.720664 L220.091593,155.720664 Z M318.646606,154.661487 C318.646606,157.368673 320.837037,159.558837 323.548144,159.558837 L323.548144,159.558837 C326.252069,159.558837 328.442499,157.368673 328.442499,154.661487 L328.442499,154.661487 C328.442499,151.957891 326.252069,149.760546 323.548144,149.760546 L323.548144,149.760546 C320.837037,149.760546 318.646606,151.957891 318.646606,154.661487 L318.646606,154.661487 Z M266.015227,164.944486 C266.015227,169.353538 269.580961,172.9332 273.979777,172.9332 L273.979777,172.9332 C278.382183,172.9332 281.951508,169.353538 281.951508,164.944486 L281.951508,164.944486 C281.951508,160.528254 278.382183,156.948592 273.979777,156.948592 L273.979777,156.948592 C269.580961,156.948592 266.015227,160.528254 266.015227,164.944486 L266.015227,164.944486 Z M192.373669,178.207545 C192.373669,184.494393 197.469113,189.589218 203.756726,189.589218 L203.756726,189.589218 C210.040749,189.589218 215.139784,184.494393 215.139784,178.207545 L215.139784,178.207545 C215.139784,171.924288 210.040749,166.825873 203.756726,166.825873 L203.756726,166.825873 C197.469113,166.825873 192.373669,171.924288 192.373669,178.207545 L192.373669,178.207545 Z M86.1018766,186.185487 C86.1018766,196.554657 94.5081029,204.963451 104.882126,204.963451 L104.882126,204.963451 C115.256149,204.963451 123.665966,196.554657 123.665966,186.185487 L123.665966,186.185487 C123.665966,175.812727 115.256149,167.407523 104.882126,167.407523 L104.882126,167.407523 C94.5081029,167.407523 86.1018766,175.812727 86.1018766,186.185487 L86.1018766,186.185487 Z M304.573988,175.209534 C304.573988,178.979489 307.633409,182.038537 311.400231,182.038537 L311.400231,182.038537 C315.177826,182.038537 318.233656,178.979489 318.233656,175.209534 L318.233656,175.209534 C318.233656,171.439579 315.177826,168.380531 311.400231,168.380531 L311.400231,168.380531 C307.633409,168.380531 304.573988,171.439579 304.573988,175.209534 L304.573988,175.209534 Z M244.060649,186.601977 C244.060649,192.01635 248.448692,196.403859 253.863724,196.403859 L253.863724,196.403859 C259.271574,196.403859 263.663208,192.01635 263.663208,186.601977 L263.663208,186.601977 C263.663208,181.194786 259.271574,176.807277 253.863724,176.807277 L253.863724,176.807277 C248.448692,176.807277 244.060649,181.194786 244.060649,186.601977 L244.060649,186.601977 Z M289.075793,196.403859 C289.075793,201.814642 293.463836,206.202151 298.875277,206.202151 L298.875277,206.202151 C304.290309,206.202151 308.678352,201.814642 308.678352,196.403859 L308.678352,196.403859 C308.678352,190.993077 304.290309,186.601977 298.875277,186.601977 L298.875277,186.601977 C293.463836,186.601977 289.075793,190.993077 289.075793,196.403859 L289.075793,196.403859 Z M158.486631,203.821694 C158.486631,211.993519 165.111785,218.621458 173.284605,218.621458 L173.284605,218.621458 C181.457425,218.621458 188.078989,211.993519 188.078989,203.821694 L188.078989,203.821694 C188.078989,195.649868 181.457425,189.02552 173.284605,189.02552 L173.284605,189.02552 C165.111785,189.02552 158.486631,195.649868 158.486631,203.821694 L158.486631,203.821694 Z M215.804095,217.540738 C215.804095,224.994476 221.915755,231.037175 229.463763,231.037175 L229.463763,231.037175 C237.00459,231.037175 243.123432,224.994476 243.123432,217.540738 L243.123432,217.540738 C243.123432,210.086999 237.00459,204.0443 229.463763,204.0443 L229.463763,204.0443 C221.915755,204.0443 215.804095,210.086999 215.804095,217.540738 L215.804095,217.540738 Z M268.036887,227.403657 C268.036887,234.31524 273.642235,239.919906 280.55825,239.919906 L280.55825,239.919906 C287.474265,239.919906 293.079613,234.31524 293.079613,227.403657 L293.079613,227.403657 C293.079613,220.488483 287.474265,214.880227 280.55825,214.880227 L280.55825,214.880227 C273.642235,214.880227 268.036887,220.488483 268.036887,227.403657 L268.036887,227.403657 Z M112.458861,239.097697 C112.458861,251.039476 122.143437,260.722874 134.083079,260.722874 L134.083079,260.722874 C146.029903,260.722874 155.710888,251.039476 155.710888,239.097697 L155.710888,239.097697 C155.710888,227.155917 146.029903,217.47611 134.083079,217.47611 L134.083079,217.47611 C122.143437,217.47611 112.458861,227.155917 112.458861,239.097697 L112.458861,239.097697 Z M183.737627,251.879638 C183.737627,261.93644 191.888902,270.090313 201.946928,270.090313 L201.946928,270.090313 C212.004954,270.090313 220.15982,261.93644 220.15982,251.879638 L220.15982,251.879638 C220.15982,241.822835 212.004954,233.672553 201.946928,233.672553 L201.946928,233.672553 C191.888902,233.672553 183.737627,241.822835 183.737627,251.879638 L183.737627,251.879638 Z M244.204284,262.385244 C244.204284,271.188986 251.224435,278.319585 259.882022,278.319585 L259.882022,278.319585 C268.5432,278.319585 275.56335,271.188986 275.56335,262.385244 L275.56335,262.385244 C275.56335,253.588684 268.5432,246.450903 259.882022,246.450903 L259.882022,246.450903 C251.224435,246.450903 244.204284,253.588684 244.204284,262.385244 L244.204284,262.385244 Z M140.345556,296.006058 C140.345556,309.832815 151.556252,321.042146 165.388282,321.042146 L165.388282,321.042146 C179.216722,321.042146 190.427418,309.832815 190.427418,296.006058 L190.427418,296.006058 C190.427418,282.17571 179.216722,270.966379 165.388282,270.966379 L165.388282,270.966379 C151.556252,270.966379 140.345556,282.17571 140.345556,296.006058 L140.345556,296.006058 Z M216.547405,303.441844 C216.547405,314.532691 225.542534,323.530316 236.638321,323.530316 L236.638321,323.530316 C247.7377,323.530316 256.732829,314.532691 256.732829,303.441844 L256.732829,303.441844 C256.732829,292.343816 247.7377,283.349782 236.638321,283.349782 L236.638321,283.349782 C225.542534,283.349782 216.547405,292.343816 216.547405,303.441844 L216.547405,303.441844 Z M171.327581,360.605126 C171.327581,376.837473 184.488119,390 200.726032,390 L200.726032,390 C216.963946,390 230.124483,376.837473 230.124483,360.605126 L230.124483,360.605126 C230.124483,344.369189 216.963946,331.206662 200.726032,331.206662 L200.726032,331.206662 C184.488119,331.206662 171.327581,344.369189 171.327581,360.605126 L171.327581,360.605126 Z" id="path-1"></path>
        <linearGradient x1="50.0001805%" y1="100%" x2="50.0001805%" y2="1.25204839e-05%" id="linearGradient-3">
            <stop stop-color="#4F4FC3" offset="0%"></stop>
            <stop stop-color="#DB01C1" offset="100%"></stop>
        </linearGradient>
    </defs>
    <g id="Search" stroke="none" stroke-width="1" fill="none" fill-rule="evenodd" opacity="0.0508510045">
        <g id="Main-Page" transform="translate(56.000000, -615.000000)">
            <g id="Group-2" transform="translate(-56.000000, -7.000000)">
                <g id="Group-3" transform="translate(0.000000, 622.000000)">
                    <mask id="mask-2" fill="white">
                        <use xlink:href="#path-1"></use>
                    </mask>
                    <g id="Clip-2"></g>
                    <path d="M5.12058037,0 C2.29097495,0 0,2.29428661 0,5.12354772 L0,5.12354772 C0,7.94921839 2.29097495,10.2399146 5.12058037,10.2399146 L5.12058037,10.2399146 C7.95377666,10.2399146 10.2447516,7.94921839 10.2447516,5.12354772 L10.2447516,5.12354772 C10.2447516,2.29428661 7.95377666,0 5.12058037,0 Z M57.3677363,24.310821 C57.3677363,26.5117564 59.1523986,28.2926111 61.3536018,28.2926111 L61.3536018,28.2926111 C63.5512141,28.2926111 65.3358764,26.5117564 65.3358764,24.310821 L65.3358764,24.310821 C65.3358764,22.1098857 63.5512141,20.329031 61.3536018,20.329031 L61.3536018,20.329031 C59.1523986,20.329031 57.3677363,22.1098857 57.3677363,24.310821 L57.3677363,24.310821 Z M12.3130926,31.6065806 C12.3130926,35.6924932 15.6274655,39.0028723 19.7138753,39.0028723 L19.7138753,39.0028723 C23.8002852,39.0028723 27.1110672,35.6924932 27.1110672,31.6065806 L27.1110672,31.6065806 C27.1110672,27.520668 23.8002852,24.2066985 19.7138753,24.2066985 L19.7138753,24.2066985 C15.6274655,24.2066985 12.3130926,27.520668 12.3130926,31.6065806 L12.3130926,31.6065806 Z M107.729686,40.8842592 C107.729686,42.4568688 109.004444,43.7314724 110.577245,43.7314724 L110.577245,43.7314724 C112.150046,43.7314724 113.421214,42.4568688 113.421214,40.8842592 L113.421214,40.8842592 C113.421214,39.3116496 112.150046,38.0406363 110.577245,38.0406363 L110.577245,38.0406363 C109.004444,38.0406363 107.729686,39.3116496 107.729686,40.8842592 L107.729686,40.8842592 Z M72.5032526,51.0415938 C72.5032526,54.186813 75.0527702,56.7324299 78.1947813,56.7324299 L78.1947813,56.7324299 C81.3367924,56.7324299 83.8863099,54.186813 83.8863099,51.0415938 L83.8863099,51.0415938 C83.8863099,47.9035554 81.3367924,45.3543481 78.1947813,45.3543481 L78.1947813,45.3543481 C75.0527702,45.3543481 72.5032526,47.9035554 72.5032526,51.0415938 L72.5032526,51.0415938 Z M148.28856,55.3501132 C148.28856,56.6067647 149.311958,57.6300381 150.565172,57.6300381 L150.565172,57.6300381 C151.825567,57.6300381 152.848965,56.6067647 152.848965,55.3501132 L152.848965,55.3501132 C152.848965,54.0934617 151.825567,53.0773692 150.565172,53.0773692 L150.565172,53.0773692 C149.311958,53.0773692 148.28856,54.0934617 148.28856,55.3501132 L148.28856,55.3501132 Z M28.0662385,65.9526615 C28.0662385,71.6075933 32.6553702,76.1961665 38.3109901,76.1961665 L38.3109901,76.1961665 C43.9666101,76.1961665 48.5557417,71.6075933 48.5557417,65.9526615 L48.5557417,65.9526615 C48.5557417,60.2941393 43.9666101,55.7091565 38.3109901,55.7091565 L38.3109901,55.7091565 C32.6553702,55.7091565 28.0662385,60.2941393 28.0662385,65.9526615 L28.0662385,65.9526615 Z M123.536695,66.3260665 C123.536695,69.1517372 125.83126,71.4424334 128.660866,71.4424334 L128.660866,71.4424334 C131.48688,71.4424334 133.781446,69.1517372 133.781446,66.3260665 L133.781446,66.3260665 C133.781446,63.493215 131.48688,61.2025188 128.660866,61.2025188 L128.660866,61.2025188 C125.83126,61.2025188 123.536695,63.493215 123.536695,66.3260665 L123.536695,66.3260665 Z M198.923416,72.9683674 C198.923416,74.2250189 199.939632,75.2447018 201.200027,75.2447018 L201.200027,75.2447018 C202.456831,75.2447018 203.476639,74.2250189 203.476639,72.9683674 L203.476639,72.9683674 C203.476639,71.7117159 202.456831,70.6920329 201.200027,70.6920329 L201.200027,70.6920329 C199.939632,70.6920329 198.923416,71.7117159 198.923416,72.9683674 L198.923416,72.9683674 Z M89.6532469,81.8690505 C89.6532469,86.2637403 93.2189806,89.836221 97.6177961,89.836221 L97.6177961,89.836221 C102.020203,89.836221 105.585936,86.2637403 105.585936,81.8690505 L105.585936,81.8690505 C105.585936,77.4707702 102.020203,73.9018799 97.6177961,73.9018799 L97.6177961,73.9018799 C93.2189806,73.9018799 89.6532469,77.4707702 89.6532469,81.8690505 L89.6532469,81.8690505 Z M174.638363,85.4199886 C174.638363,87.9332916 176.677977,89.9726575 179.191586,89.9726575 L179.191586,89.9726575 C181.708786,89.9726575 183.741218,87.9332916 183.741218,85.4199886 L183.741218,85.4199886 C183.741218,82.9030951 181.708786,80.8709101 179.191586,80.8709101 L179.191586,80.8709101 C176.677977,80.8709101 174.638363,82.9030951 174.638363,85.4199886 L174.638363,85.4199886 Z M241.934854,87.9297012 C241.934854,89.1863527 242.94748,90.209626 244.204284,90.209626 L244.204284,90.209626 C245.453907,90.209626 246.473714,89.1863527 246.473714,87.9297012 L246.473714,87.9297012 C246.473714,86.6730497 245.453907,85.6533667 244.204284,85.6533667 L244.204284,85.6533667 C242.94748,85.6533667 241.934854,86.6730497 241.934854,87.9297012 L241.934854,87.9297012 Z M44.6093758,101.576937 C44.6093758,109.116846 50.7210363,115.231353 58.2654538,115.231353 L58.2654538,115.231353 C65.8098712,115.231353 71.9251226,109.116846 71.9251226,101.576937 L71.9251226,101.576937 C71.9251226,94.0334371 65.8098712,87.9189299 58.2654538,87.9189299 L58.2654538,87.9189299 C50.7210363,87.9189299 44.6093758,94.0334371 44.6093758,101.576937 L44.6093758,101.576937 Z M145.046005,100.636243 C145.046005,104.406198 148.105426,107.465246 151.87943,107.465246 L151.87943,107.465246 C155.653434,107.465246 158.705674,104.406198 158.705674,100.636243 L158.705674,100.636243 C158.705674,96.8626982 155.653434,93.8036494 151.87943,93.8036494 L151.87943,93.8036494 C148.105426,93.8036494 145.046005,96.8626982 145.046005,100.636243 L145.046005,100.636243 Z M221.355579,100.873212 C221.355579,103.390105 223.384421,105.429471 225.890848,105.429471 L225.890848,105.429471 C228.397275,105.429471 230.433298,103.390105 230.433298,100.873212 L230.433298,100.873212 C230.433298,98.3599087 228.397275,96.3205428 225.890848,96.3205428 L225.890848,96.3205428 C223.384421,96.3205428 221.355579,98.3599087 221.355579,100.873212 L221.355579,100.873212 Z M286.0056,103.26444 C286.0056,104.521091 287.021816,105.540774 288.275029,105.540774 L288.275029,105.540774 C289.524652,105.540774 290.544459,104.521091 290.544459,103.26444 L290.544459,103.26444 C290.544459,102.004198 289.524652,100.988106 288.275029,100.988106 L288.275029,100.988106 C287.021816,100.988106 286.0056,102.004198 286.0056,103.26444 L286.0056,103.26444 Z M111.604234,118.516599 C111.604234,123.543205 115.679871,127.618346 120.707089,127.618346 L120.707089,127.618346 C125.737898,127.618346 129.813535,123.543205 129.813535,118.516599 L129.813535,118.516599 C129.813535,113.486402 125.737898,109.407671 120.707089,109.407671 L120.707089,109.407671 C115.679871,109.407671 111.604234,113.486402 111.604234,118.516599 L111.604234,118.516599 Z M195.666497,117.392793 C195.666497,121.195062 198.73669,124.272063 202.525058,124.272063 L202.525058,124.272063 C206.313426,124.272063 209.383619,121.195062 209.383619,117.392793 L209.383619,117.392793 C209.383619,113.594115 206.313426,110.513524 202.525058,110.513524 L202.525058,110.513524 C198.73669,110.513524 195.666497,113.594115 195.666497,117.392793 L195.666497,117.392793 Z M314.578151,113.206349 C314.578151,114.463 315.597958,115.479093 316.847581,115.479093 L316.847581,115.479093 C318.104385,115.479093 319.120601,114.463 319.120601,113.206349 L319.120601,113.206349 C319.120601,111.949697 318.104385,110.926424 316.847581,110.926424 L316.847581,110.926424 C315.597958,110.926424 314.578151,111.949697 314.578151,113.206349 L314.578151,113.206349 Z M268.514473,117.453831 C268.514473,119.654766 270.291953,121.435621 272.485975,121.435621 L272.485975,121.435621 C274.679996,121.435621 276.457477,119.654766 276.457477,117.453831 L276.457477,117.453831 C276.457477,115.252895 274.679996,113.472041 272.485975,113.472041 L272.485975,113.472041 C270.291953,113.472041 268.514473,115.252895 268.514473,117.453831 L268.514473,117.453831 Z M340.450368,122.207564 C340.450368,123.464215 341.466584,124.483898 342.723389,124.483898 L342.723389,124.483898 C343.980193,124.483898 345,123.464215 345,122.207564 L345,122.207564 C345,120.950912 343.980193,119.93482 342.723389,119.93482 L342.723389,119.93482 C341.466584,119.93482 340.450368,120.950912 340.450368,122.207564 L340.450368,122.207564 Z M301.169843,128.020475 C301.169843,129.905452 302.695963,131.434976 304.573988,131.434976 L304.573988,131.434976 C306.452012,131.434976 307.974541,129.905452 307.974541,128.020475 L307.974541,128.020475 C307.974541,126.135497 306.452012,124.605973 304.573988,124.605973 L304.573988,124.605973 C302.695963,124.605973 301.169843,126.135497 301.169843,128.020475 L301.169843,128.020475 Z M64.8403364,141.111193 C64.8403364,149.911344 71.9753947,157.045534 80.7766167,157.045534 L80.7766167,157.045534 C89.5742477,157.045534 96.7093061,149.911344 96.7093061,141.111193 L96.7093061,141.111193 C96.7093061,132.311042 89.5742477,125.176852 80.7766167,125.176852 L80.7766167,125.176852 C71.9753947,125.176852 64.8403364,132.311042 64.8403364,141.111193 L64.8403364,141.111193 Z M165.596553,134.684318 C165.596553,139.710924 169.661417,143.789656 174.674272,143.789656 L174.674272,143.789656 C179.690717,143.789656 183.7484,139.710924 183.7484,134.684318 L183.7484,134.684318 C183.7484,129.657712 179.690717,125.582571 174.674272,125.582571 L174.674272,125.582571 C169.661417,125.582571 165.596553,129.657712 165.596553,134.684318 L165.596553,134.684318 Z M246.182853,134.684318 C246.182853,138.454273 249.231502,141.513321 252.994733,141.513321 L252.994733,141.513321 C256.750783,141.513321 259.799432,138.454273 259.799432,134.684318 L259.799432,134.684318 C259.799432,130.914364 256.750783,127.855315 252.994733,127.855315 L252.994733,127.855315 C249.231502,127.855315 246.182853,130.914364 246.182853,134.684318 L246.182853,134.684318 Z M330.108663,136.558524 C330.108663,138.443501 331.638373,139.973026 333.527171,139.973026 L333.527171,139.973026 C335.412378,139.973026 336.942088,138.443501 336.942088,136.558524 L336.942088,136.558524 C336.942088,134.673547 335.412378,133.144022 333.527171,133.144022 L333.527171,133.144022 C331.638373,133.144022 330.108663,134.673547 330.108663,136.558524 L330.108663,136.558524 Z M283.40581,144.044577 C283.40581,147.189796 285.940964,149.735413 289.075793,149.735413 L289.075793,149.735413 C292.207032,149.735413 294.752959,147.189796 294.752959,144.044577 L294.752959,144.044577 C294.752959,140.906538 292.207032,138.35374 289.075793,138.35374 L289.075793,138.35374 C285.940964,138.35374 283.40581,140.906538 283.40581,144.044577 L283.40581,144.044577 Z M133.167407,156.948592 C133.167407,163.443685 138.431623,168.70726 144.931097,168.70726 L144.931097,168.70726 C151.42339,168.70726 156.687605,163.443685 156.687605,156.948592 L156.687605,156.948592 C156.687605,150.45709 151.42339,145.193515 144.931097,145.193515 L144.931097,145.193515 C138.431623,145.193515 133.167407,150.45709 133.167407,156.948592 L133.167407,156.948592 Z M220.091593,155.720664 C220.091593,160.761632 224.170821,164.851135 229.198039,164.851135 L229.198039,164.851135 C234.225257,164.851135 238.300894,160.761632 238.300894,155.720664 L238.300894,155.720664 C238.300894,150.676106 234.225257,146.586603 229.198039,146.586603 L229.198039,146.586603 C224.170821,146.586603 220.091593,150.676106 220.091593,155.720664 L220.091593,155.720664 Z M318.646606,154.661487 C318.646606,157.368673 320.837037,159.558837 323.548144,159.558837 L323.548144,159.558837 C326.252069,159.558837 328.442499,157.368673 328.442499,154.661487 L328.442499,154.661487 C328.442499,151.957891 326.252069,149.760546 323.548144,149.760546 L323.548144,149.760546 C320.837037,149.760546 318.646606,151.957891 318.646606,154.661487 L318.646606,154.661487 Z M266.015227,164.944486 C266.015227,169.353538 269.580961,172.9332 273.979777,172.9332 L273.979777,172.9332 C278.382183,172.9332 281.951508,169.353538 281.951508,164.944486 L281.951508,164.944486 C281.951508,160.528254 278.382183,156.948592 273.979777,156.948592 L273.979777,156.948592 C269.580961,156.948592 266.015227,160.528254 266.015227,164.944486 L266.015227,164.944486 Z M192.373669,178.207545 C192.373669,184.494393 197.469113,189.589218 203.756726,189.589218 L203.756726,189.589218 C210.040749,189.589218 215.139784,184.494393 215.139784,178.207545 L215.139784,178.207545 C215.139784,171.924288 210.040749,166.825873 203.756726,166.825873 L203.756726,166.825873 C197.469113,166.825873 192.373669,171.924288 192.373669,178.207545 L192.373669,178.207545 Z M86.1018766,186.185487 C86.1018766,196.554657 94.5081029,204.963451 104.882126,204.963451 L104.882126,204.963451 C115.256149,204.963451 123.665966,196.554657 123.665966,186.185487 L123.665966,186.185487 C123.665966,175.812727 115.256149,167.407523 104.882126,167.407523 L104.882126,167.407523 C94.5081029,167.407523 86.1018766,175.812727 86.1018766,186.185487 L86.1018766,186.185487 Z M304.573988,175.209534 C304.573988,178.979489 307.633409,182.038537 311.400231,182.038537 L311.400231,182.038537 C315.177826,182.038537 318.233656,178.979489 318.233656,175.209534 L318.233656,175.209534 C318.233656,171.439579 315.177826,168.380531 311.400231,168.380531 L311.400231,168.380531 C307.633409,168.380531 304.573988,171.439579 304.573988,175.209534 L304.573988,175.209534 Z M244.060649,186.601977 C244.060649,192.01635 248.448692,196.403859 253.863724,196.403859 L253.863724,196.403859 C259.271574,196.403859 263.663208,192.01635 263.663208,186.601977 L263.663208,186.601977 C263.663208,181.194786 259.271574,176.807277 253.863724,176.807277 L253.863724,176.807277 C248.448692,176.807277 244.060649,181.194786 244.060649,186.601977 L244.060649,186.601977 Z M289.075793,196.403859 C289.075793,201.814642 293.463836,206.202151 298.875277,206.202151 L298.875277,206.202151 C304.290309,206.202151 308.678352,201.814642 308.678352,196.403859 L308.678352,196.403859 C308.678352,190.993077 304.290309,186.601977 298.875277,186.601977 L298.875277,186.601977 C293.463836,186.601977 289.075793,190.993077 289.075793,196.403859 L289.075793,196.403859 Z M158.486631,203.821694 C158.486631,211.993519 165.111785,218.621458 173.284605,218.621458 L173.284605,218.621458 C181.457425,218.621458 188.078989,211.993519 188.078989,203.821694 L188.078989,203.821694 C188.078989,195.649868 181.457425,189.02552 173.284605,189.02552 L173.284605,189.02552 C165.111785,189.02552 158.486631,195.649868 158.486631,203.821694 L158.486631,203.821694 Z M215.804095,217.540738 C215.804095,224.994476 221.915755,231.037175 229.463763,231.037175 L229.463763,231.037175 C237.00459,231.037175 243.123432,224.994476 243.123432,217.540738 L243.123432,217.540738 C243.123432,210.086999 237.00459,204.0443 229.463763,204.0443 L229.463763,204.0443 C221.915755,204.0443 215.804095,210.086999 215.804095,217.540738 L215.804095,217.540738 Z M268.036887,227.403657 C268.036887,234.31524 273.642235,239.919906 280.55825,239.919906 L280.55825,239.919906 C287.474265,239.919906 293.079613,234.31524 293.079613,227.403657 L293.079613,227.403657 C293.079613,220.488483 287.474265,214.880227 280.55825,214.880227 L280.55825,214.880227 C273.642235,214.880227 268.036887,220.488483 268.036887,227.403657 L268.036887,227.403657 Z M112.458861,239.097697 C112.458861,251.039476 122.143437,260.722874 134.083079,260.722874 L134.083079,260.722874 C146.029903,260.722874 155.710888,251.039476 155.710888,239.097697 L155.710888,239.097697 C155.710888,227.155917 146.029903,217.47611 134.083079,217.47611 L134.083079,217.47611 C122.143437,217.47611 112.458861,227.155917 112.458861,239.097697 L112.458861,239.097697 Z M183.737627,251.879638 C183.737627,261.93644 191.888902,270.090313 201.946928,270.090313 L201.946928,270.090313 C212.004954,270.090313 220.15982,261.93644 220.15982,251.879638 L220.15982,251.879638 C220.15982,241.822835 212.004954,233.672553 201.946928,233.672553 L201.946928,233.672553 C191.888902,233.672553 183.737627,241.822835 183.737627,251.879638 L183.737627,251.879638 Z M244.204284,262.385244 C244.204284,271.188986 251.224435,278.319585 259.882022,278.319585 L259.882022,278.319585 C268.5432,278.319585 275.56335,271.188986 275.56335,262.385244 L275.56335,262.385244 C275.56335,253.588684 268.5432,246.450903 259.882022,246.450903 L259.882022,246.450903 C251.224435,246.450903 244.204284,253.588684 244.204284,262.385244 L244.204284,262.385244 Z M140.345556,296.006058 C140.345556,309.832815 151.556252,321.042146 165.388282,321.042146 L165.388282,321.042146 C179.216722,321.042146 190.427418,309.832815 190.427418,296.006058 L190.427418,296.006058 C190.427418,282.17571 179.216722,270.966379 165.388282,270.966379 L165.388282,270.966379 C151.556252,270.966379 140.345556,282.17571 140.345556,296.006058 L140.345556,296.006058 Z M216.547405,303.441844 C216.547405,314.532691 225.542534,323.530316 236.638321,323.530316 L236.638321,323.530316 C247.7377,323.530316 256.732829,314.532691 256.732829,303.441844 L256.732829,303.441844 C256.732829,292.343816 247.7377,283.349782 236.638321,283.349782 L236.638321,283.349782 C225.542534,283.349782 216.547405,292.343816 216.547405,303.441844 L216.547405,303.441844 Z M171.327581,360.605126 C171.327581,376.837473 184.488119,390 200.726032,390 L200.726032,390 C216.963946,390 230.124483,376.837473 230.124483,360.605126 L230.124483,360.605126 C230.124483,344.369189 216.963946,331.206662 200.726032,331.206662 L200.726032,331.206662 C184.488119,331.206662 171.327581,344.369189 171.327581,360.605126 L171.327581,360.605126 Z" id="Fill-1" fill="url(#linearGradient-3)" mask="url(#mask-2)"></path>
                </g>
            </g>
        </g>
    </g>
</svg>