<?xml version="1.0" encoding="UTF-8"?>
<svg width="55px" height="55px" viewBox="0 0 55 55" version="1.1" xmlns="http://www.w3.org/2000/svg" xmlns:xlink="http://www.w3.org/1999/xlink">
    <title>mondaycom-icon</title>
    <g id="Page-1" stroke="none" stroke-width="1" fill="none" fill-rule="evenodd">
        <g id="mondaycom-icon" transform="translate(0.500000, 12.000000)">
            <path d="M6.57089954,32 C4.17947683,31.9957966 1.97862589,30.6994549 0.82170348,28.6137068 C-0.33521893,26.5279587 -0.266073422,23.9798319 1.00131315,21.9588168 L12.8420599,3.0786348 C14.0816196,1.09208791 16.3060812,-0.0798318325 18.655342,0.00423701584 C21.0046028,0.0883058642 23.1304056,1.41659367 24.2325175,3.48636871 C25.3346295,5.55614376 25.244403,8.05635131 23.9964109,10.0437389 L12.1522912,28.9213988 C10.9489908,30.8381685 8.83836627,32.0016814 6.5700563,31.9983186 L6.57089954,32 Z" id="Path" fill="#FF3D57"></path>
            <path d="M26.5440782,32 C24.1649103,32 21.9735274,30.7146928 20.8199914,28.6431781 C19.6664555,26.5716634 19.7343598,24.0394413 20.9960398,22.0313573 L32.7761903,3.28757162 C33.9666126,1.20103389 36.2049418,-0.0525579813 38.6067445,0.00169199967 C41.0085472,0.0559419806 43.1881936,1.41636458 44.2822084,3.54546768 C45.3762233,5.67457078 45.2102348,8.23016219 43.8487941,10.201523 L32.0912784,28.9436395 C30.8949878,30.8465619 28.796659,32.0016692 26.5415632,31.9983308 L26.5440782,32 Z" id="Path" fill="#FFCB00"></path>
            <path d="M41,25.5 C41,21.9002625 43.8994242,19 47.5,19 C51.1005758,19 54,21.8985564 54,25.5 C54,29.1014436 51.1005758,32 47.5,32 C43.8994242,32 41,29.1014436 41,25.5 L41,25.5 Z" id="Path" fill="#00D647"></path>
        </g>
    </g>
</svg>