<?xml version="1.0" encoding="UTF-8"?>
<svg width="40px" height="40px" viewBox="0 0 40 40" version="1.1" xmlns="http://www.w3.org/2000/svg" xmlns:xlink="http://www.w3.org/1999/xlink">
    <title>onedrive.8bec9e8f</title>
    <g id="Page-1" stroke="none" stroke-width="1" fill="none" fill-rule="evenodd">
        <g id="onedrive.8bec9e8f" transform="translate(0.000000, 8.000000)" fill="#1565C0" fill-rule="nonzero">
            <path d="M36.429,23.999 C36.429,23.999 39.319,23.606 39.899,20.814 C39.964,20.502 40,20.161 40,19.787 C40,19.554 39.985,19.333 39.956,19.122 C39.528,15.964 36.104,15.254 36.104,15.254 C36.104,15.254 36.699,11.853 33.561,10.071 C30.423,8.291 27.556,10.071 27.556,10.071 C27.556,10.071 25.878,6.67 21.334,6.67 C15.491,6.67 14.517,13.31 14.517,13.31 C14.517,13.31 9,13.636 9,18.493 C9,23.352 14.031,24 14.031,24 L36.429,23.999 Z" id="Path"></path>
            <path d="M7,18.493 C7,14.098 10.286,12.174 12.875,11.548 C13.773,8.594 16.259,4.67 21.335,4.67 L21.352,4.671 L21.372,4.67 C24.894,4.67 27.082,6.316 28.264,7.623 C29.0259905,7.39740615 29.8163186,7.28190442 30.611,7.28 L30.622,7.281 L30.632,7.281 C30.652,7.281 30.671,7.285 30.691,7.285 C30.729,7 30.063,0 22.013,0 C16.51,0 14.567,4.691 14.567,4.691 C14.567,4.691 10.575,1.726 6.475,5.824 C4.37,7.928 4.856,11.162 4.856,11.162 C4.856,11.162 0,11.648 0,16.825 C0.001,21.515 5.018,22 5.018,22 L7.825,22 C7.32,21.041 7,19.886 7,18.493 Z" id="Path"></path>
        </g>
    </g>
</svg>