<?xml version="1.0" encoding="UTF-8"?><svg xmlns="http://www.w3.org/2000/svg" xmlns:xlink="http://www.w3.org/1999/xlink" version="1.1" id="Layer_1" x="0px" y="0px" viewBox="0 0 48 48" xml:space="preserve"><path d="M40.429 35.999s2.89-.393 3.47-3.185c.065-.312.101-.653.101-1.027 0-.233-.015-.454-.044-.665-.428-3.158-3.852-3.868-3.852-3.868s.595-3.401-2.543-5.183c-3.138-1.78-6.005 0-6.005 0s-1.678-3.401-6.222-3.401c-5.843 0-6.817 6.64-6.817 6.64S13 25.636 13 30.493C13 35.352 18.031 36 18.031 36l22.398-.001z" fill="#1565C0"/><path d="M11 30.493c0-4.395 3.286-6.319 5.875-6.945.898-2.954 3.384-6.878 8.46-6.878l.017.001.02-.001c3.522 0 5.71 1.646 6.892 2.953a8.338 8.338 0 0 1 2.347-.343l.011.001h.01c.02 0 .039.004.059.004C34.729 19 34.063 12 26.013 12c-5.503 0-7.446 4.691-7.446 4.691s-3.992-2.965-8.092 1.133c-2.105 2.104-1.619 5.338-1.619 5.338S4 23.648 4 28.825C4.001 33.515 9.018 34 9.018 34h2.807c-.505-.959-.825-2.114-.825-3.507z" fill="#1565C0"/><metadata><rdf:RDF xmlns:rdf="http://www.w3.org/1999/02/22-rdf-syntax-ns#" xmlns:rdfs="http://www.w3.org/2000/01/rdf-schema#" xmlns:dc="http://purl.org/dc/elements/1.1/"><rdf:Description about="https://iconscout.com/legal#licenses" dc:title="onedrive" dc:description="onedrive" dc:publisher="Iconscout" dc:date="2017-12-15" dc:format="image/svg+xml" dc:language="en"><dc:creator><rdf:Bag><rdf:li>Icons8</rdf:li></rdf:Bag></dc:creator></rdf:Description></rdf:RDF></metadata></svg>