<?xml version="1.0" encoding="UTF-8"?>
<svg width="103px" height="100px" viewBox="0 0 103 100" version="1.1" xmlns="http://www.w3.org/2000/svg" xmlns:xlink="http://www.w3.org/1999/xlink">
    <title>Outlook-logo</title>
    <g id="Page-1" stroke="none" stroke-width="1" fill="none" fill-rule="evenodd">
        <g id="Outlook-logo" fill-rule="nonzero">
            <path d="M53.2523148,0 L60.1736111,0 C60.1736111,7.71990741 60.1736111,15.4282407 60.1736111,23.1481481 C72.1643519,23.1712963 84.1435185,23.1134259 96.1226852,23.1481481 C98.4837963,23.0324074 101.712963,23.7152778 101.666667,26.6898148 C102.106481,41.3310185 101.678241,56.0069444 101.875,70.6597222 C101.921296,73.2523148 101.840278,77.337963 98.3101852,77.3726852 C85.6134259,77.8125 72.8819444,77.4074074 60.1736111,77.5462963 C60.1736111,84.8726852 60.1736111,92.2106481 60.1736111,99.537037 L52.9976852,99.537037 C35.3587963,96.3310185 17.6736111,93.3796296 0.0115740741,90.2777778 C0,63.275463 0,36.2731481 0,9.28240741 C17.7546296,6.16898148 35.5092593,3.15972222 53.2523148,0 Z" id="path18" fill="#0071C5"></path>
            <path d="M60.1736111,26.6203704 C72.9976852,26.6319444 85.8101852,26.5856481 98.6342593,26.6435185 C98.4143519,28.1597222 97.9513889,29.6527778 96.6782407,30.6018519 C89.0162037,37.7430556 81.400463,44.9189815 73.7615741,52.0833333 C69.1666667,47.9282407 64.6990741,43.6342593 60.1736111,39.4097222 C60.1736111,35.1388889 60.1736111,30.8796296 60.1736111,26.6203704 Z" id="path64" fill="#FFFFFF"></path>
            <path d="M24.8148148,30.8564815 C31.3425926,28.3912037 38.9699074,31.8518519 41.7361111,38.1597222 C45.5092593,46.8402778 44.9768519,58.7152778 37.4768519,65.2777778 C30.5671296,71.1921296 18.9814815,67.8240741 15.8333333,59.4212963 C11.6898148,49.7337963 13.7037037,34.8263889 24.8148148,30.8564815 Z" id="path76" fill="#FFFFFF"></path>
            <path d="M77.3958333,53.1134259 C84.3518519,46.5046296 91.3657407,39.9421296 98.3564815,33.3680556 C98.3912037,46.9328704 98.3564815,60.5092593 98.3680556,74.0740741 C85.6365741,74.0740741 72.9050926,74.0740741 60.1736111,74.0740741 C60.1736111,63.9814815 60.162037,53.8888889 60.1851852,43.8078704 C64.5023148,47.6273148 68.3680556,51.9791667 72.9513889,55.462963 C74.837963,55.8101852 76.1111111,54.1782407 77.3958333,53.1134259 Z" id="path92" fill="#FFFFFF"></path>
            <path d="M25.9375,37.8125 C29.0162037,36.3425926 32.8703704,37.8356481 34.3171296,40.8796296 C36.6319444,45.462963 36.6203704,51.0532407 35.1041667,55.8912037 C34.0277778,59.3287037 30.2662037,62.1643519 26.6203704,60.8101852 C22.0717593,59.375 20.6944444,53.9814815 20.6481481,49.7569444 C20.5902778,45.3819444 21.5972222,39.9305556 25.9375,37.8125 L25.9375,37.8125 Z" id="path96" fill="#0071C5"></path>
        </g>
    </g>
</svg>