<?xml version="1.0" encoding="UTF-8"?>
<svg width="42px" height="38px" viewBox="0 0 42 38" version="1.1" xmlns="http://www.w3.org/2000/svg" xmlns:xlink="http://www.w3.org/1999/xlink">
    <title>71677124-7F05-43BC-81F1-94550FA2BCDB</title>
    <g id="Search" stroke="none" stroke-width="1" fill="none" fill-rule="evenodd" opacity="0.700404576">
        <g id="Search-Results-with-filter" transform="translate(-415.000000, -404.000000)" fill="#2D2E2C" fill-rule="nonzero">
            <g id="Result-Item" transform="translate(406.000000, 371.000000)">
                <g id="noun_message_2146688" transform="translate(9.000000, 33.000000)">
                    <path d="M37.4960526,0 L4.50394737,0 C2.00789474,0 0,1.99371373 0,4.47437137 L0,24.4482592 C0,26.9289168 2.00789474,28.9410058 4.50394737,28.9410058 L10.0394737,28.9410058 L10.0394737,37.1731141 C10.0394737,37.4854932 10.2144737,37.7703095 10.4907895,37.9081238 C10.6105263,37.9632495 10.7394737,38 10.8684211,38 C11.0434211,38 11.2184211,37.9448743 11.3565789,37.8346228 L23.4223684,28.9410058 L37.4960526,28.9410058 C39.9828947,28.9410058 42,26.9289168 42,24.4482592 L42,4.47437137 C42,1.99371373 39.9921053,0 37.4960526,0 Z M41.2631579,24.7350097 C41.2631579,26.3887815 39.9315789,27.7234042 38.2815789,27.7234042 L23.2578948,27.7234042 C23.0745614,27.7234042 22.8912281,27.7911025 22.7464913,27.8974855 L11.2543859,36.4081238 L11.2543859,28.6034816 C11.2543859,28.1199226 10.8684211,27.7234042 10.385965,27.7234042 L3.71842105,27.7234042 C2.06842105,27.7234042 0.736842109,26.3887815 0.736842109,24.7350097 L0.736842109,3.7098646 C0.736842109,2.05609284 2.06842105,0.740812379 3.71842105,0.740812379 L38.2912281,0.740812379 C39.9412281,0.740812379 41.272807,2.05609284 41.272807,3.7098646 L41.272807,24.7350097 L41.2631579,24.7350097 Z" id="Shape"></path>
                    <path d="M34.1445354,19 L8.86507654,19 C8.38447846,19 8,19.4444444 8,20 C8,20.5555556 8.38447846,21 8.86507654,21 L34.1349234,21 C34.6155216,21 35,20.5555556 35,20 C35,19.4444444 34.6155216,19 34.1445354,19 Z" id="Path"></path>
                    <path d="M34.1445354,13 L8.86507654,13 C8.38447846,13 8,13.4444444 8,14 C8,14.5555556 8.38447846,15 8.86507654,15 L34.1349234,15 C34.6155216,15 35,14.5555556 35,14 C35,13.4444444 34.6155216,13 34.1445354,13 Z" id="Path"></path>
                    <path d="M7.89171975,8 L20.1082802,8 C20.6036801,8 21,7.55555556 21,7 C21,6.44444444 20.6036801,6 20.1082802,6 C18.4055444,6 17.1284927,6 16.2771248,6 C14.4137014,6 11.6185664,6 7.89171975,6 C7.39631988,6 7,6.44444444 7,7 C7,7.55555556 7.40622789,8 7.89171975,8 Z" id="Path"></path>
                </g>
            </g>
        </g>
    </g>
</svg>