<?xml version="1.0" encoding="UTF-8"?>
<svg width="40px" height="52px" viewBox="0 0 40 52" version="1.1" xmlns="http://www.w3.org/2000/svg" xmlns:xlink="http://www.w3.org/1999/xlink">
    <title>6225BBED-2D11-4C8C-9E76-0302837BC8EA</title>
    <g id="Search" stroke="none" stroke-width="1" fill="none" fill-rule="evenodd">
        <g id="Search-Results-with-filter" transform="translate(-415.000000, -261.000000)" fill-rule="nonzero">
            <g id="Result-Item" transform="translate(406.000000, 229.000000)">
                <g id="icon-word-(1)" transform="translate(10.000000, 33.000000)">
                    <g id="icon-word" transform="translate(19.000000, 25.000000) scale(-1, 1) translate(-19.000000, -25.000000) ">
                        <g id="path-1-link" stroke="#2D2E2C">
                            <path d="M37.9437037,14.118665 L23.8857143,0 L2.98370371,0 C1.35111111,0 0,1.33481646 0,2.94771969 C0,6.1206162 0,8.50028859 0,10.0867368 C0,18.3013021 0,30.6231499 0,47.0522803 C0,48.6651835 1.35111111,50 2.98370371,50 L35.0162963,50 C36.6488889,50 38,48.6651835 38,47.0522803 C37.9768196,33.4916311 37.9594343,23.3211442 37.9478441,16.5408196 C37.946924,16.002563 37.9455439,15.1951782 37.9437037,14.118665 Z" id="path-1"></path>
                        </g>
                        <g id="Path" opacity="0.699195499" transform="translate(23.500000, 0.000000)" fill="#2D2E2C">
                            <g id="path-3-link">
                                <path d="M0.403208428,0.670616908 L0.403208428,12.3082535 C0.403208428,13.2097985 1.4902608,14.2797127 2.64358398,14.2797127 L14,14.3037845 L0.403208428,0.670616908 Z" id="path-3"></path>
                            </g>
                        </g>
                        <polygon id="W" fill="#2D2E2C" opacity="0.699195499" points="11.2139504 22.2826087 13.4746476 31.9295322 13.961567 33.5286266 14.4600796 31.9866822 16.3845705 22.2826087 20.1523991 22.2826087 22.1812298 31.9295322 22.7029292 33.5286266 23.2246285 32.0324022 25.5085123 22.2826087 29.137221 22.2826087 24.3259938 39.1304348 20.9175581 39.1304348 18.8539474 29.2777713 18.2510948 27.6506548 17.6482423 29.2777713 15.5846315 39.1304348 12.2689424 39.1304348 7.42293525 22.2826087"></polygon>
                    </g>
                </g>
            </g>
        </g>
    </g>
</svg>