<?xml version="1.0" encoding="UTF-8"?>
<svg width="100px" height="100px" viewBox="0 0 100 100" version="1.1" xmlns="http://www.w3.org/2000/svg" xmlns:xlink="http://www.w3.org/1999/xlink">
    <title>teams-logo</title>
    <g id="Page-1" stroke="none" stroke-width="1" fill="none" fill-rule="evenodd">
        <g id="teams-logo">
            <circle id="Oval" fill="#7B83EB" cx="53.125" cy="18.75" r="14.5845455"></circle>
            <path d="M52.0845455,21.875 L38.8781818,21.875 L38.9436364,22.1654545 L38.95,22.1904545 L39.0154545,22.4595455 C40.9981818,29.975 48.6531818,34.6568182 56.2468182,32.9968182 L56.2468182,26.0404545 C56.24,23.7581818 54.3640909,21.8818182 52.0813636,21.875 L52.0845455,21.875 Z" id="Path" fill-opacity="0.098039" fill="#000000" fill-rule="nonzero"></path>
            <path d="M48.9595455,25 L39.9468182,25 C42.3568182,30.0818182 47.5004545,33.3345455 53.125,33.3345455 L53.125,29.1686364 C53.1181818,26.8859091 51.2418182,25.01 48.9595455,25.0031818 L48.9595455,25 Z" id="Path" fill-opacity="0.2" fill="#000000" fill-rule="nonzero"></path>
            <circle id="Oval" fill="#5059C9" cx="85.9377273" cy="23.4377273" r="10.9377273"></circle>
            <g id="Group" transform="translate(0.000000, 25.000000)">
                <path d="M95.3127273,12.5 L70.7468182,12.5 C69.6513636,12.5 68.75,13.4013636 68.75,14.4968182 L68.75,39.8404545 C68.6090909,47.3722727 73.8045455,54.0336364 81.1436364,55.7313636 C82.2004545,55.9531818 83.2768182,56.0645455 84.3563636,56.0645455 C92.9345455,56.0645455 99.9945455,49.0095455 100,40.4313636 L100,17.1872727 C100,14.6159091 97.8840909,12.5 95.3127273,12.5 L95.3127273,12.5 Z" id="Path" fill="#5059C9"></path>
                <path d="M78.125,17.1877273 L78.125,46.8890909 C78.125,60.595 66.8468182,71.8731818 53.1404545,71.8731818 C44.2231818,71.8731818 35.9568182,67.0990909 31.5,59.375 C30.8986364,58.3754545 30.3763636,57.3304545 29.9372727,56.25 C29.5281818,55.2309091 29.1840909,54.1872727 28.9063636,53.125 C28.3909091,51.0813636 28.1286364,48.9822727 28.125,46.875 L28.125,17.1872727 C28.125,17.1854545 28.125,17.1831818 28.125,17.1813636 C28.125,14.6131818 30.2381818,12.5 32.8063636,12.5 L73.4436364,12.5 C76.0118182,12.5 78.125,14.6131818 78.125,17.1813636 L78.125,17.1877273 Z" id="Path" fill="#7B83EB"></path>
                <path d="M48.9595455,0 L39.9468182,0 C42.3568182,5.08181818 47.5004545,8.33454545 53.125,8.33454545 L53.125,4.16863636 C53.1181818,1.88590909 51.2418182,0.01 48.9595455,0.00318181818 L48.9595455,0 Z" id="Path" fill-opacity="0.2" fill="#000000"></path>
                <path d="M56.25,12.5 L56.25,52.0936364 C56.25,54.0277273 54.89,55.7145455 53,56.125 C52.7059091,56.2122727 52.4004545,56.2545455 52.0936364,56.2503312 L29.9372727,56.2503312 C29.5281818,55.2309091 29.1840909,54.1872727 28.9063636,53.125 C28.3909091,51.0813636 28.1286364,48.9822727 28.125,46.875 L28.125,17.1872727 C28.125,17.1854545 28.125,17.1831818 28.125,17.1813636 C28.125,14.6131818 30.2381818,12.5 32.8063636,12.5 L56.25,12.5 Z" id="Path" fill-opacity="0.098039" fill="#000000"></path>
                <path d="M53.125,12.5 L53.125,55.2186364 C53.1295455,55.5254545 53.0872727,55.8309091 53,56.125 C52.5895455,58.015 50.9027273,59.375 48.9686364,59.375 L31.5,59.375 C30.8986364,58.3754545 30.3763636,57.3304545 29.9377273,56.25 C29.5281818,55.2309091 29.1840909,54.1872727 28.9063636,53.125 C28.3909091,51.0813636 28.1286364,48.9822727 28.125,46.875 L28.125,17.1872727 C28.125,17.1854545 28.125,17.1831818 28.125,17.1813636 C28.125,14.6131818 30.2381818,12.5 32.8063636,12.5 L53.125,12.5 Z M53.125,12.5 L53.125,48.9686364 C53.1145455,51.245 51.245,53.1145455 48.9686364,53.125 L28.9063636,53.125 C28.3909091,51.0813636 28.1286364,48.9822727 28.125,46.875 L28.125,17.1872727 C28.125,17.1854545 28.125,17.1831818 28.125,17.1813636 C28.125,14.6131818 30.2381818,12.5 32.8063636,12.5 L53.125,12.5 Z M32.8122727,12.5 C32.8104545,12.5 32.8081818,12.5 32.8063636,12.5 C30.2381818,12.5 28.125,14.6131818 28.125,17.1813636 L28.125,46.875 C28.1286364,48.9822727 28.3909091,51.0813636 28.9063636,53.125 L45.8436364,53.125 C48.12,53.1145455 49.9895455,51.245 50,48.9686364 L50,12.5 L32.8122727,12.5 Z" id="Shape" fill-opacity="0.2" fill="#000000"></path>
                <path d="M4.16545455,0 L45.8313636,0 C48.1163636,0 49.9968182,1.88045455 49.9968182,4.16545455 L49.9968182,45.8313636 C49.9968182,48.1163636 48.1163636,49.9968182 45.8313636,49.9968182 L4.16545455,49.9968182 C1.88045455,49.9968182 0,48.1163636 0,45.8313636 L0,4.16545455 C0,1.88045455 1.88045455,0 4.16545455,0 Z" id="Path" fill="#4B53BC"></path>
                <polygon id="Path" fill="#FFFFFF" points="37.4377273 15.5468182 28.0968182 15.5468182 28.0968182 40.6095455 21.9595455 40.6095455 21.9595455 15.5468182 12.5654545 15.5468182 12.5654545 9.39045455 37.4377273 9.39045455"></polygon>
            </g>
            <polygon id="Path" points="0 0 100 0 100 100 0 100"></polygon>
        </g>
    </g>
</svg>