<?xml version="1.0" encoding="UTF-8"?>
<svg width="18px" height="18px" viewBox="0 0 18 18" version="1.1" xmlns="http://www.w3.org/2000/svg" xmlns:xlink="http://www.w3.org/1999/xlink">
    <title>7232273C-6A7C-42A5-AE7E-C419F860A9AD</title>
    <defs>
        <linearGradient x1="50%" y1="0%" x2="50%" y2="100%" id="linearGradient-1">
            <stop stop-color="#EA04D0" offset="0%"></stop>
            <stop stop-color="#4F4FC4" offset="100%"></stop>
        </linearGradient>
    </defs>
    <g id="-" stroke="none" stroke-width="1" fill="none" fill-rule="evenodd">
        <g id="Search-Results-with-filter" transform="translate(-1150.000000, -142.000000)" fill="url(#linearGradient-1)" fill-rule="nonzero">
            <g id="Group-3" transform="translate(406.000000, 115.000000)">
                <g id="Group-12" transform="translate(744.000000, 0.000000)">
                    <path d="M2.81047746,29.4658784 C6.33668148,26.1223145 11.9072048,26.178985 15.3641099,29.6358901 C18.87863,33.1504103 18.87863,38.8495897 15.3641099,42.3641099 C11.8495897,45.87863 6.15041025,45.87863 2.63589011,42.3641099 C-0.878630036,38.8495897 -0.878630036,33.1504103 2.63589011,29.6358901 L2.63589011,29.6358901 Z M14.854993,30.145007 C11.6216504,26.9116643 6.37834964,26.9116643 3.14500699,30.145007 C-0.0883356633,33.3783496 -0.0883356633,38.6216504 3.14500699,41.854993 C6.37834964,45.0883357 11.6216504,45.0883357 14.854993,41.854993 C18.0883357,38.6216504 18.0883357,33.3783496 14.854993,30.145007 Z M9.4338071,34.2 C9.74495989,34.2 9.92807711,34.3363327 9.92807711,34.6256248 C9.92807711,34.8637023 9.8915965,35.1024608 9.8365185,35.3405383 C9.67199866,36.2257018 9.48888876,37.0942829 9.32364378,37.9794123 C9.26856578,38.268701 9.19560455,38.5579897 9.15912394,38.8479594 C9.14052655,38.9842921 9.15912394,39.137248 9.19560455,39.2735842 C9.25068255,39.4611315 9.39732649,39.5628729 9.59831595,39.5462565 C9.76283579,39.5289659 9.92807345,39.4784221 10.092586,39.4099237 C10.2206252,39.358716 10.3307848,39.273591 10.4588204,39.2396738 C10.6798429,39.1725051 10.8443737,39.2915473 10.7892921,39.4784153 C10.7528407,39.580916 10.6791654,39.6999615 10.6062041,39.7677891 C10.1298064,40.2273277 9.54397775,40.5 8.8479858,40.5 C8.51822831,40.5 8.20707552,40.5 7.87731802,40.4487922 C7.34657106,40.3809578 6.66845136,39.7677925 6.76000997,39.1207066 C6.8329712,38.6777843 6.90664658,38.2355431 6.97960415,37.7926209 C7.12624076,37.0264962 7.27288469,36.2430741 7.4187925,35.4768813 C7.4187925,35.4256735 7.43738988,35.3744658 7.43738988,35.323922 C7.43738988,35.0007195 7.32723388,34.8809997 6.97959682,34.8470859 C6.83296021,34.8297954 6.68631628,34.8131688 6.54040847,34.7792516 C6.37588863,34.7280438 6.28433735,34.5917042 6.30220959,34.4726655 C6.32080697,34.3363327 6.41236559,34.2512044 6.59549013,34.2172906 C6.68704875,34.2 6.79721207,34.2 6.90664292,34.2 L9.4338071,34.2 Z M8.55945931,29.7 C9.3042869,29.7 9.9,30.310355 9.9,31.05 C9.9,31.789645 9.28536828,32.4 8.55945931,32.4 C7.81463172,32.4 7.2,31.789645 7.2,31.0319527 C7.20072621,30.2915865 7.81463172,29.7 8.55945931,29.7 Z" id="Combined-Shape"></path>
                </g>
            </g>
        </g>
    </g>
</svg>