<?xml version="1.0" encoding="UTF-8"?>
<svg width="30px" height="30px" viewBox="0 0 30 30" version="1.1" xmlns="http://www.w3.org/2000/svg" xmlns:xlink="http://www.w3.org/1999/xlink">
    <title>user0</title>
    <defs>
        <circle id="path-1" cx="15" cy="15" r="15"></circle>
    </defs>
    <g id="Search" stroke="none" stroke-width="1" fill="none" fill-rule="evenodd">
        <g id="Main-Page" transform="translate(-1788.000000, -20.000000)">
            <g id="Group-2" transform="translate(0.000000, -13.000000)">
                <g id="header" transform="translate(0.000000, 13.000000)">
                    <g id="top-navigation" transform="translate(1735.000000, 20.000000)">
                        <g id="Mask" transform="translate(53.000000, 0.000000)">
                            <mask id="mask-2" fill="white">
                                <use xlink:href="#path-1"></use>
                            </mask>
                            <circle stroke="#4F4FC4" cx="15" cy="15" r="14.5"></circle>
                            <g mask="url(#mask-2)" id="Combined-Shape" stroke="#4F4FC4">
                                <g transform="translate(5.294118, 6.176471)">
                                    <path d="M9.70588235,11.0882353 C12.2480166,11.0882353 14.5494872,12.1186388 16.2154242,13.7845758 C17.8813612,15.4505128 18.9117647,17.7519834 18.9117647,20.2941176 C18.9117647,20.7685445 18.7105176,21.1851254 18.3710698,21.551476 C17.9479562,22.0081233 17.3210006,22.3867136 16.5622878,22.7009827 C14.7592876,23.4478098 12.2316131,23.8144258 9.70588235,23.8144258 C7.1801516,23.8144258 4.65247714,23.4478098 2.84947688,22.7009827 C2.09076415,22.3867136 1.46380855,22.0081233 1.04069492,21.551476 C0.701247129,21.1851254 0.5,20.7685445 0.5,20.2941176 C0.5,17.7519834 1.53040348,15.4505128 3.19634051,13.7845758 C4.86227755,12.1186388 7.16374814,11.0882353 9.70588235,11.0882353 Z M9.70588235,0.5 C11.0297414,0.5 12.2282708,1.0365999 13.0958355,1.90416455 C13.9634001,2.7717292 14.5,3.97025861 14.5,5.29411765 C14.5,6.61797668 13.9634001,7.81650609 13.0958355,8.68407075 C12.2282708,9.5516354 11.0297414,10.0882353 9.70588235,10.0882353 C8.38202332,10.0882353 7.18349391,9.5516354 6.31592925,8.68407075 C5.4483646,7.81650609 4.91176471,6.61797668 4.91176471,5.29411765 C4.91176471,3.97025861 5.4483646,2.7717292 6.31592925,1.90416455 C7.18349391,1.0365999 8.38202332,0.5 9.70588235,0.5 Z"></path>
                                </g>
                            </g>
                        </g>
                    </g>
                </g>
            </g>
        </g>
    </g>
</svg>