<?xml version="1.0" encoding="UTF-8"?>
<svg width="16px" height="17px" viewBox="0 0 16 17" version="1.1" xmlns="http://www.w3.org/2000/svg" xmlns:xlink="http://www.w3.org/1999/xlink">
    <title>E0119BCA-2643-44C6-A2AE-6B2E92EB315D</title>
    <g id="-" stroke="none" stroke-width="1" fill="none" fill-rule="evenodd">
        <g id="Search-Results-with-filter" transform="translate(-1512.000000, -134.000000)" fill="#4F4FC4" fill-rule="nonzero">
            <g id="Group-3" transform="translate(406.000000, 115.000000)">
                <g id="Group-12" transform="translate(744.000000, 0.000000)">
                    <path d="M370,35.8125 C372.205128,35.8125 374.089744,35.0304487 375.653846,33.4663462 C377.217949,31.9022436 378,30.0176282 378,27.8125 C378,25.6073718 377.217949,23.7227564 375.653846,22.1586538 C374.089744,20.5945513 372.205128,19.8125 370,19.8125 C367.794872,19.8125 365.910256,20.5945513 364.346154,22.1586538 C362.782051,23.7227564 362,25.6073718 362,27.8125 C362,30.0176282 362.782051,31.9022436 364.346154,33.4663462 C365.910256,35.0304487 367.794872,35.8125 370,35.8125 Z M370.807692,31.9278846 L369.192308,31.9278846 L369.192308,28.6201923 L365.884615,28.6201923 L365.884615,27.0048077 L369.192308,27.0048077 L369.192308,23.6971154 L370.807692,23.6971154 L370.807692,27.0048077 L374.115385,27.0048077 L374.115385,28.6201923 L370.807692,28.6201923 L370.807692,31.9278846 Z" id="ï™"></path>
                </g>
            </g>
        </g>
    </g>
</svg>