<?xml version="1.0" encoding="UTF-8"?>
<svg width="16px" height="17px" viewBox="0 0 16 17" version="1.1" xmlns="http://www.w3.org/2000/svg" xmlns:xlink="http://www.w3.org/1999/xlink">
    <title>33820167-4B6F-4E75-AAA2-64925F03A4FF</title>
    <g id="-" stroke="none" stroke-width="1" fill="none" fill-rule="evenodd">
        <g id="Search-Results-with-filter" transform="translate(-1512.000000, -154.000000)" fill="#4F4FC4" fill-rule="nonzero">
            <g id="Group-3" transform="translate(406.000000, 115.000000)">
                <g id="Group-12" transform="translate(744.000000, 0.000000)">
                    <path d="M370,55.9375 C372.214286,55.9375 374.10119,55.1577381 375.660714,53.5982143 C377.220238,52.0386905 378,50.1517857 378,47.9375 C378,45.7232143 377.220238,43.8363095 375.660714,42.2767857 C374.10119,40.7172619 372.214286,39.9375 370,39.9375 C367.785714,39.9375 365.892857,40.7232143 364.321429,42.2946429 C362.77381,43.8422619 362,45.7232143 362,47.9375 C362,50.1517857 362.779762,52.0386905 364.339286,53.5982143 C365.89881,55.1577381 367.785714,55.9375 370,55.9375 Z M374.571429,48.5089286 L365.428571,48.5089286 L365.428571,47.3660714 L374.571429,47.3660714 L374.571429,48.5089286 Z" id=""></path>
                </g>
            </g>
        </g>
    </g>
</svg>